<?xml version="1.0" encoding="UTF-8" standalone="no"?>
<!-- Created with Inkscape (http://www.inkscape.org/) -->

<svg
   xmlns:dc="http://purl.org/dc/elements/1.1/"
   xmlns:cc="http://creativecommons.org/ns#"
   xmlns:rdf="http://www.w3.org/1999/02/22-rdf-syntax-ns#"
   xmlns:svg="http://www.w3.org/2000/svg"
   xmlns="http://www.w3.org/2000/svg"
   xmlns:sodipodi="http://sodipodi.sourceforge.net/DTD/sodipodi-0.dtd"
   xmlns:inkscape="http://www.inkscape.org/namespaces/inkscape"
   id="svg2"
   version="1.1"
   inkscape:version="0.91 r13725"
   xml:space="preserve"
   width="300.23862"
   height="136.68661"
   viewBox="0 0 300.23862 136.68661"
   sodipodi:docname="logo_dc.svg"><metadata
     id="metadata8"><rdf:RDF><cc:Work
         rdf:about=""><dc:format>image/svg+xml</dc:format><dc:type
           rdf:resource="http://purl.org/dc/dcmitype/StillImage" /><dc:title></dc:title></cc:Work></rdf:RDF></metadata><defs
     id="defs6" /><sodipodi:namedview
     pagecolor="#ffffff"
     bordercolor="#666666"
     borderopacity="1"
     objecttolerance="10"
     gridtolerance="10"
     guidetolerance="10"
     inkscape:pageopacity="0"
     inkscape:pageshadow="2"
     inkscape:window-width="640"
     inkscape:window-height="480"
     id="namedview4"
     showgrid="false"
     inkscape:zoom="1.328943"
     inkscape:cx="136.95095"
     inkscape:cy="68.343307"
     inkscape:window-x="0"
     inkscape:window-y="0"
     inkscape:window-maximized="0"
     inkscape:current-layer="g10" /><g
     id="g10"
     inkscape:groupmode="layer"
     inkscape:label="logo_dc_color"
     transform="matrix(1.25,0,0,-1.25,0,136.68662)"><path
       d="m 40.0674,63.2066 c 1.08,0 2.16,-0.54 2.7542,-1.5658 0.2698,-0.4859 0.3781,-0.972 0.432,-1.512 l 0,-0.108 c -0.0539,-1.0262 -0.5942,-2.052 -1.5659,-2.592 -0.4858,-0.324 -1.08,-0.432 -1.62,-0.432 l -3e-4,6.2098 z m 0,5.616 0,6.2102 c 1.08,0 2.1062,-0.54 2.7,-1.5659 0.864,-1.4581 0.3782,-3.348 -1.1338,-4.212 -0.4862,-0.3243 -1.0262,-0.4323 -1.5662,-0.4323 z m 0,11.772 0,6.2102 c 1.08,0 2.1062,-0.5942 2.7,-1.5659 0.864,-1.4581 0.324,-3.4021 -1.1338,-4.2661 -0.4862,-0.2702 -1.0262,-0.3782 -1.5662,-0.3782 z m -0.972,-17.5501 c 0.324,0.108 0.648,0.1621 0.972,0.1621 l 0,-6.2101 c -1.0261,0 -2.052,0.54 -2.6458,1.512 -0.1622,0.324 -0.2699,0.7019 -0.3782,1.0261 -0.3781,1.1339 -1.188,2.16 -2.1061,2.808 l 0,1.6742 c 0.1621,-0.108 0.2698,-0.216 0.432,-0.324 1.08,-0.7022 2.376,-1.0262 3.7261,-0.6483 z m 0.972,23.76 0,-6.2101 c -1.08,0 -2.1061,0.54 -2.7,1.512 -0.864,1.512 -0.324,3.4021 1.1339,4.2661 0.4861,0.2701 1.0261,0.432 1.5661,0.432 z m 0,-11.772 0,-6.2099 c -1.08,0 -2.1061,0.54 -2.6458,1.5659 -0.216,0.324 -0.324,0.648 -0.3782,0.972 -0.432,1.1339 -1.2421,2.1061 -2.1061,2.808 l 0,1.6741 c 0.108,-0.108 0.2698,-0.216 0.3781,-0.2698 1.1339,-0.756 2.376,-1.0262 3.7259,-0.7019 0.324,0.1077 0.7021,0.1616 1.0261,0.1616 z M 34.9373,62.3426 c -0.108,0.108 -0.216,0.1622 -0.324,0.216 -0.9179,0.648 -2.2139,0.864 -3.4022,0.648 -0.3781,-0.1621 -0.756,-0.2698 -1.1338,-0.324 l 0,0 -0.0539,0 0,0 c -1.1338,-0.0538 -2.268,0.4859 -2.916,1.5659 -0.216,0.3781 -0.324,0.756 -0.3781,1.1339 -0.3782,1.0261 -1.1339,1.8901 -1.8902,2.5381 l 0,1.6741 c 0.0539,-0.0538 0.1622,-0.108 0.2699,-0.1621 1.08,-0.7019 2.3221,-1.0261 3.672,-0.7019 0.2699,0.0539 0.4859,0.108 0.756,0.1622 l 0.0544,-3e-4 0,0 c 1.1339,0.108 2.3222,-0.4859 2.9702,-1.512 0.0538,-0.1621 0.1621,-0.324 0.216,-0.4859 0.0538,-0.108 0.0538,-0.216 0.108,-0.324 0.432,-1.188 1.1338,-2.052 2.052,-2.7541 l -3e-4,-1.6739 z m 0,13.5 0,-1.6741 c -0.108,0.108 -0.216,0.1621 -0.3782,0.216 -0.9178,0.648 -2.268,0.864 -3.456,0.648 -1.4581,-0.7019 -3.1861,-0.1621 -3.996,1.2421 -0.864,1.4582 -0.3781,3.4022 1.1339,4.212 1.4581,0.864 3.348,0.3782 4.212,-1.08 0.0539,-0.108 0.108,-0.216 0.1621,-0.2698 0.108,-0.1622 0.1622,-0.324 0.216,-0.54 0.4862,-1.1883 1.1883,-2.0523 2.1062,-2.7542 z m -10.0979,-19.2781 0,1.6741 c 0.108,-0.108 0.2699,-0.216 0.3782,-0.324 1.08,-0.7018 2.376,-1.0261 3.7258,-0.648 1.404,0.4859 2.9702,-0.108 3.7259,-1.404 0.864,-1.4581 0.324,-3.4021 -1.1339,-4.212 -1.4581,-0.864 -3.4021,-0.3781 -4.2661,1.08 -0.1622,0.324 -0.2699,0.7019 -0.3782,1.0262 -0.3778,1.1338 -1.1877,2.1058 -2.0517,2.8077 z m 0,11.556 c -0.1621,0.1621 -0.324,0.2699 -0.4858,0.3781 -0.972,0.5942 -2.268,0.8102 -3.456,0.5942 -0.3782,-0.1622 -0.7563,-0.2702 -1.1342,-0.2702 l 0,6.156 c 0.972,-0.0538 1.944,-0.5941 2.484,-1.512 0.0539,-0.108 0.0539,-0.216 0.108,-0.2698 0.108,-0.1622 0.216,-0.324 0.2699,-0.54 0.4858,-1.2422 1.188,-2.1062 2.2138,-2.8619 l 3e-4,-1.6744 z m 0,-9.8819 0,-1.6741 c -0.1621,0.0539 -0.2698,0.1621 -0.3781,0.216 -0.972,0.648 -2.268,0.864 -3.456,0.648 -0.3782,-0.216 -0.8102,-0.324 -1.2422,-0.324 l 0,6.2101 c 1.0262,-0.0538 2.052,-0.5941 2.592,-1.5658 0.0539,-0.0539 0.108,-0.1622 0.108,-0.2699 0.108,-0.108 0.216,-0.2698 0.2699,-0.4858 0.4864,-1.1886 1.1344,-2.0526 2.1064,-2.7545 z m -5.076,-13.0141 0,6.2101 c 1.08,0 2.1062,-0.5941 2.7,-1.5658 0.864,-1.4582 0.324,-3.4022 -1.1338,-4.2662 -0.4862,-0.2701 -1.0262,-0.3781 -1.5662,-0.3781 z m 0,23.5981 c -1.1338,-0.108 -2.268,0.432 -2.916,1.512 -0.2698,0.4859 -0.3781,1.0262 -0.432,1.512 l 0,0.0539 c 0.0539,1.08 0.5942,2.1061 1.5659,2.7 0.54,0.324 1.188,0.432 1.7818,0.3781 l 3e-4,-6.156 z m 0,-5.508 0,-6.2101 c -1.08,-0.0539 -2.2138,0.54 -2.808,1.5659 -0.8101,1.4581 -0.324,3.348 1.1339,4.212 0.54,0.3242 1.1341,0.4322 1.6741,0.4322 z m 0,-11.88 0,-6.2101 c -1.08,0 -2.1061,0.54 -2.7,1.512 -0.8101,1.512 -0.324,3.4021 1.1339,4.2661 0.4861,0.2699 1.0261,0.432 1.5661,0.432"
       style="fill:#bae3d9;fill-opacity:1;fill-rule:evenodd;stroke:none"
       id="path12"
       inkscape:connector-curvature="0" /><path
       d="m 73.1154,66.5005 0,-0.108 c -0.0538,-1.08 -0.5941,-2.052 -1.5658,-2.6459 -0.4859,-0.2698 -1.08,-0.432 -1.62,-0.432 l 0,6.2102 c 1.08,0.0538 2.16,-0.54 2.7541,-1.512 0.2696,-0.4862 0.3776,-1.0262 0.4317,-1.5123 z m -3.1861,8.6941 0,6.2102 c 1.08,0 2.1061,-0.5942 2.7,-1.5659 0.864,-1.4581 0.3781,-3.4021 -1.1339,-4.2661 -0.4861,-0.2702 -1.0261,-0.4323 -1.5661,-0.3782 z m 0,11.7179 0,6.2101 c 1.08,0 2.1061,-0.54 2.7,-1.512 0.864,-1.512 0.324,-3.4021 -1.1339,-4.2661 -0.4861,-0.2699 -1.0261,-0.432 -1.5661,-0.432 z m -11.124,-23.328 c 1.404,0.4859 2.9701,-0.0539 3.7258,-1.3499 0.864,-1.512 0.324,-3.4021 -1.1338,-4.2661 -1.4582,-0.864 -3.4022,-0.324 -4.2662,1.1339 -0.1621,0.324 -0.2698,0.648 -0.3781,1.0261 -0.432,1.2421 -1.404,2.3221 -2.4299,3.024 -0.972,0.648 -2.268,0.864 -3.456,0.5941 C 50.489,63.5845 50.057,63.4768 49.625,63.4768 l 0,6.2101 c 1.0261,-0.0538 2.052,-0.5941 2.592,-1.5658 0.0539,-0.108 0.108,-0.1622 0.1621,-0.2699 0.0539,-0.1621 0.1622,-0.324 0.216,-0.54 0.54,-1.3498 1.3499,-2.268 2.484,-3.024 1.0803,-0.7027 2.3763,-1.0267 3.7262,-0.7027 z m 11.124,29.5381 0,-6.2101 c -1.08,0 -2.1062,0.5941 -2.7,1.5659 -0.864,1.4581 -0.324,3.4021 1.1338,4.212 0.4862,0.3242 1.0262,0.4322 1.5662,0.4322 z m 0,-11.7181 c -0.324,0 -0.648,-0.108 -1.0262,-0.216 -1.3498,-0.324 -2.592,0 -3.7258,0.7019 -1.1339,0.756 -1.944,1.728 -2.4299,3.0778 -0.108,0.1622 -0.1621,0.324 -0.2698,0.4859 -0.0539,0.108 -0.108,0.216 -0.1622,0.2698 -0.864,1.512 -2.7541,1.9979 -4.212,1.1339 -1.512,-0.864 -1.9978,-2.7541 -1.1338,-4.2661 0.8101,-1.404 2.5381,-1.8902 3.996,-1.2422 1.188,0.2699 2.5381,0.0539 3.456,-0.5941 1.0261,-0.648 1.9978,-1.7819 2.484,-3.024 0.0538,-0.324 0.1621,-0.7019 0.3781,-1.0262 0.54,-0.972 1.5659,-1.512 2.6459,-1.512 l -3e-4,6.2113 z m 0,-11.88 c -0.324,0 -0.648,-0.0539 -0.972,-0.1621 -1.3499,-0.324 -2.592,0 -3.7259,0.7018 -1.1338,0.756 -1.944,1.6742 -2.484,3.024 0,0.1622 -0.0538,0.2699 -0.108,0.3782 -0.0538,0.108 -0.1621,0.2698 -0.216,0.432 -0.648,1.08 -1.836,1.62 -2.9701,1.512 l 0,0 c 0,0 0,0 -0.0539,0 -0.2698,0 -0.4858,-0.0539 -0.756,-0.1622 -1.3498,-0.324 -2.592,0 -3.672,0.7019 -1.1338,0.756 -1.944,1.728 -2.484,3.0778 -0.0538,0.1622 -0.1621,0.3782 -0.2698,0.4859 0,0.108 -0.0539,0.216 -0.108,0.2699 -0.54,0.9178 -1.4582,1.4581 -2.484,1.5658 l 0,-6.2101 c 0.3781,0.0538 0.756,0.108 1.1338,0.2698 1.188,0.2699 2.484,0.0539 3.456,-0.5941 0.972,-0.648 1.944,-1.6742 2.376,-2.8619 0.0539,-0.432 0.216,-0.8101 0.432,-1.188 0.5942,-1.0261 1.728,-1.62 2.8619,-1.512 l 0,0 c 0.0538,0 0.0538,0 0.0538,0 l 0,0 c 0.3782,0 0.756,0.108 1.1339,0.2699 1.188,0.216 2.484,0 3.4021,-0.5942 1.0262,-0.7018 1.9979,-1.7818 2.484,-3.024 0.0539,-0.3781 0.1622,-0.7018 0.324,-1.0261 0.5942,-0.972 1.62,-1.512 2.6459,-1.5659 l 3e-4,6.2116 z m -20.304,-41.5259 0,6.156 c 0.972,-0.108 1.836,-0.5941 2.376,-1.512 0.8101,-1.4581 0.324,-3.348 -1.1339,-4.212 -0.3781,-0.216 -0.8101,-0.3781 -1.2421,-0.432 z m 0,11.8259 0,6.2101 c 0.9178,-0.1621 1.7818,-0.7018 2.3221,-1.5658 0.864,-1.4582 0.324,-3.348 -1.1338,-4.212 -0.3782,-0.2163 -0.7563,-0.3782 -1.1883,-0.4323 z m 0,11.7181 c 0.54,0 1.08,0.1622 1.5658,0.432 1.512,0.864 1.9979,2.7542 1.1339,4.2662 -0.5941,0.972 -1.62,1.512 -2.7,1.512 l 3e-4,-6.2102 z m 0,11.9339 c -1.08,-0.0539 -2.2139,0.4859 -2.808,1.512 -0.8102,1.512 -0.324,3.4021 1.1338,4.2661 0.54,0.2699 1.1339,0.432 1.6742,0.432 l 0,-6.2101 z m 0,17.8741 0,-6.2101 c -1.1339,-0.0539 -2.268,0.4859 -2.916,1.5659 -0.864,1.4581 -0.324,3.348 1.1338,4.212 0.5942,0.3242 1.1883,0.4861 1.7822,0.4322 z m 0,-23.5981 0,-6.2101 c -1.08,0 -2.1062,0.54 -2.6459,1.5658 -0.864,1.4582 -0.3781,3.348 1.08,4.212 0.4859,0.3243 1.0259,0.4323 1.5659,0.4323 z m 0,-11.7179 c -0.432,0.0539 -0.9179,0 -1.404,-0.1621 -1.3499,-0.324 -2.6459,-0.0539 -3.7259,0.7019 -1.1338,0.756 -1.944,1.6741 -2.484,3.024 -0.0538,0.216 -0.1621,0.3781 -0.2698,0.54 0,0.0538 -0.0539,0.1621 -0.108,0.2698 -0.864,1.4582 -2.7542,1.944 -4.2662,1.1339 -1.4581,-0.864 -1.9978,-2.808 -1.1338,-4.2662 0.8101,-1.404 2.592,-1.944 4.0501,-1.2421 1.188,0.216 2.484,0 3.456,-0.648 1.0262,-0.648 1.9979,-1.728 2.4299,-3.024 0.0538,-0.324 0.216,-0.648 0.3781,-0.972 0.648,-1.1339 1.8902,-1.6741 3.0779,-1.5659 l -3e-4,6.2107 z m 0,-11.88 0,-6.156 c -1.188,-0.108 -2.376,0.432 -3.024,1.512 -0.1622,0.324 -0.324,0.7019 -0.3782,1.0262 -0.432,1.2421 -1.404,2.376 -2.4298,3.024 -0.972,0.648 -2.268,0.864 -3.456,0.648 -0.324,-0.1622 -0.7019,-0.2699 -1.08,-0.324 l 0,0 -0.0539,-3e-4 0,0 c -1.1338,-0.0539 -2.3221,0.4859 -2.916,1.5659 -0.216,0.3781 -0.324,0.756 -0.3781,1.1338 -0.4859,1.188 -1.404,2.268 -2.376,2.916 -0.972,0.5942 -2.268,0.8102 -3.5099,0.5942 -0.324,-0.1622 -0.7018,-0.2699 -1.08,-0.2699 l 0,6.156 c 0.972,-0.0539 1.944,-0.5941 2.4299,-1.512 0.0538,-0.108 0.108,-0.216 0.1621,-0.2699 0.108,-0.1621 0.1622,-0.324 0.2699,-0.54 0.4858,-1.3498 1.296,-2.268 2.484,-3.024 1.08,-0.7018 2.3221,-1.0261 3.6181,-0.7018 0.2699,0.0538 0.54,0.108 0.8102,0.1621 l 0,0 0.0538,-3e-4 c 1.1339,0.108 2.3222,-0.4858 2.916,-1.512 0.108,-0.1621 0.1622,-0.324 0.216,-0.4858 0.0539,-0.108 0.108,-0.216 0.1622,-0.324 0.4858,-1.3499 1.3498,-2.3222 2.484,-3.0779 1.08,-0.7018 2.376,-0.972 3.7258,-0.648 0.432,0.1616 0.9179,0.1616 1.3499,0.1077 z m -20.6819,-17.928 0,6.2102 c 1.08,0 2.1062,-0.5942 2.7,-1.5659 0.864,-1.4581 0.324,-3.4021 -1.1338,-4.2661 -0.4862,-0.2702 -1.0262,-0.3782 -1.5662,-0.3782 z m 0,11.88 c 0.432,0 0.8102,0.108 1.188,0.324 1.2422,0.216 2.5382,0 3.5099,-0.648 1.0261,-0.648 1.9978,-1.7818 2.4298,-3.024 0.0539,-0.324 0.216,-0.7018 0.3782,-1.0261 0.864,-1.4581 2.7541,-1.944 4.2661,-1.08 1.4582,0.864 1.944,2.7541 1.08,4.212 -0.756,1.296 -2.3221,1.8901 -3.672,1.404 -1.3498,-0.3781 -2.6458,-0.0539 -3.7258,0.648 -1.1339,0.756 -1.9979,1.728 -2.484,3.0779 -0.0539,0.216 -0.1622,0.3781 -0.2699,0.54 -0.0538,0.0538 -0.0538,0.1621 -0.108,0.216 -0.5941,0.972 -1.5658,1.512 -2.592,1.5658 l -3e-4,-6.2096 z m 0,17.8739 0,-6.156 c -1.1338,-0.108 -2.3221,0.432 -2.916,1.512 -0.2698,0.4859 -0.432,1.0261 -0.432,1.512 l 0,0.0541 c 0,1.08 0.5942,2.1062 1.5659,2.7 0.54,0.324 1.188,0.432 1.7821,0.3779 z m 0,-11.664 0,-6.2101 c -1.1338,-0.0539 -2.2138,0.54 -2.808,1.5658 -0.864,1.4582 -0.324,3.348 1.1339,4.212 0.54,0.3243 1.08,0.4323 1.6741,0.4323 z m 0,-11.88 0,-6.2101 c -1.08,0 -2.1061,0.54 -2.7,1.512 -0.864,1.512 -0.324,3.4021 1.1339,4.2661 0.4861,0.2701 1.0261,0.432 1.5661,0.432"
       style="fill:#3699ab;fill-opacity:1;fill-rule:evenodd;stroke:none"
       id="path14"
       inkscape:connector-curvature="0" /><path
       d="m 78.5693,40.2565 c 1.0261,-0.0539 1.9978,-0.5941 2.5381,-1.512 0.864,-1.512 0.3782,-3.4021 -1.1338,-4.2661 -0.432,-0.2699 -0.9179,-0.3782 -1.404,-0.432 l -3e-4,6.2101 z m 3.348,20.52 0,-0.108 c -0.0539,-1.0261 -0.5942,-2.052 -1.5659,-2.6459 -0.54,-0.2698 -1.188,-0.432 -1.7818,-0.3781 l 0,6.2101 c 1.188,0.0539 2.3221,-0.4858 2.916,-1.5658 0.2698,-0.4862 0.3778,-0.9723 0.4317,-1.5123 z m -3.348,-14.8499 0,6.156 c 1.0261,-0.0538 1.9978,-0.5941 2.5381,-1.512 0.8102,-1.4581 0.324,-3.4021 -1.1338,-4.2661 -0.4323,-0.216 -0.9182,-0.3779 -1.4043,-0.3779 z m -1.1339,-5.832 c 0.3782,0.1622 0.756,0.216 1.1339,0.1622 l 0,-6.2102 c -1.08,0 -2.2139,0.54 -2.808,1.5659 -0.216,0.324 -0.324,0.648 -0.3782,1.0261 -0.3781,1.1339 -1.2421,2.1062 -2.16,2.808 l 0,1.6742 c 0.1622,-0.108 0.324,-0.216 0.4859,-0.324 1.0803,-0.7022 2.3763,-1.0262 3.7264,-0.7022 z m 1.1339,23.76 0,-6.2101 c -0.972,0.0539 -1.944,0.5941 -2.484,1.512 -0.864,1.512 -0.324,3.4021 1.1338,4.2661 0.4323,0.2699 0.9182,0.3779 1.3502,0.432 z m 0,-11.772 0,-6.156 c -1.1339,-0.108 -2.268,0.4859 -2.8619,1.512 -0.1621,0.324 -0.324,0.7019 -0.3781,1.0262 -0.3782,1.1338 -1.188,2.1061 -2.1062,2.7541 l 3e-4,1.6736 c 0.1622,-0.0539 0.2699,-0.1621 0.432,-0.2699 1.08,-0.7018 2.376,-1.0261 3.7259,-0.7018 0.3781,0.1618 0.8101,0.2157 1.188,0.1618 z m -5.3459,-12.636 c -0.0538,0.0539 -0.1621,0.1622 -0.2698,0.216 -0.972,0.5942 -2.268,0.8102 -3.456,0.5942 -0.324,-0.1622 -0.7019,-0.2699 -1.08,-0.2699 l 0,0 c -0.0539,0 -0.0539,0 -0.0539,0 0,0 0,0 -0.0538,0 -1.1339,-0.108 -2.268,0.4859 -2.8619,1.512 -0.216,0.3782 -0.324,0.756 -0.3781,1.188 -0.432,0.972 -1.1339,1.8902 -1.944,2.5382 l 0,1.6741 c 0.108,-0.0538 0.216,-0.108 0.2698,-0.216 1.08,-0.7018 2.376,-0.972 3.672,-0.7018 0.2699,0.108 0.54,0.1621 0.8102,0.1621 l 0,0 0,0 c 1.188,0.108 2.376,-0.432 2.9701,-1.512 0.108,-0.1621 0.1621,-0.324 0.216,-0.432 0.0539,-0.108 0.108,-0.216 0.1621,-0.3781 0.432,-1.1339 1.08,-1.9979 1.9979,-2.7 l -6e-4,-1.6748 z m 0,13.4459 0,-1.6741 c -0.108,0.108 -0.216,0.216 -0.324,0.2698 -0.972,0.648 -2.268,0.864 -3.456,0.5942 -1.4581,-0.648 -3.24,-0.1622 -4.0501,1.2421 -0.864,1.512 -0.324,3.4021 1.1338,4.2661 1.4582,0.864 3.4022,0.3782 4.2662,-1.1338 0.0538,-0.0539 0.108,-0.1622 0.108,-0.2699 0.108,-0.1621 0.216,-0.324 0.2698,-0.4858 0.4323,-1.1886 1.1342,-2.0526 2.0523,-2.8086 z m -10.0981,-19.2779 0,1.6742 c 0.1621,-0.108 0.2698,-0.1622 0.432,-0.2699 1.08,-0.7018 2.376,-1.0261 3.7258,-0.7018 1.3499,0.4858 2.916,-0.0539 3.672,-1.3499 0.864,-1.512 0.3782,-3.4021 -1.1338,-4.2661 -1.4582,-0.864 -3.348,-0.324 -4.212,1.1338 -0.216,0.324 -0.324,0.648 -0.3782,1.0262 -0.3778,1.0794 -1.1877,2.1055 -2.1058,2.7535 z m 0,11.6099 c -0.1622,0.108 -0.324,0.216 -0.432,0.324 -0.972,0.648 -2.3222,0.864 -3.5099,0.5941 -0.324,-0.1621 -0.7018,-0.216 -1.08,-0.2698 l 0,6.2101 c 0.972,-0.108 1.8902,-0.648 2.4299,-1.5658 0.0538,-0.0539 0.108,-0.1622 0.1621,-0.2699 0.108,-0.108 0.1622,-0.324 0.2699,-0.4858 0.432,-1.2422 1.188,-2.16 2.16,-2.8619 l 0,-1.675 z m 0,-9.936 0,-1.6741 c -0.108,0.108 -0.216,0.1621 -0.324,0.2698 -0.972,0.648 -2.268,0.864 -3.5099,0.5942 -0.3781,-0.1622 -0.8101,-0.2699 -1.188,-0.2699 l 0,6.2101 c 1.0262,-0.0538 1.9979,-0.5941 2.5382,-1.5658 0.0538,-0.108 0.108,-0.1622 0.1621,-0.2699 0.108,-0.1621 0.1622,-0.324 0.2699,-0.54 0.4317,-1.1344 1.1338,-2.0523 2.0517,-2.7544 z m -5.0219,-13.0139 0,6.2102 c 1.08,0 2.1062,-0.54 2.7,-1.512 0.8102,-1.512 0.324,-3.4022 -1.1338,-4.2662 -0.4862,-0.2701 -1.0262,-0.432 -1.5662,-0.432 z m 0,23.5979 c -1.188,-0.0539 -2.3221,0.4859 -2.916,1.5659 -0.2698,0.432 -0.432,0.972 -0.432,1.512 l 0,0.0538 c 0,1.0262 0.54,2.1062 1.5659,2.6459 0.54,0.324 1.188,0.4858 1.7818,0.432 l 3e-4,-6.2096 z m 0,-5.4539 0,-6.2101 c -1.1338,-0.0539 -2.2138,0.4859 -2.808,1.512 -0.864,1.512 -0.3781,3.4021 1.1339,4.2661 0.54,0.324 1.08,0.432 1.6741,0.432 z m 0,-11.9341 0,-6.2101 c -1.08,0 -2.1061,0.5941 -2.7,1.5658 -0.864,1.4582 -0.3781,3.4022 1.1339,4.212 0.4861,0.3243 1.0261,0.4323 1.5661,0.4323"
       style="fill:#bae3d9;fill-opacity:1;fill-rule:evenodd;stroke:none"
       id="path16"
       inkscape:connector-curvature="0" /><path
       d="m 198.2333,65.2586 0,1.296 c 0.972,0 1.6741,0.432 2.052,1.3499 0.324,0.9179 0.54,2.268 0.54,4.104 0,1.7819 -0.216,3.1861 -0.54,4.0501 -0.3782,0.9179 -1.08,1.404 -2.052,1.404 l 0,1.2422 c 1.4581,0 2.484,-0.5942 3.1861,-1.7819 0.7019,-1.188 1.08,-2.8618 1.08,-4.9141 0,-2.1062 -0.3781,-3.78 -1.0261,-4.968 -0.7019,-1.1883 -1.7819,-1.7822 -3.24,-1.7822 z m 0,13.4459 0,-1.2421 c -0.972,0 -1.62,-0.4859 -1.9979,-1.404 -0.3781,-0.9179 -0.54,-2.268 -0.54,-4.0502 0,-1.836 0.1622,-3.24 0.4859,-4.104 0.3781,-0.9178 1.0261,-1.3498 2.052,-1.3498 l 0,-1.296 c -1.4582,0 -2.5382,0.5941 -3.24,1.7818 -0.648,1.188 -1.0262,2.8619 -1.0262,4.968 0,2.1062 0.3782,3.7259 1.0262,4.9142 0.7021,1.1882 1.7821,1.7821 3.24,1.7821 z m -48.168,-9.3419 0,1.3499 1.5661,0 -1.1338,4.1579 c -0.108,0.3781 -0.1622,0.756 -0.2699,1.08 -0.0538,0.324 -0.108,0.54 -0.1621,0.7018 0,0 0,0 0,-0.0538 l 0,1.836 0.5938,2e-4 c 0.1622,0 0.216,-0.0538 0.2699,-0.216 l 3.78,-12.2581 0.108,-0.324 c 0,-0.0539 -0.0539,-0.108 -0.2699,-0.108 l -1.1341,0 c -0.216,0 -0.324,0.0539 -0.324,0.216 l -1.08,3.6181 -1.944,0 z m 15.876,-3.6181 c 0,-0.1621 -0.0539,-0.216 -0.216,-0.216 l -1.08,0 c -0.1622,0 -0.2699,0.0539 -0.2699,0.216 l -0.2698,9.72 c 0,0.1621 0,0.3781 0,0.5941 0,0.1622 0,0.3782 0,0.54 l -3e-4,0.0539 c 0,-0.432 -0.108,-0.864 -0.2699,-1.3499 l -2.268,-6.5338 c -0.0538,-0.1622 -0.1621,-0.216 -0.2698,-0.216 l -0.5942,-3e-4 c -0.108,0 -0.216,0.0539 -0.2698,0.216 l -2.16,6.5339 c -0.1622,0.4858 -0.2699,0.9178 -0.2699,1.3498 l 0,0 c 0,-0.1621 0,-0.3781 0,-0.5941 0,-0.1622 0,-0.3782 0,-0.5942 l -0.2698,-9.72 c 0,-0.1621 -0.0539,-0.216 -0.216,-0.216 l -1.1345,6e-4 c -0.108,0 -0.216,0.0539 -0.216,0.216 l 0.756,12.4741 c 0,0.1622 0.0539,0.216 0.216,0.216 l 1.188,0 c 0.108,0 0.1622,-0.0538 0.216,-0.216 l 2.268,-6.48 c 0,-0.0538 0,-0.1621 0.0539,-0.2698 0.0538,-0.1622 0.108,-0.432 0.1621,-0.864 0.0539,0.1621 0.108,0.3781 0.216,0.648 0.0539,0.2698 0.0539,0.432 0.108,0.4858 l 2.2139,6.48 c 0.0538,0.1622 0.108,0.216 0.216,0.216 l 1.188,0 c 0.1621,0 0.216,-0.0538 0.216,-0.216 l 0.756,-12.4741 z m 8.9101,0.0541 c 0,-0.1621 -0.0538,-0.2698 -0.216,-0.2698 l -5.832,-3e-4 c -0.1621,0 -0.216,0.0539 -0.216,0.216 l 0,12.4741 c 0,0.1622 0.0539,0.216 0.216,0.216 l 5.8859,0 c 0.0538,0 0.1621,0 0.1621,-0.0538 0.0539,0 0.0539,-0.0539 0.0539,-0.0539 l -0.0539,-0.216 -0.2698,-0.8101 c 0,-0.108 -0.108,-0.1622 -0.2699,-0.1622 l -4.2123,0 0,-4.212 3.7259,0 c 0.1621,0 0.216,-0.0538 0.216,-0.216 l 0,-0.864 c 0,-0.1621 -0.0539,-0.216 -0.216,-0.216 l -3.7259,0 0,-4.752 4.536,0 c 0.1622,0 0.216,-0.108 0.216,-0.216 l 0,-0.864 z m 9.396,-0.0541 c 0,-0.1621 -0.108,-0.216 -0.2698,-0.216 l -1.0262,0 c -0.108,0 -0.216,0.0539 -0.324,0.216 l -4.32,9.288 c -0.2698,0.54 -0.432,1.08 -0.54,1.62 l 0,0 c 0.0539,-0.324 0.108,-0.648 0.1622,-0.9179 0,-0.2698 0,-0.4858 0,-0.756 l 0,-9.2341 c 0,-0.1621 -0.0539,-0.216 -0.216,-0.216 l -0.9723,0 c -0.1622,0 -0.216,0.0539 -0.216,0.216 l 0,12.4741 c 0,0.1622 0.0538,0.216 0.216,0.216 l 1.296,0 c 0.108,0 0.216,-0.0538 0.2698,-0.1621 l 4.1579,-8.8021 c 0.0539,-0.1622 0.1621,-0.432 0.216,-0.648 0.108,-0.2699 0.1621,-0.54 0.216,-0.756 l 0.0544,2e-4 c 0,0.108 -0.0538,0.2699 -0.108,0.54 -0.0538,0.2699 -0.0538,0.4859 -0.0538,0.5942 l -3e-4,9.0178 c 0,0.1622 0.0538,0.216 0.216,0.216 l 0.972,0 c 0.1621,0 0.2698,-0.0538 0.2698,-0.216 l 3e-4,-12.4741 z m 5.94,11.3941 0,-11.3941 c 0,-0.1621 -0.0538,-0.216 -0.216,-0.216 l -1.08,0 c -0.1621,0 -0.216,0.0539 -0.216,0.216 l 0,11.3941 -2.808,0 c -0.1621,0 -0.216,0.0539 -0.216,0.216 l 0,0.864 c 0,0.1622 0.0539,0.216 0.216,0.216 l 7.3979,0 c 0.1621,0 0.2698,-0.0538 0.2698,-0.1621 l -0.108,-0.216 -0.2698,-0.7019 c -0.0539,-0.1621 -0.1622,-0.216 -0.2699,-0.216 l -2.7,0 z m -40.1221,1.296 0,-1.836 c -0.0539,-0.216 -0.0539,-0.3781 -0.108,-0.4858 0,-0.108 -0.108,-0.4859 -0.324,-1.2422 l -1.1339,-4.1581 1.5659,0 0,-1.3499 -1.944,0 -0.9179,-3.6181 c -0.0538,-0.1621 -0.1621,-0.216 -0.3781,-0.216 l -1.1339,0 c -0.216,0 -0.2698,0.0539 -0.2698,0.108 l 0.0538,0.324 3.78,12.2581 c 0.0539,0.1622 0.1622,0.216 0.2699,0.216 l 0.54,0 z m -17.064,-8.1541 0,2.376 c 0.4858,0.108 0.9178,0.216 1.2421,0.432 0.432,0.324 0.7019,0.972 0.7019,1.8901 0,0.9182 -0.216,1.512 -0.648,1.7819 -0.3782,0.1621 -0.8102,0.324 -1.296,0.324 l 0,1.3499 c 0.972,-0.0539 1.728,-0.216 2.376,-0.5942 0.756,-0.432 1.08,-1.3498 1.08,-2.808 0,-0.972 -0.216,-1.728 -0.756,-2.268 -0.4859,-0.5941 -1.08,-1.0261 -1.728,-1.2421 l 3.132,-5.6699 0.108,-0.216 c -0.108,-0.108 -0.1622,-0.1621 -0.216,-0.1621 l -1.188,-0.216 c -0.1622,0 -0.216,0.0538 -0.2699,0.1621 l -2.5381,4.8603 z m 9.072,6.8581 0,-11.3941 c 0,-0.1621 -0.0539,-0.216 -0.216,-0.216 l -1.08,0 c -0.1622,0 -0.216,0.0539 -0.216,0.216 l 0,11.3941 -2.808,0 c -0.1622,0 -0.216,0.0539 -0.216,0.216 l 0,0.864 c 0,0.1622 0.0538,0.216 0.216,0.216 l 7.3981,0 c 0.1622,0 0.216,-0.0538 0.216,-0.1621 l -0.0538,-0.216 -0.2699,-0.7019 c -0.0538,-0.1621 -0.1621,-0.216 -0.2698,-0.216 l -2.7006,0 z m -9.072,1.296 0,-1.3498 c -0.1622,0.0538 -0.324,0.0538 -0.4859,0.0538 l -1.4581,0 0,-4.4821 1.2421,0 c 0.216,0 0.4859,0 0.7019,0 l 0,-2.376 -0.5942,1.1339 -1.3498,2e-4 0,-5.6698 c 0,-0.1622 -0.108,-0.216 -0.216,-0.216 l -1.1339,-3e-4 c -0.108,0 -0.216,0.0539 -0.216,0.216 l 0,12.4741 c 0,0.1622 0.108,0.216 0.216,0.216 l 2.9699,0 c 0.108,0 0.216,0 0.324,0 z m -9.828,-9.072 0,1.3499 1.5661,0 -1.1338,4.1579 c -0.108,0.3781 -0.216,0.756 -0.2699,1.08 -0.108,0.324 -0.1621,0.54 -0.1621,0.7018 0,0 0,0 0,-0.0538 l 0,1.836 0.5938,2e-4 c 0.108,0 0.216,-0.0538 0.2699,-0.216 l 3.78,-12.2581 0.108,-0.324 c 0,-0.0539 -0.108,-0.108 -0.2699,-0.108 l -1.188,0 c -0.1621,0 -0.2698,0.0539 -0.324,0.216 l -1.08,3.6181 -1.8901,0 z m 0,9.072 0,-1.836 c -0.0539,-0.216 -0.108,-0.3781 -0.108,-0.4858 -0.0539,-0.108 -0.1622,-0.4859 -0.324,-1.2422 l -1.1339,-4.1578 1.5659,-3e-4 0,-1.3499 -1.944,0 -0.9179,-3.6181 c -0.0538,-0.1621 -0.1621,-0.216 -0.324,-0.216 l -1.188,0 c -0.1621,0 -0.2698,0.0539 -0.2698,0.108 l 0.108,0.324 3.7258,12.2581 c 0,0.1622 0.108,0.216 0.2699,0.216 l 0.54,0 z m -8.748,-7.452 0,1.3499 c 0.54,0.108 0.972,0.2699 1.296,0.4859 0.432,0.3781 0.648,1.08 0.648,2.16 0,0.9178 -0.216,1.512 -0.648,1.7818 -0.324,0.1622 -0.756,0.324 -1.296,0.324 l 0,1.3499 c 0.972,-0.0539 1.7818,-0.216 2.4298,-0.5942 0.7019,-0.432 1.08,-1.3498 1.08,-2.808 0,-1.4581 -0.3781,-2.5381 -1.188,-3.132 -0.6477,-0.4853 -1.4037,-0.8093 -2.3218,-0.9173 z m -17.7659,-3.996 c 0.7019,0.1622 1.2422,0.5942 1.5659,1.188 0.432,0.9179 0.648,2.2139 0.648,3.996 0,1.944 -0.2699,3.2939 -0.8102,3.9419 -0.324,0.432 -0.8101,0.7019 -1.404,0.864 l 0,1.404 c 1.08,-0.1621 1.944,-0.54 2.592,-1.1339 0.9179,-0.8101 1.3499,-2.5381 1.3499,-5.1301 0,-2.3221 -0.432,-3.996 -1.2421,-5.0219 -0.5942,-0.756 -1.512,-1.2421 -2.7,-1.4581 l 5e-4,1.3501 z m 17.7659,11.448 0,-1.3498 c -0.108,0.0538 -0.2699,0.0538 -0.4859,0.0538 l -1.404,0 0,-4.86 1.188,0 c 0.2699,0 0.4859,0.0539 0.7019,0.0539 l 0,-1.3499 c -0.1622,0 -0.3782,0 -0.54,0 l -1.3499,0 0,-5.2378 c 0,-0.1622 -0.108,-0.216 -0.2698,-0.216 l -1.0803,-3e-4 c -0.1622,0 -0.216,0.0539 -0.216,0.216 l 0,12.4741 c 0,0.1622 0.0538,0.216 0.216,0.216 l 2.916,0 c 0.108,0 0.216,0 0.324,0 z m -5.3459,-12.636 c 0,-0.1621 -0.108,-0.2698 -0.2698,-0.2698 l -5.7782,-3e-4 c -0.1621,0 -0.2698,0.0539 -0.2698,0.216 l -3e-4,12.4741 c 0,0.1622 0.108,0.216 0.2698,0.216 l 5.8323,0 c 0.108,0 0.1622,0 0.216,-0.0538 l 0.0539,-0.0539 -0.0539,-0.216 -0.2698,-0.8101 c -0.0539,-0.108 -0.1622,-0.1622 -0.2699,-0.1622 l -4.2123,0 0,-4.212 3.7259,0 c 0.1621,0 0.216,-0.0538 0.216,-0.216 l 0,-0.864 c 0,-0.1621 -0.0539,-0.216 -0.216,-0.216 l -3.7259,0 0,-4.752 4.536,0 c 0.1622,0 0.216,-0.108 0.216,-0.216 l 0,-0.864 z m -13.4461,1.08 c 0.3781,0 0.756,0 1.0261,0.108 l 0,-1.3498 c -0.3781,-0.0539 -0.864,-0.108 -1.3498,-0.108 l -2.1603,-3e-4 c -0.1622,0 -0.216,0.0539 -0.216,0.216 l 0,12.4741 c 0,0.1622 0.0538,0.216 0.216,0.216 l 2.376,0 c 0.3781,0 0.8101,0 1.1338,-0.0538 l 0,-1.404 c -0.324,0.108 -0.7018,0.1621 -1.188,0.1621 l -1.0258,-3e-4 0,-10.26 1.188,0 z"
       style="fill:#0b0c0b;fill-opacity:1;fill-rule:evenodd;stroke:none"
       id="path18"
       inkscape:connector-curvature="0" /><path
       d="m 221.7773,34.8026 0,0.4859 0.756,0 -0.756,2.5381 0,0.54 0.432,0 1.512,-4.6981 -0.648,0 -0.3782,1.1339 -0.9178,2e-4 z m 0,3.564 0,-0.54 -0.756,-2.5381 0.756,0 0,-0.4859 -0.864,0 -0.3782,-1.1338 -0.5938,-3e-4 1.512,4.6981 0.324,0 z m -4.0499,-4.6981 0,0.54 c 0.2699,0 0.4859,0.0539 0.648,0.216 0.1622,0.1621 0.216,0.3781 0.216,0.5941 0,0.324 -0.108,0.54 -0.2698,0.648 -0.1622,0.108 -0.324,0.1622 -0.5942,0.216 l 0,0.4859 0.0539,0 c 0.216,0 0.3781,0.108 0.4858,0.216 0.108,0.1621 0.1622,0.324 0.1622,0.54 0,0.216 -0.0539,0.3781 -0.1622,0.54 -0.108,0.108 -0.2698,0.1621 -0.54,0.1621 l 0,0.54 0.1083,0 c 0.2699,0 0.4859,-0.0538 0.648,-0.108 0.1622,-0.108 0.2699,-0.216 0.3782,-0.324 0.0538,-0.1621 0.108,-0.2698 0.1621,-0.3781 0,-0.108 0,-0.216 0,-0.2699 0,-0.324 -0.0538,-0.5941 -0.1621,-0.756 -0.108,-0.216 -0.324,-0.324 -0.5942,-0.3781 l 0,-0.0539 c 0.324,0 0.54,-0.1621 0.7019,-0.324 0.1621,-0.216 0.216,-0.432 0.216,-0.756 0,-0.54 -0.108,-0.9178 -0.3782,-1.08 -0.2698,-0.1621 -0.648,-0.2698 -1.0261,-0.2698 l -0.0536,-3e-4 z m 0,4.6981 0,-0.54 0,0 -0.864,0 0,-1.4581 0.864,0 0,-0.4859 c -0.0538,0 -0.108,0 -0.216,0 l -0.648,0 0,-1.6741 0.864,0 0,0 0,-0.54 -1.4581,0 0,4.6981 1.4581,0 z m -16.2541,-4.752 0,0.432 0,0 c 0.1621,0 0.324,0.0539 0.432,0.1622 0.108,0.1621 0.1621,0.2698 0.1621,0.432 l 0.5939,-3e-4 c 0,-0.324 -0.108,-0.5941 -0.324,-0.756 -0.216,-0.216 -0.4859,-0.2699 -0.864,-0.2699 l 0,0 z m 0,1.512 0,0.432 0.648,0 c 0,0.432 -0.0539,0.7019 -0.1622,0.864 -0.108,0.108 -0.2698,0.216 -0.4858,0.216 l 0,0.3782 0,0 c 0.4858,0 0.8101,-0.108 0.972,-0.3782 0.1621,-0.216 0.216,-0.648 0.216,-1.2421 l 0,-0.2699 -1.188,0 z m 3.24,-1.512 c -0.3782,0 -0.648,0.0539 -0.864,0.2699 -0.1622,0.1621 -0.2699,0.432 -0.2699,0.8101 l 0.5939,0 c 0,-0.216 0.0538,-0.324 0.108,-0.4858 0.0538,-0.108 0.216,-0.1622 0.432,-0.1622 0.1621,0 0.324,0.0539 0.432,0.108 0.108,0.108 0.1621,0.216 0.1621,0.3782 0,0.1621 -0.216,0.324 -0.5941,0.54 -0.3782,0.216 -0.648,0.324 -0.8102,0.4858 -0.1621,0.108 -0.2698,0.2699 -0.2698,0.54 0,0.2699 0.108,0.4859 0.2698,0.648 0.1622,0.1622 0.432,0.2699 0.864,0.2699 0.324,0 0.5942,-0.0539 0.756,-0.216 0.216,-0.1621 0.2699,-0.3781 0.2699,-0.7019 l -0.5936,0 c 0,0.324 -0.1621,0.54 -0.4858,0.54 -0.1622,0 -0.2699,-0.0538 -0.3782,-0.1621 -0.108,-0.0539 -0.108,-0.1621 -0.108,-0.324 0,-0.108 0.1622,-0.324 0.54,-0.4859 0.3782,-0.216 0.648,-0.3781 0.8102,-0.4858 0.1621,-0.108 0.2698,-0.2699 0.2698,-0.5942 0,-0.324 -0.108,-0.5941 -0.324,-0.756 -0.216,-0.1618 -0.4861,-0.216 -0.8101,-0.216 z m 3.4021,2.1059 1.4579,0 0,-0.54 -1.4579,0 0,0.54 z m 3.9419,2.6461 0.5941,0 0,-3.024 c 0,-0.4858 0.0539,-0.8101 0.216,-0.972 0.1622,-0.216 0.3782,-0.2698 0.648,-0.2698 0.324,0 0.54,0.0538 0.7019,0.2698 0.108,0.1622 0.216,0.4859 0.216,0.972 l 0,3.024 0.5941,0 0,-2.9701 c 0,-0.648 -0.1621,-1.1339 -0.3781,-1.404 -0.216,-0.2699 -0.5942,-0.432 -1.1339,-0.432 -0.4858,0 -0.864,0.1621 -1.08,0.432 -0.2698,0.2699 -0.3781,0.756 -0.3781,1.404 l 0,2.9701 z m -10.584,-1.3501 0,-0.3781 0,0 c -0.216,0 -0.3782,-0.108 -0.4859,-0.2699 -0.108,-0.108 -0.1621,-0.432 -0.1621,-0.8101 l 0.648,2e-4 0,-0.432 -0.648,0 c 0,-0.432 0.0538,-0.7018 0.1621,-0.864 0.108,-0.1621 0.2699,-0.216 0.4859,-0.216 l 0,-0.432 c -0.3782,0 -0.7019,0.108 -0.9179,0.324 -0.216,0.216 -0.324,0.648 -0.324,1.3499 0,0.54 0.108,0.972 0.2699,1.296 0.108,0.2701 0.4861,0.432 0.972,0.432 z m -5.1299,-3.4019 0,0.432 c 0.1622,0 0.2699,0.108 0.3782,0.2699 0.1621,0.1621 0.216,0.4859 0.216,0.972 -0.216,0 -0.432,0 -0.5942,0 l 0,0.3781 c 0.1622,0.0539 0.3782,0.0539 0.5942,0.0539 0,0.2699 -0.0539,0.54 -0.108,0.648 -0.0539,0.1621 -0.216,0.2699 -0.432,0.2699 -0.0539,0 -0.0539,0 -0.0539,0 l 0,0.3781 0.0536,0 c 0.3781,0 0.7018,-0.108 0.8101,-0.2699 0.1622,-0.1621 0.2699,-0.3781 0.2699,-0.7018 l 0,-1.5659 c 0,-0.2698 0,-0.54 0.0538,-0.8101 l -0.5938,-3e-4 0,0.4859 c -0.108,-0.216 -0.216,-0.324 -0.324,-0.432 -0.108,-0.0539 -0.1619,-0.0539 -0.2699,-0.1078 z m 2.8619,0.0539 -0.54,0 0,4.6981 0.54,0 0,-4.6981 z m -2.8619,3.348 0,-0.3781 c -0.1621,-0.0539 -0.2698,-0.0539 -0.324,-0.1622 -0.108,-0.0538 -0.1621,-0.216 -0.1621,-0.3781 l 0,-0.0539 -0.5939,3e-4 c 0,0.324 0.108,0.5941 0.324,0.756 0.1619,0.1621 0.432,0.216 0.756,0.216 z m 0,-1.3499 0,-0.3781 c -0.108,-0.0539 -0.216,-0.0539 -0.2698,-0.108 -0.216,-0.0539 -0.324,-0.216 -0.324,-0.54 0,-0.1621 0.0538,-0.324 0.108,-0.432 0.108,-0.108 0.216,-0.1621 0.3781,-0.1621 0.0539,0 0.0539,0 0.108,0 l 0,-0.432 c -0.0538,0 -0.1621,0 -0.216,0 -0.3781,0 -0.5941,0.108 -0.7018,0.2698 -0.1622,0.1622 -0.216,0.432 -0.216,0.8102 0,0.432 0.1621,0.7018 0.4858,0.8101 0.1616,0.108 0.3776,0.1621 0.6477,0.1621 z m -11.1781,-2.052 0,0.432 c 0.1621,0 0.324,0.108 0.432,0.2699 0.108,0.1619 0.1621,0.4859 0.1621,0.972 -0.216,0 -0.432,0 -0.5941,0 l 0,0.3781 c 0.1621,0.0539 0.3781,0.0539 0.5941,0.0539 0,0.2699 0,0.54 -0.108,0.648 -0.0538,0.1621 -0.1621,0.2699 -0.432,0.2699 l -0.0541,2e-4 0,0.3782 0.0541,-3e-4 c 0.3782,0 0.7019,-0.108 0.864,-0.2699 0.108,-0.1621 0.216,-0.3781 0.216,-0.7018 l 0,-1.5659 c 0,-0.2698 0,-0.54 0.0539,-0.8101 l -0.5939,-3e-4 0,0.4859 c -0.108,-0.216 -0.216,-0.324 -0.324,-0.432 -0.0541,-0.0539 -0.1621,-0.0539 -0.2701,-0.1078 z m 2.4301,3.348 0,0.648 0.4859,0.216 0,-0.864 0.756,0 0,-0.432 -0.756,0 0,-1.9978 c 0,-0.1622 0.0538,-0.2699 0.108,-0.324 0.0538,-0.108 0.1621,-0.1622 0.3781,-0.1622 l 0.2699,0.0539 0,-0.432 c -0.0539,0 -0.1622,0 -0.2699,0 -0.108,-0.0539 -0.216,-0.0539 -0.2698,-0.0539 -0.4859,0 -0.7019,0.216 -0.7019,0.5942 l 0,2.3221 -0.5403,-3e-4 0,0.432 0.54,0 z m 3.672,0 0.54,0 0,-2.592 c 0,-0.216 0,-0.432 0,-0.7018 l -0.54,-3e-4 0,0.3781 c -0.216,-0.2698 -0.4858,-0.432 -0.864,-0.432 -0.5941,0 -0.9178,0.2699 -0.9178,0.864 l -3e-4,2.484 0.54,0 0,-2.268 c 0,-0.216 0.0538,-0.3781 0.1621,-0.4858 0.108,-0.108 0.216,-0.216 0.432,-0.216 0.1622,0 0.324,0.108 0.432,0.216 0.108,0.108 0.216,0.324 0.216,0.5941 l 0,2.1597 z m 2.2139,-0.4861 c 0.108,0.216 0.216,0.3781 0.3781,0.432 0.1622,0.0539 0.3782,0.108 0.648,0.108 l 0,-0.54 -0.1621,0 -0.108,0 c -0.2699,0 -0.4859,-0.0539 -0.5942,-0.216 -0.1082,-0.1621 -0.1621,-0.3781 -0.1621,-0.648 l 0,-1.944 -0.5397,0 0,3.2941 0.54,0 0,-0.4861 z m -8.316,0.54 0,-0.3781 c -0.1622,-0.0539 -0.2699,-0.0539 -0.324,-0.1622 -0.108,-0.0538 -0.1622,-0.216 -0.1622,-0.3781 l 0,-0.0539 -0.5397,3e-4 c 0,0.324 0.0539,0.5941 0.2699,0.756 0.1621,0.1621 0.432,0.216 0.756,0.216 z m 0,-1.3499 0,-0.3781 c -0.108,-0.0539 -0.216,-0.0539 -0.2699,-0.108 -0.216,-0.0539 -0.324,-0.216 -0.324,-0.54 0,-0.1621 0.0539,-0.324 0.108,-0.432 0.108,-0.108 0.216,-0.1621 0.432,-0.1621 l 0.0539,2e-4 0,-0.432 c -0.0539,0 -0.1622,0 -0.216,0 -0.324,0 -0.5942,0.108 -0.7019,0.2699 -0.1621,0.1621 -0.216,0.432 -0.216,0.8101 0,0.432 0.1622,0.7019 0.4859,0.8102 0.1621,0.1077 0.3781,0.1618 0.648,0.1618 z m -16.956,-2.052 0,0.432 c 0.1621,0 0.324,0.108 0.432,0.2699 0.108,0.1619 0.1621,0.4859 0.1621,0.972 -0.216,0 -0.432,0 -0.5941,0 l 0,0.3781 c 0.1621,0.0539 0.3781,0.0539 0.5941,0.0539 0,0.2699 0,0.54 -0.0538,0.648 -0.0539,0.1621 -0.216,0.2699 -0.4859,0.2699 l -0.0544,2e-4 0,0.3782 0.0541,-3e-4 c 0.432,0 0.7019,-0.108 0.864,-0.2699 0.1622,-0.1621 0.216,-0.3781 0.216,-0.7018 l 0,-1.5659 c 0,-0.2698 0,-0.54 0.0539,-0.8101 l -0.5939,-3e-4 0,0.4859 c -0.0538,-0.216 -0.216,-0.324 -0.324,-0.432 -0.0541,-0.0539 -0.1621,-0.0539 -0.2701,-0.1078 z m 3.2941,0 c -0.324,0 -0.648,0.0539 -0.8101,0.2699 -0.216,0.1621 -0.324,0.432 -0.324,0.8101 l 0.648,0 c 0,-0.216 0,-0.324 0.0538,-0.4858 0.108,-0.108 0.216,-0.1622 0.4859,-0.1622 0.1621,0 0.2699,0.0539 0.3781,0.108 0.108,0.108 0.1622,0.216 0.1622,0.3782 0,0.1621 -0.1622,0.324 -0.54,0.54 -0.3782,0.216 -0.7019,0.324 -0.864,0.4858 -0.1622,0.108 -0.216,0.2699 -0.216,0.54 0,0.2699 0.0538,0.4859 0.2698,0.648 0.1622,0.1622 0.432,0.2699 0.864,0.2699 0.324,0 0.54,-0.0539 0.756,-0.216 0.1622,-0.1621 0.2699,-0.3781 0.2699,-0.7019 l -0.5936,0 c 0,0.324 -0.1621,0.54 -0.4858,0.54 -0.1622,0 -0.2699,-0.0538 -0.3782,-0.1621 -0.108,-0.0539 -0.1621,-0.1621 -0.1621,-0.324 0,-0.108 0.216,-0.324 0.5941,-0.4859 0.3782,-0.216 0.648,-0.3781 0.8102,-0.4858 0.1621,-0.108 0.2698,-0.2699 0.2698,-0.5942 0,-0.324 -0.108,-0.5941 -0.324,-0.756 -0.216,-0.1618 -0.4861,-0.216 -0.864,-0.216 z m 4.536,0.7019 0.8102,2.6459 0.5938,2e-4 -1.512,-4.536 -0.54,0 0.3782,1.2422 -1.1339,3.2938 0.6477,0 0.756,-2.6461 z m 6.8579,4.0501 0,-4.6981 -0.8099,0 -1.8901,4.0501 0,-4.0501 -0.54,0 0,4.6981 0.864,0 1.836,-3.996 0,3.996 0.54,0 z m -14.688,-1.3501 0,-0.3781 c -0.1622,-0.0539 -0.2699,-0.0539 -0.324,-0.1622 -0.108,-0.0538 -0.1622,-0.216 -0.1622,-0.3781 l 0,-0.0539 -0.5397,3e-4 c 0,0.324 0.0539,0.5941 0.2699,0.756 0.1621,0.1621 0.432,0.216 0.756,0.216 z m 0,-1.3499 0,-0.3781 c -0.108,-0.0539 -0.216,-0.0539 -0.2699,-0.108 -0.216,-0.0539 -0.324,-0.216 -0.324,-0.54 0,-0.1621 0.0539,-0.324 0.108,-0.432 0.108,-0.108 0.216,-0.1621 0.432,-0.1621 l 0.0539,2e-4 0,-0.432 c -0.0539,0 -0.1622,0 -0.216,0 -0.324,0 -0.5942,0.108 -0.7019,0.2699 -0.1621,0.1621 -0.216,0.432 -0.216,0.8101 0,0.432 0.1622,0.7019 0.4859,0.8102 0.1621,0.1077 0.3781,0.1618 0.648,0.1618 z m -8.8019,-2.052 0,0.432 c 0.1622,0 0.2699,0.108 0.3782,0.2699 0.1083,0.1619 0.216,0.4859 0.216,0.972 -0.2699,0 -0.432,0 -0.5942,0 l 0,0.3781 c 0.1622,0.0539 0.3782,0.0539 0.5942,0.0539 0,0.2699 -0.0539,0.54 -0.108,0.648 -0.0539,0.1621 -0.216,0.2699 -0.4859,0.2699 l 0,0 0,0.3781 c 0,0 0,0 0.0539,0 0.3781,0 0.648,-0.108 0.8101,-0.2699 0.1622,-0.1621 0.216,-0.3781 0.216,-0.7018 l 0,-1.5659 c 0,-0.2698 0.0539,-0.54 0.108,-0.8101 l -0.5944,-3e-4 0,0.4859 c -0.108,-0.216 -0.216,-0.324 -0.3782,-0.432 -0.0538,-0.0539 -0.1618,-0.0539 -0.2157,-0.1078 z m 4.0499,2.268 c 0,0.2699 -0.0539,0.432 -0.1622,0.54 -0.1082,0.108 -0.1621,0.1622 -0.324,0.1622 -0.216,0 -0.3781,-0.0539 -0.4858,-0.216 -0.1077,-0.1622 -0.216,-0.432 -0.216,-0.864 0,-0.54 0.0538,-0.9179 0.1621,-1.1339 0.1083,-0.216 0.2699,-0.324 0.54,-0.324 0.1622,0 0.2699,0.0539 0.3782,0.216 0.0538,0.108 0.108,0.324 0.108,0.4859 l 0.5397,-3e-4 c 0,-0.3781 -0.108,-0.7019 -0.324,-0.864 -0.216,-0.1621 -0.432,-0.2699 -0.7019,-0.2699 -0.3781,0 -0.7018,0.108 -0.9178,0.324 -0.216,0.216 -0.324,0.648 -0.324,1.3499 0,0.54 0.108,0.972 0.216,1.296 0.1621,0.2699 0.54,0.432 1.0261,0.432 0.7019,0 1.0262,-0.3781 1.0262,-1.1339 l -0.5406,0 z m 1.728,1.08 0,0.648 0.54,0.216 0,-0.864 0.756,0 0,-0.432 -0.756,0 0,-1.9978 c 0,-0.1622 0.0538,-0.2699 0.108,-0.324 0.0538,-0.108 0.1621,-0.1622 0.3781,-0.1622 l 0.2699,0.0539 0,-0.432 c -0.0539,0 -0.1622,0 -0.2699,0 -0.108,-0.0539 -0.216,-0.0539 -0.2698,-0.0539 -0.4859,0 -0.756,0.216 -0.756,0.5942 l 0,2.3221 -0.5403,-3e-4 0,0.432 0.54,0 z m -5.7779,0.0539 0,-0.3781 c -0.1621,-0.0539 -0.2698,-0.0539 -0.3781,-0.1622 -0.0539,-0.0538 -0.108,-0.216 -0.108,-0.3781 l 0,-0.0539 -0.5939,3e-4 c 0,0.324 0.108,0.5941 0.2699,0.756 0.216,0.1621 0.432,0.216 0.8101,0.216 z m 0,-1.3499 0,-0.3781 c -0.1621,-0.0539 -0.216,-0.0539 -0.324,-0.108 -0.216,-0.0539 -0.324,-0.216 -0.324,-0.54 0,-0.1621 0.0539,-0.324 0.1622,-0.432 0.0538,-0.108 0.216,-0.1621 0.3781,-0.1621 0.0539,0 0.0539,0 0.108,0 l 0,-0.432 c -0.108,0 -0.1621,0 -0.2698,0 -0.324,0 -0.54,0.108 -0.7019,0.2698 -0.108,0.1622 -0.1621,0.432 -0.1621,0.8102 0,0.432 0.108,0.7018 0.432,0.8101 0.2154,0.108 0.4314,0.1621 0.7015,0.1621 z m -14.472,-2.052 0,0.432 c 0.1622,0 0.324,0.108 0.432,0.2699 0.108,0.1619 0.1622,0.4859 0.1622,0.972 -0.216,0 -0.3782,0 -0.5942,0 l 0,0.3781 c 0.216,0.0539 0.3782,0.0539 0.5942,0.0539 0,0.2699 0,0.54 -0.0539,0.648 -0.0538,0.1621 -0.216,0.2699 -0.4858,0.2699 0,0 0,0 -0.0539,0 l 0,0.3781 c 0.0539,0 0.0539,0 0.108,0 0.3781,0 0.648,-0.108 0.8101,-0.2699 0.1622,-0.1621 0.216,-0.3781 0.216,-0.7018 l 0,-1.5659 c 0,-0.2698 0.0539,-0.54 0.108,-0.8101 l -0.6488,-3e-4 0,0.4859 c -0.0539,-0.216 -0.1622,-0.324 -0.324,-0.432 -0.0539,-0.0539 -0.1619,-0.0539 -0.2699,-0.1078 z m 3.348,0 c -0.3781,0 -0.648,0.0539 -0.864,0.2699 -0.1621,0.1621 -0.2698,0.432 -0.2698,0.8101 l 0.5938,0 c 0,-0.216 0.0539,-0.324 0.108,-0.4858 0.0539,-0.108 0.216,-0.1622 0.432,-0.1622 0.1622,0 0.324,0.0539 0.432,0.108 0.108,0.108 0.1622,0.216 0.1622,0.3782 0,0.1621 -0.216,0.324 -0.5942,0.54 -0.3781,0.216 -0.648,0.324 -0.8101,0.4858 -0.1622,0.108 -0.2699,0.2699 -0.2699,0.54 0,0.2699 0.108,0.4859 0.2699,0.648 0.1621,0.1622 0.4858,0.2699 0.864,0.2699 0.324,0 0.5941,-0.0539 0.756,-0.216 0.216,-0.1621 0.324,-0.3781 0.324,-0.7019 l -0.5939,0 c 0,0.324 -0.216,0.54 -0.54,0.54 -0.1621,0 -0.2698,-0.0538 -0.3781,-0.1621 -0.0539,-0.0539 -0.108,-0.1621 -0.108,-0.324 0,-0.108 0.1621,-0.324 0.54,-0.4859 0.432,-0.216 0.7018,-0.3781 0.864,-0.4858 0.1621,-0.108 0.216,-0.2699 0.216,-0.5942 0,-0.324 -0.108,-0.5941 -0.324,-0.756 -0.216,-0.1618 -0.4859,-0.216 -0.8099,-0.216 z m 3.564,0.0539 0,4.6981 2.4299,0 0,-0.54 -1.836,0 0,-1.512 1.728,0 0,-0.4858 -1.728,-3e-4 0,-1.62 1.8901,0 0,-0.54 -2.484,0 z m 5.7779,0 -0.7019,0 -0.756,1.3499 -0.756,-1.3499 -0.5941,0 1.0261,1.728 -0.972,1.5659 0.7019,2e-4 0.648,-1.188 0.648,1.188 0.648,0 -0.972,-1.5658 1.08,-1.7283 z m -12.6899,3.348 0,-0.3781 c -0.108,-0.0539 -0.216,-0.0539 -0.324,-0.1622 -0.0538,-0.0538 -0.108,-0.216 -0.108,-0.3781 l 0,-0.0539 -0.5941,3e-4 c 0,0.324 0.108,0.5941 0.2698,0.756 0.2163,0.1621 0.4323,0.216 0.7563,0.216 z m 0,-1.3499 0,-0.3781 c -0.108,-0.0539 -0.1621,-0.0539 -0.2698,-0.108 -0.216,-0.0539 -0.324,-0.216 -0.324,-0.54 0,-0.1621 0.0538,-0.324 0.1621,-0.432 0.0539,-0.108 0.216,-0.1621 0.3782,-0.1621 l 0.0535,2e-4 0,-0.432 c -0.0538,0 -0.108,0 -0.216,0 -0.324,0 -0.54,0.108 -0.7018,0.2699 -0.108,0.1621 -0.1622,0.432 -0.1622,0.8101 0,0.432 0.108,0.7019 0.432,0.8102 0.216,0.1077 0.432,0.1618 0.648,0.1618 z m -11.772,-2.052 0,0.432 0,0 c 0.1622,0 0.324,0.0539 0.432,0.1622 0.108,0.1621 0.1622,0.2698 0.1622,0.432 l 0.5397,-3e-4 c 0,-0.324 -0.0539,-0.5941 -0.2699,-0.756 -0.216,-0.216 -0.4861,-0.2699 -0.864,-0.2699 l 0,0 z m 0,1.512 0,0.432 0.5939,0 c 0,0.432 -0.0539,0.7019 -0.1622,0.864 -0.108,0.108 -0.216,0.216 -0.432,0.216 l 0,0.3782 0,0 c 0.4859,0 0.756,-0.108 0.9179,-0.3782 0.1621,-0.216 0.2699,-0.648 0.2699,-1.2421 l 0,-0.2699 -1.1875,0 z m 4.0499,-1.4581 0,2.268 c 0,0.216 -0.0539,0.3781 -0.1622,0.4859 -0.0538,0.108 -0.216,0.1621 -0.432,0.1621 -0.2698,0 -0.432,-0.108 -0.54,-0.2699 -0.108,-0.1618 -0.1621,-0.432 -0.1621,-0.7018 l 0,-1.944 -0.4856,-3e-4 0,2.592 c 0,0.216 -0.0538,0.432 -0.0538,0.7019 l 0.5397,2e-4 0,-0.432 0.0541,0 c 0.108,0.1622 0.216,0.324 0.324,0.3782 0.1622,0.0538 0.324,0.108 0.54,0.108 0.324,0 0.5942,-0.108 0.7019,-0.2699 0.108,-0.1621 0.1621,-0.432 0.1621,-0.8101 l 0,-2.268 -0.4861,-3e-4 z m 3.348,2.2141 c 0,0.2699 -0.0539,0.432 -0.1622,0.54 -0.0538,0.108 -0.1621,0.1622 -0.324,0.1622 -0.216,0 -0.3781,-0.0539 -0.4858,-0.216 -0.1077,-0.1622 -0.1622,-0.432 -0.1622,-0.864 0,-0.54 0,-0.9179 0.108,-1.1339 0.108,-0.216 0.2699,-0.324 0.54,-0.324 0.1622,0 0.2699,0.0539 0.3782,0.216 0.0538,0.108 0.108,0.324 0.108,0.4859 l 0.5941,-3e-4 c 0,-0.3781 -0.1621,-0.7019 -0.3781,-0.864 -0.216,-0.1621 -0.432,-0.2699 -0.7019,-0.2699 -0.3781,0 -0.7018,0.108 -0.9178,0.324 -0.216,0.216 -0.324,0.648 -0.324,1.3499 0,0.54 0.108,0.972 0.2698,1.296 0.108,0.2699 0.4859,0.432 0.972,0.432 0.7019,0 1.0262,-0.3781 1.0262,-1.1339 l -0.5403,0 z m 2.2141,-2.2141 -0.54,0 0,3.2941 0.54,0 0,-3.2941 z m -0.54,4.6981 0.5939,0 0,-0.5941 -0.5939,0 0,0.5941 z m -9.072,-1.3501 0,-0.3781 c -0.0538,0 -0.0538,0 -0.0538,0 -0.1622,0 -0.324,-0.108 -0.432,-0.2699 -0.108,-0.108 -0.1622,-0.432 -0.1622,-0.8101 l 0.648,2e-4 0,-0.432 -0.648,0 c 0,-0.432 0.0539,-0.7018 0.1622,-0.864 0.108,-0.1621 0.2698,-0.216 0.4858,-0.216 l 0,-0.432 c -0.432,0 -0.7018,0.108 -0.9178,0.324 -0.216,0.216 -0.324,0.648 -0.324,1.3499 0,0.54 0.108,0.972 0.216,1.296 0.1618,0.2701 0.4858,0.432 1.0258,0.432 z m -10.3141,-3.4019 0,0.432 0.0541,0 c 0.1622,0 0.2699,0.0539 0.3782,0.1622 0.108,0.1621 0.1621,0.2698 0.1621,0.432 l 0.5936,-3e-4 c 0,-0.324 -0.108,-0.5941 -0.324,-0.756 -0.1622,-0.216 -0.4859,-0.2699 -0.8102,-0.2699 l -0.0538,0 z m 0,1.512 0,0.432 0.648,0 c 0,0.432 -0.0539,0.7019 -0.1622,0.864 -0.108,0.108 -0.2698,0.216 -0.4858,0.216 l 0,0.3782 0.0541,-3e-4 c 0.432,0 0.756,-0.108 0.9179,-0.3781 0.1621,-0.216 0.2698,-0.648 0.2698,-1.2422 l 0,-0.2698 -1.2418,2e-4 z m 5.832,1.944 c 0,0.1622 0,0.324 0,0.432 0,0.108 -0.0539,0.1622 -0.108,0.2699 -0.0539,0.0539 -0.1622,0.108 -0.2699,0.1621 -0.108,0 -0.1621,0 -0.2698,0 -0.216,0 -0.3782,0 -0.4859,-0.108 -0.108,-0.108 -0.216,-0.1621 -0.2698,-0.2698 0,-0.108 -0.0539,-0.216 -0.0539,-0.3782 0,-0.108 -0.0539,-0.2698 -0.0539,-0.54 l 0,-1.296 c 0,-0.4858 0.108,-0.864 0.216,-1.0261 0.1622,-0.1621 0.3782,-0.216 0.648,-0.216 0.216,0 0.432,0.0539 0.54,0.216 0.108,0.1621 0.216,0.432 0.216,0.756 l 0.5933,0 c 0,-0.4859 -0.108,-0.864 -0.324,-1.1339 -0.216,-0.216 -0.54,-0.3781 -0.972,-0.3781 -0.432,0 -0.8101,0.108 -1.08,0.324 -0.2698,0.2699 -0.432,0.756 -0.432,1.5659 l 0,1.296 c 0,0.648 0.108,1.08 0.3782,1.3498 0.2698,0.2699 0.648,0.3782 1.1338,0.3782 0.432,0 0.756,-0.108 0.972,-0.324 0.1622,-0.2699 0.2699,-0.5942 0.2699,-1.08 l -0.648,2e-4 z m 2.2141,-3.4021 -0.54,0 0,3.2941 0.54,0 0,-3.2941 z m -0.5941,4.6981 0.5941,0 0,-0.5941 -0.5941,0 0,0.5941 z m -7.452,-1.3501 0,-0.3781 0,0 c -0.216,0 -0.3782,-0.108 -0.4859,-0.2699 -0.108,-0.108 -0.1621,-0.432 -0.1621,-0.8101 l 0.648,2e-4 0,-0.432 -0.648,0 c 0,-0.432 0.0538,-0.7018 0.1621,-0.864 0.108,-0.1621 0.2699,-0.216 0.4859,-0.216 l 0,-0.432 c -0.3782,0 -0.648,0.108 -0.864,0.324 -0.216,0.216 -0.324,0.648 -0.324,1.3499 0,0.54 0.0538,0.972 0.216,1.296 0.1621,0.2701 0.4861,0.432 0.972,0.432 z m -3.4019,-3.4019 0,0.432 0,0 c 0.2699,0 0.432,0.108 0.54,0.3782 0.0539,0.216 0.0539,0.5941 0.0539,1.0261 0,0.324 0,0.5942 -0.108,0.8102 -0.0539,0.216 -0.216,0.324 -0.4859,0.324 l 0,0 0,0.432 c 0.216,-0.0539 0.432,-0.1622 0.5942,-0.3782 l 0,1.728 0.4858,-3e-4 0,-4.6981 -0.4861,0 0,0.3781 c -0.0539,-0.1621 -0.1622,-0.2698 -0.324,-0.324 -0.0539,-0.0541 -0.1619,-0.108 -0.2699,-0.108 z m 0,3.4019 0,-0.432 c -0.2698,0 -0.432,-0.108 -0.54,-0.324 -0.0538,-0.1621 -0.108,-0.54 -0.108,-1.0261 0,-0.3782 0.0539,-0.648 0.108,-0.864 0.0539,-0.216 0.2699,-0.324 0.54,-0.324 l 0,-0.432 c -0.0538,0 -0.108,0 -0.1621,0 -0.324,0 -0.5942,0.108 -0.756,0.324 -0.216,0.216 -0.2699,0.648 -0.2699,1.296 0,0.5941 0.0539,1.0261 0.1622,1.3498 0.108,0.2699 0.432,0.432 0.9178,0.432 0,3e-4 0.0539,3e-4 0.108,3e-4 z m -4.86,-3.4019 0,0.432 0,0 c 0.2699,0 0.432,0.108 0.4859,0.3782 0.108,0.216 0.108,0.5941 0.108,1.0261 0,0.324 0,0.5942 -0.108,0.8102 -0.0539,0.216 -0.216,0.324 -0.4859,0.324 l 0,0 0,0.432 c 0.216,-0.0539 0.432,-0.1622 0.5942,-0.3782 l 0,1.728 0.5397,-3e-4 0,-4.6981 -0.54,0 0,0.3781 c -0.108,-0.1621 -0.216,-0.2698 -0.324,-0.324 -0.0539,-0.0541 -0.1619,-0.108 -0.2699,-0.108 z m 0,3.4019 0,-0.432 c -0.2698,0 -0.432,-0.108 -0.54,-0.324 -0.0538,-0.1621 -0.108,-0.54 -0.108,-1.0261 0,-0.3782 0,-0.648 0.108,-0.864 0.0539,-0.216 0.216,-0.324 0.54,-0.324 l 0,-0.432 c -0.0538,0 -0.108,0 -0.1621,0 -0.324,0 -0.5942,0.108 -0.756,0.324 -0.216,0.216 -0.324,0.648 -0.324,1.296 0,0.5941 0.108,1.0261 0.216,1.3498 0.108,0.2699 0.432,0.432 0.9178,0.432 3e-4,3e-4 0.0542,3e-4 0.1083,3e-4 z m -3.456,-3.4019 0,0.432 c 0.1622,0 0.2699,0.108 0.3782,0.2699 0.1621,0.1621 0.216,0.4859 0.216,0.972 -0.2699,0 -0.432,0 -0.5942,0 l 0,0.3781 c 0.1622,0.0539 0.3782,0.0539 0.5942,0.0539 0,0.2699 -0.0539,0.54 -0.108,0.648 -0.0539,0.1621 -0.216,0.2699 -0.4859,0.2699 l 0,0 0,0.3781 c 0,0 0,0 0.0539,0 0.3781,0 0.648,-0.108 0.8101,-0.2699 0.1622,-0.1621 0.2699,-0.3781 0.2699,-0.7018 l 0,-1.5659 c 0,-0.2698 0,-0.54 0.0538,-0.8101 l -0.5941,-3e-4 0,0.4859 c -0.108,-0.216 -0.216,-0.324 -0.324,-0.432 -0.108,-0.0539 -0.1619,-0.0539 -0.2699,-0.1078 z m 0,3.4019 0,-0.3781 c -0.1621,-0.0539 -0.2698,-0.0539 -0.3781,-0.1622 -0.0539,-0.0538 -0.108,-0.216 -0.108,-0.3781 l 0,-0.0539 -0.5939,3e-4 c 0,0.324 0.108,0.5941 0.2699,0.756 0.216,0.1621 0.4861,0.216 0.8101,0.216 z m 0,-1.3499 0,-0.3781 c -0.108,-0.0539 -0.216,-0.0539 -0.324,-0.108 -0.1621,-0.0539 -0.2698,-0.216 -0.2698,-0.54 0,-0.1621 0,-0.324 0.108,-0.432 0.108,-0.108 0.216,-0.1621 0.3781,-0.1621 0.0539,0 0.0539,0 0.108,0 l 0,-0.432 c -0.108,0 -0.1621,0 -0.2698,0 -0.324,0 -0.54,0.108 -0.648,0.2698 -0.1622,0.1622 -0.216,0.432 -0.216,0.8102 0,0.432 0.1621,0.7018 0.432,0.8101 0.2154,0.108 0.4314,0.1621 0.7015,0.1621 z m -13.8781,-2.052 0,0.432 c 0.1621,0 0.2698,0.108 0.3781,0.2699 0.1622,0.1621 0.216,0.4859 0.216,0.972 -0.2698,0 -0.432,0 -0.5941,0 l 0,0.3781 c 0.1621,0.0539 0.3781,0.0539 0.5941,0.0539 0,0.2699 -0.0538,0.54 -0.108,0.648 -0.0538,0.1621 -0.216,0.2699 -0.4858,0.2699 l 0,0 0,0.3781 c 0,0 0,0 0.0538,0 0.3782,0 0.648,-0.108 0.8102,-0.2699 0.1621,-0.1621 0.2698,-0.3781 0.2698,-0.7018 l 0,-1.5659 c 0,-0.2698 0,-0.54 0.0539,-0.8101 l -0.5939,-3e-4 0,0.4859 c -0.108,-0.216 -0.216,-0.324 -0.324,-0.432 -0.108,-0.0539 -0.1621,-0.0539 -0.2701,-0.1078 z m 4.0501,2.268 c 0,0.2699 -0.0538,0.432 -0.1621,0.54 -0.0539,0.108 -0.1622,0.1622 -0.324,0.1622 -0.216,0 -0.3782,-0.0539 -0.4859,-0.216 -0.1077,-0.1622 -0.1621,-0.432 -0.1621,-0.864 0,-0.54 0.0538,-0.9179 0.108,-1.1339 0.108,-0.216 0.2698,-0.324 0.54,-0.324 0.1621,0 0.2698,0.0539 0.3781,0.216 0.0539,0.108 0.108,0.324 0.108,0.4859 l 0.5939,-3e-4 c 0,-0.3781 -0.108,-0.7019 -0.3782,-0.864 -0.216,-0.1621 -0.432,-0.2699 -0.7018,-0.2699 -0.3782,0 -0.7019,0.108 -0.9179,0.324 -0.216,0.216 -0.324,0.648 -0.324,1.3499 0,0.54 0.108,0.972 0.2699,1.296 0.1621,0.2699 0.4858,0.432 0.972,0.432 0.7018,0 1.0261,-0.3781 1.0261,-1.1339 l -0.54,0 z m 3.456,1.08 0.54,0 0,-2.592 c 0,-0.216 0,-0.432 0.0539,-0.7018 l -0.5939,-3e-4 0,0.3781 c -0.216,-0.2698 -0.4858,-0.432 -0.864,-0.432 -0.5941,0 -0.864,0.2699 -0.864,0.864 l 0,2.484 0.54,0 0,-2.268 c 0,-0.216 0.0539,-0.3781 0.108,-0.4858 0.108,-0.108 0.2699,-0.216 0.432,-0.216 0.1622,0 0.324,0.108 0.432,0.216 0.1622,0.108 0.216,0.324 0.216,0.5941 l 0,2.1597 z m 2.2139,-3.2941 -0.54,0 0,4.6981 0.54,0 0,-4.6981 z m 1.1341,3.2941 0,0.648 0.54,0.216 0,-0.864 0.7019,0 0,-0.432 -0.7019,0 0,-1.9978 c 0,-0.1622 0,-0.2699 0.0539,-0.324 0.0538,-0.108 0.216,-0.1622 0.432,-0.1622 l 0.216,0.0539 0,-0.432 c -0.0539,0 -0.108,0 -0.216,0 -0.1622,-0.0539 -0.216,-0.0539 -0.2699,-0.0539 -0.4858,0 -0.756,0.216 -0.756,0.5942 l 0,2.3221 -0.54,-3e-4 0,0.432 0.54,0 z m -15.012,-3.2941 0,4.6981 2.3219,0 0,-0.54 -1.728,0 0,-1.512 1.6741,0 0,-0.4858 -1.6741,-3e-4 0,-2.16 -0.5939,0 z m 4.1579,3.348 0,-0.3781 c -0.1622,-0.0539 -0.2699,-0.0539 -0.3782,-0.1622 -0.0538,-0.0538 -0.108,-0.216 -0.108,-0.3781 l 0,-0.0539 -0.5938,3e-4 c 0,0.324 0.108,0.5941 0.2698,0.756 0.2163,0.1621 0.4862,0.216 0.8102,0.216 z m 0,-1.3499 0,-0.3781 c -0.108,-0.0539 -0.216,-0.0539 -0.324,-0.108 -0.1622,-0.0539 -0.2699,-0.216 -0.2699,-0.54 0,-0.1621 0,-0.324 0.108,-0.432 0.108,-0.108 0.216,-0.1621 0.3782,-0.1621 0.0538,0 0.0538,0 0.108,0 l 0,-0.432 c -0.108,0 -0.1622,0 -0.2699,0 -0.324,0 -0.54,0.108 -0.648,0.2698 -0.1621,0.1622 -0.216,0.432 -0.216,0.8102 0,0.432 0.1622,0.7018 0.432,0.8101 0.2157,0.108 0.4317,0.1621 0.7016,0.1621"
       style="fill:#0b0c0b;fill-opacity:1;fill-rule:evenodd;stroke:none"
       id="path20"
       inkscape:connector-curvature="0" /><path
       d="m 93.0416,43.2266 130.68,0 0,1.296 -130.68,0 0,-1.296 z"
       style="fill:#0b0c0b;fill-opacity:1;fill-rule:evenodd;stroke:none"
       id="path22"
       inkscape:connector-curvature="0" /><path
       d="m 199.2594,49.0045 0,1.296 0,0 c 0.972,0 1.62,0.432 1.9979,1.3499 0.3778,0.9178 0.54,2.268 0.54,4.104 0,1.836 -0.1622,3.1861 -0.54,4.104 -0.3782,0.9178 -1.0262,1.3498 -1.9979,1.3498 l 0,0 0,1.2422 0,0 c 1.404,0 2.484,-0.5942 3.1862,-1.7819 0.7021,-1.1877 1.0261,-2.808 1.0261,-4.9141 0,-2.1062 -0.324,-3.7259 -1.0261,-4.9142 -0.7022,-1.1883 -1.7822,-1.8357 -3.1862,-1.8357 l 0,0 z m 13.7699,0.54 c 0,-0.1621 -0.108,-0.2699 -0.2699,-0.2699 l -1.0261,0 c -0.108,0 -0.216,0.108 -0.2699,0.216 l -4.3738,9.288 c -0.216,0.54 -0.432,1.08 -0.4859,1.6742 l -0.0544,-3e-4 c 0.0538,-0.3781 0.108,-0.648 0.1621,-0.9179 0,-0.2698 0,-0.54 0,-0.8101 l 0,-9.18 c 0,-0.1621 -0.0538,-0.2699 -0.216,-0.2699 l -0.972,0 c -0.1621,0 -0.216,0.108 -0.216,0.2699 l 0,12.42 c 0,0.1621 0.0539,0.216 0.216,0.216 l 1.296,0 c 0.108,0 0.216,-0.0539 0.2699,-0.1621 l 4.1578,-8.748 c 0.108,-0.216 0.1622,-0.432 0.216,-0.7019 0.108,-0.2699 0.1622,-0.54 0.216,-0.756 l 0.0542,0 c 0,0.108 -0.0539,0.324 -0.108,0.54 -0.0539,0.2699 -0.0539,0.4859 -0.0539,0.648 l 0,8.964 c 0,0.1621 0.0539,0.216 0.216,0.216 l 0.972,0 c 0.1622,0 0.2699,-0.0539 0.2699,-0.216 l 0,-12.42 z m -13.7699,12.9061 0,-1.2421 c -0.972,0 -1.6741,-0.4859 -2.052,-1.404 -0.3781,-0.9179 -0.54,-2.268 -0.54,-4.0501 0,-1.836 0.1622,-3.24 0.54,-4.104 0.324,-0.9179 1.0262,-1.3499 2.052,-1.3499 l 0,-1.296 c -1.4581,0 -2.5381,0.5941 -3.24,1.7819 -0.7018,1.188 -1.0261,2.8618 -1.0261,4.968 0,2.1061 0.324,3.7258 1.0261,4.9141 0.7022,1.1883 1.7819,1.7821 3.24,1.7821 z m -24.0301,-9.288 0,1.296 1.5661,0 -1.1338,4.1579 c -0.108,0.432 -0.1622,0.756 -0.2699,1.08 -0.0538,0.324 -0.108,0.54 -0.1621,0.7019 l 0,0 0,1.7818 0.5938,3e-4 c 0.1622,0 0.216,-0.0539 0.2699,-0.1621 l 3.78,-12.312 0.108,-0.324 c 0,-0.0539 -0.0539,-0.108 -0.2699,-0.108 l -1.1341,2e-4 c -0.216,0 -0.324,0.108 -0.324,0.216 l -1.08,3.672 -1.944,0 z m 12.744,-2.4301 c 0.108,-0.108 0.1621,-0.1621 0.1621,-0.2699 0,-0.1621 -0.324,-0.4858 -0.972,-0.864 -0.648,-0.3781 -1.3498,-0.5941 -2.052,-0.5941 -1.512,0 -2.6458,0.648 -3.348,1.8901 -0.648,1.188 -1.0261,2.8619 -1.0261,4.968 0,1.9979 0.324,3.6182 0.972,4.8059 0.648,1.188 1.728,1.7819 3.24,1.7819 0.756,0 1.4581,-0.1622 2.052,-0.54 0.648,-0.3782 0.972,-0.7019 0.972,-0.9179 0,-0.0539 -0.0539,-0.1621 -0.108,-0.216 l -0.3782,-0.54 c -0.108,-0.108 -0.1621,-0.1621 -0.216,-0.1621 -0.324,0.324 -0.7018,0.54 -1.1338,0.8101 -0.3782,0.216 -0.756,0.324 -1.1339,0.324 -0.972,0 -1.62,-0.432 -1.9978,-1.2421 -0.3782,-0.864 -0.54,-2.16 -0.54,-3.888 0,-1.836 0.216,-3.2939 0.648,-4.2662 0.432,-1.0261 1.08,-1.512 1.9978,-1.512 0.4859,0 0.972,0.1622 1.512,0.54 0.2699,0.1622 0.54,0.3782 0.8102,0.54 0,0 0.0538,0 0.108,-0.0538 l 0.0538,-0.0539 0.3779,-0.54 z m 6.372,-1.188 c 0,-0.1621 -0.0539,-0.2699 -0.216,-0.2699 l -4.968,0 c -0.1622,0 -0.2699,0.108 -0.2699,0.2699 l 0,0.756 c 0,0.1621 0.108,0.216 0.2699,0.216 l 1.6741,0 0,10.476 -1.6741,0 c -0.1622,0 -0.2699,0.0539 -0.2699,0.216 l 0,0.756 c 0,0.1621 0.108,0.216 0.2699,0.216 l 4.968,0 c 0.1621,0 0.216,-0.0539 0.216,-0.216 l 0,-0.756 c 0,-0.1621 -0.0539,-0.216 -0.216,-0.216 l -1.728,0 0,-10.476 1.728,0 c 0.1621,0 0.216,-0.0539 0.216,-0.216 l 0,-0.756 z m -19.116,12.636 0,-1.7819 c -0.0539,-0.2698 -0.0539,-0.432 -0.108,-0.54 0,-0.0538 -0.108,-0.4858 -0.324,-1.2421 l -1.1339,-4.1579 1.5659,0 0,-1.296 -1.944,0 -0.9179,-3.672 c -0.0538,-0.108 -0.1621,-0.216 -0.3781,-0.216 l -1.1339,0 c -0.108,0 -0.1621,0.0539 -0.216,0.0539 l 0,0.324 0,0.0539 3.78,12.312 c 0.0539,0.108 0.1622,0.1621 0.324,0.1621 l 0.4859,0 z m -4.5899,-0.3779 0,0 0.108,0.2699 c 0,0.0539 -0.0538,0.108 -0.108,0.108 l 0,-0.3779 z m 0,0.3779 0,-0.3781 -0.2698,-0.7019 c -0.0539,-0.1621 -0.108,-0.216 -0.2699,-0.216 l -2.6464,0 0,-11.34 c 0,-0.1621 -0.108,-0.2699 -0.2699,-0.2699 l -1.08,0 c -0.1621,0 -0.216,0.108 -0.216,0.2699 l 0,11.34 -2.808,0 c -0.1621,0 -0.216,0.0539 -0.216,0.216 l 0,0.864 c 0,0.1621 0.0539,0.216 0.2699,0.216 l 7.344,0 c 0.108,0 0.1621,0 0.1621,0 z m 0,-12.528 -0.0538,-0.2699 c 0,0 0,-0.0538 0.0538,-0.0538 l 0,0.3237 z m -22.032,5.1301 0,1.3499 c 0.4859,0.0539 0.9179,0.216 1.2422,0.4859 0.432,0.324 0.7018,1.0261 0.7018,2.1061 0,0.9179 -0.216,1.512 -0.648,1.7819 -0.3781,0.216 -0.8101,0.324 -1.296,0.3781 l 0,1.296 c 0.9179,0 1.728,-0.216 2.376,-0.5941 0.756,-0.3782 1.08,-1.3499 1.08,-2.808 0,-1.4582 -0.3781,-2.484 -1.1338,-3.132 -0.6483,-0.4859 -1.4043,-0.8099 -2.3222,-0.8638 z m 13.0139,-1.9981 c 0,-1.188 -0.3782,-2.1061 -1.0262,-2.7541 -0.7018,-0.648 -1.728,-1.0262 -3.132,-1.0262 -1.404,0 -2.376,0.324 -2.9701,0.972 -0.648,0.648 -0.972,1.5659 -0.972,2.808 l 0,9.18 c 0,0.1622 0.108,0.216 0.2699,0.216 l 1.0805,3e-4 c 0.1622,0 0.216,-0.0539 0.216,-0.216 l 0,-9.18 c 0,-0.8101 0.1622,-1.404 0.54,-1.836 0.3782,-0.432 0.972,-0.648 1.836,-0.648 1.728,0 2.592,0.8101 2.592,2.484 l 0,9.18 c 0,0.1621 0.0539,0.216 0.216,0.216 l 1.08,0 c 0.1622,0 0.2699,-0.0539 0.2699,-0.216 l 0,-9.18 z m -13.0139,9.396 0,-1.296 c -0.1621,0 -0.324,0 -0.4858,0 l -1.4582,0 0,-4.8059 1.2419,0 c 0.216,0 0.4858,0 0.7018,0.0539 l 0,-1.3499 c -0.216,-0.0538 -0.3781,-0.0538 -0.5941,-0.0538 l -1.3496,-3e-4 0,-5.184 c 0,-0.1621 -0.108,-0.2699 -0.216,-0.2699 l -1.1341,0 c -0.108,0 -0.216,0.108 -0.216,0.2699 l 0,12.42 c 0,0.1621 0.108,0.216 0.216,0.216 l 2.9701,0 c 0.108,0 0.216,0 0.324,0 z m -21.6541,-13.176 0,1.296 0,0 c 1.0261,0 1.6741,0.432 2.052,1.3499 0.3778,0.9178 0.54,2.268 0.54,4.104 0,1.836 -0.1622,3.1861 -0.54,4.104 -0.3782,0.9178 -1.0262,1.3498 -2.052,1.3498 l 0,0 0,1.2422 0,0 c 1.4581,0 2.5381,-0.5942 3.24,-1.7819 0.7018,-1.1877 1.0261,-2.808 1.0261,-4.9141 0,-2.1062 -0.324,-3.7259 -1.0261,-4.9142 -0.7022,-1.1883 -1.7819,-1.8357 -3.24,-1.8357 l 0,0 z m 15.66,0.54 c 0,-0.1621 -0.0539,-0.2699 -0.216,-0.2699 l -1.08,0 c -0.1622,0 -0.216,0.108 -0.216,0.2699 l -0.324,9.6661 c 0,0.216 0,0.3782 0,0.5942 0,0.216 0,0.3781 0,0.5941 l 0,0 c 0,-0.432 -0.108,-0.864 -0.216,-1.296 l -2.3222,-6.588 c -0.0538,-0.1621 -0.1621,-0.216 -0.2698,-0.216 l -0.54,-3e-4 c -0.1622,0 -0.2699,0.0539 -0.324,0.216 l -2.16,6.588 c -0.1622,0.432 -0.216,0.864 -0.216,1.296 l -0.0539,0 c 0,-0.1621 0,-0.3781 0,-0.54 0,-0.216 0,-0.432 0,-0.5941 l -0.2698,-9.72 c 0,-0.1621 -0.0539,-0.2699 -0.216,-0.2699 l -1.0803,0 c -0.1622,0 -0.216,0.108 -0.216,0.2699 l 0.7018,12.42 c 0,0.1621 0.0539,0.216 0.216,0.216 l 1.2422,0 c 0.0538,0 0.1621,-0.0539 0.1621,-0.216 l 2.268,-6.4261 c 0,-0.0539 0.0539,-0.1622 0.0539,-0.324 0.0538,-0.1622 0.108,-0.432 0.1621,-0.864 0.0539,0.1621 0.1622,0.3781 0.216,0.648 0.0539,0.324 0.108,0.4858 0.108,0.54 l 2.2139,6.4261 c 0.0538,0.1621 0.108,0.216 0.216,0.216 l 1.2421,0 c 0.108,0 0.216,-0.0539 0.216,-0.216 l 0.7019,-12.42 z m -45.9539,1.188 c 0.7019,0.216 1.2422,0.5941 1.5659,1.188 0.432,0.9179 0.648,2.268 0.648,4.0501 0,1.944 -0.2699,3.24 -0.8102,3.888 -0.324,0.432 -0.8101,0.756 -1.404,0.9179 l 0,1.3499 c 1.08,-0.1622 1.944,-0.54 2.592,-1.1339 0.9179,-0.8101 1.3499,-2.5381 1.3499,-5.1301 0,-2.268 -0.432,-3.9419 -1.2421,-5.0219 -0.5942,-0.756 -1.512,-1.2421 -2.7,-1.4581 l 5e-4,1.3501 z m 30.2939,11.7181 0,-1.2421 c -0.972,0 -1.62,-0.4859 -1.9979,-1.404 -0.3781,-0.9179 -0.54,-2.268 -0.54,-4.0501 0,-1.836 0.1622,-3.24 0.54,-4.104 0.324,-0.9179 1.0262,-1.3499 1.9979,-1.3499 l 0,-1.296 c -1.4582,0 -2.484,0.5941 -3.1862,1.7819 -0.7018,1.188 -1.0261,2.8618 -1.0261,4.968 0,2.1061 0.324,3.7258 1.0261,4.9141 0.7022,1.1883 1.7283,1.7821 3.1862,1.7821 z m -18.036,-12.9061 c 0,-0.1621 -0.108,-0.2699 -0.2699,-0.2699 l -5.832,0 c -0.108,0 -0.216,0.108 -0.216,0.2699 l 0,12.42 c 0,0.1621 0.108,0.216 0.216,0.216 l 5.8859,0 c 0.108,0 0.1621,0 0.1621,0 0.0539,-0.0539 0.0539,-0.0539 0.108,-0.108 l -0.108,-0.216 -0.216,-0.8101 c -0.0538,-0.108 -0.1621,-0.1622 -0.324,-0.1622 l -4.1581,3e-4 0,-4.1579 3.672,0 c 0.1621,0 0.2698,-0.108 0.2698,-0.2698 l 0,-0.8102 c 0,-0.1621 -0.108,-0.2698 -0.2698,-0.2698 l -3.672,-3e-4 0,-4.752 4.536,0 c 0.108,0 0.216,-0.0539 0.216,-0.216 l 0,-0.864 z m 13.068,1.188 c 0.0538,-0.108 0.108,-0.1621 0.108,-0.2699 0,-0.1621 -0.324,-0.4858 -0.972,-0.864 -0.648,-0.3781 -1.2969,-0.5941 -1.9979,-0.5941 -1.512,0 -2.6458,0.648 -3.2938,1.8901 -0.7019,1.188 -1.0262,2.8619 -1.0262,4.968 0,1.9979 0.324,3.6182 0.9179,4.8059 0.648,1.188 1.728,1.7819 3.2938,1.7819 0.7019,0 1.3499,-0.1622 1.9979,-0.54 0.5941,-0.3782 0.9179,-0.7019 0.9179,-0.9179 0,-0.0539 0,-0.1621 -0.108,-0.216 l -0.3782,-0.54 c -0.0538,-0.108 -0.1621,-0.1621 -0.216,-0.1621 -0.324,0.324 -0.7018,0.54 -1.0261,0.8101 -0.432,0.216 -0.8102,0.324 -1.188,0.324 -0.972,0 -1.62,-0.432 -1.9979,-1.2421 -0.3781,-0.864 -0.54,-2.16 -0.54,-3.888 0,-1.836 0.216,-3.2939 0.648,-4.2662 0.432,-1.0261 1.08,-1.512 2.052,-1.512 0.432,0 0.9179,0.1622 1.4582,0.54 0.216,0.1622 0.4858,0.3782 0.756,0.54 0.0538,0 0.0538,0 0.108,-0.0538 l 0.0538,-0.0539 0.4326,-0.54 z m -26.352,-0.108 c 0.3781,0 0.756,0.0539 1.0261,0.108 l 0,-1.3499 c -0.3781,-0.0538 -0.864,-0.108 -1.3498,-0.108 l -2.1603,0 c -0.1622,0 -0.216,0.108 -0.216,0.2699 l 0,12.42 c 0,0.1621 0.0538,0.216 0.216,0.216 l 2.376,0 c 0.3781,0 0.8101,0 1.1338,-0.0539 l 0,-1.3498 c -0.324,0.0538 -0.7018,0.108 -1.188,0.108 l -1.0258,-3e-4 0,-10.26 1.188,0 z"
       style="fill:#0b0c0b;fill-opacity:1;fill-rule:evenodd;stroke:none"
       id="path24"
       inkscape:connector-curvature="0" /></g></svg>