<?xml version="1.0" encoding="utf-8"?>
<!-- Generator: Adobe Illustrator 19.2.0, SVG Export Plug-In . SVG Version: 6.00 Build 0)  -->
<svg version="1.1" id="Layer_2" xmlns="http://www.w3.org/2000/svg" xmlns:xlink="http://www.w3.org/1999/xlink" x="0px" y="0px"
	 viewBox="0 0 141.7 141.7" style="enable-background:new 0 0 141.7 141.7;" xml:space="preserve">
<style type="text/css">
	.st0{fill:#383934;}
	.st1{fill:#000900;}
</style>
<g>
	<path d="M77.2,64.9c0,0.2-0.1,0.3-0.3,0.3c-0.1,0-0.2-0.1-0.3-0.3c0-0.1,0.1-0.2,0.3-0.2C77.1,64.7,77.2,64.8,77.2,64.9z"/>
	<path d="M70,84.4l-0.2,0.1c-0.1,0.4-0.4,1.1-1.4,1.6c0,0,0.9,0,1.4-1c0,0.1-0.2,1.1-1.5,2.9c0,0,0,0.3,0.3,0.1
		C69.8,86.7,70.1,84.7,70,84.4z"/>
	<path d="M81,86.1C81.1,85.9,80.8,86.1,81,86.1c0,0,0.1,0,0.2,0c0.4,0,0.8,0.2,1.1,0.4l0.2-0.1c-0.5-0.3-1.3-0.6-1.8-0.1L81,86.1z"
		/>
	<path d="M83.7,88.2c0.2,0.2,0.5,0.3,0.7,0.3l0.2-0.1c-0.3,0-0.5-0.1-0.7-0.3L83.7,88.2z"/>
	<path d="M91.2,54.5c0-0.1-0.1-0.1-0.2-0.1c-1.4,1.3-3.8,1.4-5.5,0.8c-0.2-0.1-0.3,0.1-0.3,0.1C87.1,56,90.2,56.1,91.2,54.5z"/>
	<path d="M85.3,54.8C85,54.8,85,54.9,85,54.9c0.4,0.1,0.8,0.2,1.2,0.2c0.8,0.3,1.7,0,1.7,0c-0.2,0-0.7,0-1,0c1-0.2,2.3-0.7,2.8-1.3
		C89.3,54.4,86.6,55,85.3,54.8z"/>
	<path d="M68.6,52.5L68.6,52.5L68.6,52.5z"/>
	<path d="M71.1,53.7c-0.6-0.9-1.9-1.1-2.5-1.2C69.8,52.9,71,53.6,71.1,53.7z"/>
	<path d="M81,57.4c0.3,0.1,0.5-0.2,0.5-0.5c0-0.2-0.2-0.5-0.5-0.4c-0.3,0.1-0.5,0.2-0.5,0.6C80.5,57.3,80.7,57.5,81,57.4z"/>
	<path d="M78.7,46.9c-0.2,0.1-0.5,0-0.5,0c0.5,0.6,0.9,0.2,0.9,0.2C79.3,46.7,78.7,46.9,78.7,46.9z"/>
	<path d="M75.1,47.9L75,48c0,0-0.3-0.1-0.1,0.2c0,0,0.3,0.5,0.5,0.4c0,0,0.2,0,0-0.2C75.3,48.4,75.4,48,75.1,47.9z"/>
	<path d="M35.4,67.7c-0.3-0.3-2.2-0.4-2.7-0.4c-0.5,0-1.6-0.1-1.6-0.1c-0.1,0-0.3,0-0.3-0.1c-0.1-0.1-0.1-0.2-0.2-0.2l-0.2,0.1h0v0
		v0c-0.1,0.1-0.1,0.3-0.1,0.4c0,0.3,0,0.5,0,0.7c0,0.2,0.1,0.2,0.2,0.1c0,0,0.3-0.3,0.5-0.3c0.8,0,3.3,0,3.6,0.1
		c0.6,0.2,0.7,1.1,0.3,1.5l0,0c0,0-0.3,0.1-0.4,0.1c-1.1,0-2.2,0-3.2,0c-0.1,0-0.2,0-0.4-0.1c-0.1-0.1-0.2-0.2-0.3-0.1v0l0,0
		l-0.1,0.1c-0.2,0.2-0.1,0.6-0.1,0.8c0,0.2-0.1,1.2,0.1,1.3c0.1,0,0.3-0.2,0.4-0.3c0.3-0.1,2-0.1,2.5-0.1c0.7,0,1.5,0,2-0.4
		c0.4-0.3,0.4-0.8,0.4-1.3C35.8,68.7,35.9,68.1,35.4,67.7z M30.6,68L30.6,68L30.6,68L30.6,68z M34.7,70.8c0.2,0,0.4-0.1,0.5-0.2
		C35.1,70.7,34.9,70.8,34.7,70.8z"/>
	<polyline class="st0" points="84.9,31.9 84.9,31.9 84.9,31.9 84.9,31.9 	"/>
	<line class="st0" x1="30.9" y1="65.3" x2="30.9" y2="65.3"/>
	<path d="M35.4,62.1c-0.1,0-1.1-0.2-1.6-0.3c-0.8-0.1-1.6-0.2-2.3-0.4c-0.1,0-0.2-0.1-0.3-0.2c0-0.1-0.2-0.3-0.3-0.2h0L30.8,61l0,0
		v0c-0.1,0.1-0.1,0.3-0.1,0.5c0,0.3-0.1,0.5-0.1,0.8c0,0.1,0,0.3,0.2,0.2v0l0,0l0.1-0.1c0.1-0.1,0.1-0.1,0.2-0.2
		c0.1,0,2,0.2,1.9,0.2c0.1-0.1-1.4,0.8-1.8,1.1c-0.2,0.1-0.5,0.2-0.7,0.4c-0.1,0.1-0.2,1-0.2,1.2c-0.1,0.3,0.1,0.3,0.1,0.3
		c0,0,0,0,0,0l0.5-0.3c0.2-0.1,0.4-0.1,0.5,0c0.9,0.1,3.6,0.3,3.7,0.3l0.1,0.2c0,0.3,0.2,0.3,0.2,0.3c0.2,0.1,0.2-0.3,0.2-0.4
		c0-0.4,0.1-0.7,0.1-1.1c0-0.2-0.3,0-0.3,0c0,0-0.1,0.3-0.2,0.3c-0.1,0-0.3,0-0.5,0c-0.3,0-2.3-0.2-2.4-0.4c0.7-0.4,3.5-2.1,3.5-2.1
		v0l0,0C36.1,62.1,35.5,62.1,35.4,62.1 M30.9,62.4L30.9,62.4l0.2-0.1L30.9,62.4"/>
	<polyline points="30.9,65.3 30.7,65.4 30.9,65.3 	"/>
	<path d="M88.4,38.7c-0.2,0.3-0.5,0.4-0.8,0.6l0,0c0,0-0.2,0.2,0.2,0.4c0.2,0.1,0.4,0.3,0.6,0.5c0.4,0.4,0.5,0,0.5-0.1
		c0.1-0.3,0-0.6,0.2-0.9c0.5-0.7,1-1.5,1.5-2.2c0.1,0,0,0.4,0,0.6c-0.1,0.5-0.3,3.2-0.4,4c0,0.3,0.2,0.5,0.4,0.5l0.1-0.1
		c0.1-0.2,0.1-0.6,0.3-0.8c0.1-0.1,0.1-0.2,0.2-0.3c0.6-0.7,1.3-1.5,1.9-2.3c0.2-0.2,0.3-0.4,0.6-0.4l0.3-0.1c0.1-0.1,0.1-0.1,0-0.3
		c-0.2-0.3-0.6-0.4-0.8-0.8c-0.1-0.1-0.3-0.2-0.2-0.2c0,0-0.3-0.1-0.2,0.4c0.1,0.3,0,0.6-0.2,0.9c-0.3,0.4-0.5,0.8-0.8,1.2
		c-0.1-0.2,0.1-1.9,0.1-2.5c0-0.3,0.1-0.8-0.1-1.1c-0.2-0.2-0.9-0.7-1.1-0.8L90.6,35c-0.1,0.1,0,0.2,0,0.3c0,0.2,0,0.3-0.1,0.5
		c0,0.2-0.2,0.4-0.3,0.6C89.9,36.8,88.7,38.3,88.4,38.7z"/>
	<polyline class="st0" points="31.5,59.6 31.4,59.6 31.4,59.7 31.5,59.6 	"/>
	<path d="M36.3,60.5c0-0.3,0.1-0.6,0.2-0.8c0-0.1,0.1-0.3,0.1-0.4c0.1-0.3-0.1-0.3-0.2-0.2c0,0-0.5,0.2-1,0.1
		c-0.5-0.1-2.8-0.6-3.2-1c-0.1-0.1-0.4-0.5-0.6-0.5v0c0,0-0.1-0.1-0.2,0.7c-0.1,0.4-0.2,0.8-0.2,1.2c0,0.2,0.1,0.1,0.2,0.1
		c0.2,0,0.2-0.2,0.3-0.2c0.2,0,3.2,0.6,3.8,0.9c0.2,0.1,0.4,0.4,0.6,0.5C36.1,61.1,36.3,60.7,36.3,60.5z M31.4,59.6L31.4,59.6
		L31.4,59.6z"/>
	<path d="M100.3,55.5c-0.2,0.2,3.9,0.2,3.8,0.2c-0.1,0-4.9-0.1-4.8,0.3c0.1,0.2,0.2,0.5,0.2,0.8c0,0.1,0.2,0.8,0.4,0.7
		c0.2-0.1,0.3-0.4,0.5-0.5c0.1-0.1,0.2-0.1,0.4-0.2c0,0,2.8-1.1,3.3-1.2c0.1,0,0.2,0.1,0.4,0.1c0,0,0.2,0,0.1-0.4
		c-0.1-0.3-0.2-0.5-0.3-0.8c-0.1-0.2,0-0.7-0.3-0.6v0l-0.2,0.3c0,0-0.5,0.3-0.6,0.4C102.6,54.6,100.3,55.5,100.3,55.5z M100.3,56.9
		L100.3,56.9L100.3,56.9L100.3,56.9z M100.4,56.9L100.4,56.9L100.4,56.9z"/>
	<path d="M43.2,38c0.2,0,0.3,0.2,0.5,0.3c0.7,0.8,1.6,1.5,2.2,2.4c0.2,0.3,0.3,0.5,0.3,0.8c0.1,0.4,0.4,0.1,0.4,0.1v0
		c0.4-0.4,1.1-0.9,1.1-0.9c0.1,0,0.3-0.3,0.1-0.4h0c-0.3,0-0.5-0.1-0.7-0.3c-0.6-0.6-2.2-2.4-2.4-2.7c-0.2-0.2-0.2-0.5-0.3-0.8
		l-0.1-0.1l0,0c0,0-0.6,0.4-1.3,1.1c-0.1,0.1-0.2,0.1-0.2,0.2C42.8,38,43.2,38,43.2,38z"/>
	<path d="M92,42.7c-0.1,0.8,0.3,1.5,1,1.9c1,0.5,2.2-0.3,2.9-1c0.5-0.5,0.9-1.1,1.1-1.9c0.1-0.8-0.4-1.6-1-2c-1-0.6-2.2,0.3-3,1
		C92.5,41.3,92.1,42,92,42.7z M94.2,41.4c0.3-0.3,2-1.8,2.1-0.7c0,0.4-0.3,0.8-0.5,1c-0.3,0.4-0.7,0.8-1.1,1.3
		c-0.1,0.1-0.3,0.3-0.4,0.4c-0.1,0.1-0.3,0.2-0.4,0.3c-0.1,0.1-0.2,0.1-0.3,0.1c-0.3,0-0.6-0.2-0.7-0.5c-0.1-0.3,0.1-0.7,0.3-0.9
		C93.4,42.1,93.8,41.7,94.2,41.4z"/>
	<path d="M36.5,46.5c0.4,0,0.8,0.4,1.1,0.6c0.7,0.5,1.4,1,2.1,1.5c0.1,0.2,0.3,0.3,0.3,0.6c0,0.1,0,0.4,0.2,0.3h0v0
		c0.1,0,0.7-1,1-1.5c0.2-0.4-0.3-0.3-0.5-0.4c-0.2-0.1-0.4-0.2-0.6-0.4c-0.3-0.2-1-0.5-0.5-0.9c0.3-0.1,0.8-0.1,1.1-0.1
		c0.5,0,1.1-0.1,1.6-0.2c0.2-0.1,0.5-0.2,0.6-0.4c0.1-0.3-0.4-0.3-0.6-0.3c-0.2,0-1.6-0.2-2.1-0.2c-0.2,0-0.3,0-0.3-0.3
		c0-0.3-0.1-0.6-0.4-0.8c-0.5-0.5-1.1-0.5-1.7-0.2c0,0-0.5,0.3-1.4,1.8c-0.1,0.2-0.3,0.5-0.4,0.7C35.9,46.7,36.3,46.5,36.5,46.5z
		 M38.7,46.4L38.7,46.4L38.7,46.4L38.7,46.4z M37.4,45.1c0.1-0.2,0.2-0.3,0.4-0.5c0.4-0.1,0.9,0.3,1.1,0.6c0.3,0.3,0.1,0.8-0.1,1.1
		c-0.2,0-0.5-0.3-0.6-0.4c-0.2-0.2-0.4-0.3-0.7-0.5C37.4,45.4,37.3,45.3,37.4,45.1z"/>
	<path d="M101.2,62.3L101.2,62.3L101.2,62.3l2-1.5l0.5,0.3c0.4,0.2,0.9,0.1,1.2-0.1c0.5-0.2,0.8-0.7,0.8-1.2c0-0.5-0.2-1-0.3-1.5
		c-0.1-0.4-0.2-0.7-0.3-1.1c-0.1-0.2-0.1-0.3-0.2-0.2l0,0l0,0l0,0l0,0h0l0,0l0,0l0,0l-0.1,0.1c-0.1,0.1-0.2,0.2-0.3,0.3
		c-0.1,0.1-0.2,0.1-0.4,0.1c-0.2,0-2.5,0.6-3.1,0.8c-0.2,0-0.5,0-0.6-0.1c-0.1-0.1-0.6,0-0.4,0.3c0.3,0.5,0.2,1.1,0.3,1.6
		c0,0.1,0.2,0,0.4-0.1c0.1-0.2,0.3-0.2,0.5-0.3c0.2-0.1,1-0.4,1.2-0.3c0.6,0.2-0.2,0.8-0.4,0.9c-0.4,0.4-0.9,0.9-1.1,1.5
		c-0.1,0.2-0.3,0.7,0.1,0.7L101.2,62.3z M105,59.7L105,59.7L105,59.7z M104.7,58.5L104.7,58.5L104.7,58.5c0.3,0,0.3,0,0.4,0.3
		c0.1,0.3,0.1,0.6-0.1,0.8c-0.1,0-0.2,0.1-0.3,0.1l-0.2,0.1c-0.2,0-0.4,0-0.6,0c-0.2-0.1-0.6-0.7-0.4-1
		C103.8,58.7,104.2,58.7,104.7,58.5z M103.4,58.8L103.4,58.8L103.4,58.8L103.4,58.8z M103.3,58.9L103.3,58.9L103.3,58.9L103.3,58.9z
		"/>
	<path d="M41.8,42.9c0,0,0.9-0.5,1.2-0.7c0.6-0.3,1.2-0.5,1.2,0.2c0,0.4-0.3,0.8-0.6,1c-0.5,0.4-1.1,0.5-1.7,0.7
		c-0.1,0-0.2,0.1-0.3,0.1v0c0,0-0.2,0.1,0,0.2c0.3,0.2,0.6,0.3,0.9,0.4c0.1,0,0.4,0.2,0.5,0.2l0.1-0.1c0.2-0.3,0.4-0.6,0.7-0.9
		c0.3-0.3,0.6-0.5,0.8-0.9c0.2-0.4,0.3-0.8,0.2-1.2c-0.1-0.7-0.7-1.2-1.4-1.2c-0.6,0-2.2,0.9-2.3,1c-0.3,0.1-0.6,0.2-0.8-0.1
		c-0.2-0.3,0.1-0.8,0.3-1c0.3-0.2,0.7-0.2,1-0.2c0.3,0,0.7,0,0.9-0.2c0.3-0.2-0.6-0.6-0.8-0.7c-0.2-0.1-0.4-0.2-0.4-0.2
		c-0.1-0.1-0.2,0.4-0.4,0.5c-0.1,0-0.8,0.6-1,0.7c-0.4,0.6-0.7,1.4-0.1,2C40.4,43.2,41.2,43.1,41.8,42.9z"/>
	<path d="M97.1,46.5c0.1,0.6,0.2,1.2-0.3,1.5c-0.9,0.4-1.3-1.1-1.3-1.7c0-0.4,0.2-0.8,0.2-1.3c0-0.2-0.1-0.2-0.3-0.2l0,0
		c0,0-0.7,0.7-0.9,1c-0.1,0.2-0.4,0.4-0.1,0.6c0.4,0.3,0.5,0.6,0.7,1.1c0.2,0.8,0.9,1.3,1.7,1.2c0.4,0,0.9-0.3,1.2-0.6
		c0.5-0.5,0.7-1.3,0.5-2c-0.1-0.5-0.4-1.1-0.4-1.6c0-0.1,0-0.2,0.1-0.3c0.7-0.3,0.9,0.8,0.9,1.3c0,0.3,0,0.6-0.1,0.9
		c0,0.1-0.1,0.2,0,0.2c0.3,0,1.1-0.8,1.1-0.8c0.3-0.2-0.2-0.6-0.3-0.8c-0.1-0.2-0.1-0.3-0.2-0.5c-0.1-0.1-0.1-0.2-0.2-0.3
		c-0.3-0.6-1.2-1.3-1.9-0.8l-0.2,0.1c0,0-0.5,0.5-0.6,1C96.7,45.2,96.9,45.9,97.1,46.5z"/>
	<path d="M105.3,67.3c0,0-0.8,0-1.1,0.2c-0.5,0.5-0.8,1.3-1,2c-0.2,0.5-0.5,1-1.1,1.1c-1.3-0.5-0.6-2-0.1-2.4
		c0.4-0.3,0.6-0.5,0.8-0.7c0,0,0.2-0.2,0-0.2l-1.7,0.3c0.1,0.3,0.1,0.8-0.1,1.3c-0.3,0.8-0.1,1.8,0.6,2.2c0.4,0.3,0.9,0.3,1.3,0.2
		c0.7-0.1,1.1-0.6,1.4-1.3c0.4-0.8,0.3-1.3,0.7-1.8c0.1-0.1,0.2-0.1,0.3-0.1c0.7,0.2,0.4,1.3,0.1,1.7c-0.2,0.3-0.9,0.8-0.8,0.8
		c0,0-0.2,0.3,0.1,0.2c0.3,0,1.1-0.3,1.1-0.3c0.2-0.1,0.1-0.3,0.1-0.6c0-0.2,0.1-0.8,0.1-0.9C106.5,68.4,106.1,67.4,105.3,67.3z"/>
	<path d="M45.9,35.7c0.4,0.2,0.7,0.4,0.9,0.8c0.3,0.4,0.6,0.9,0.8,1.3c0.2,0.4,0.5,0.7,0.7,1.1c0.1,0.2,0.1,0.3,0.1,0.5
		c0,0.1-0.1,0.3,0.1,0.4l0.1-0.1c0.2-0.1,0.4-0.3,0.5-0.4c0.3-0.2,1.3-1,1.4-1.2c0.3-0.4,0.4-0.9,0.3-1.4c-0.1-0.9-0.7-1.8-1.4-2.3
		c-0.6-0.4-1.3-0.3-2,0l0,0c-0.2,0.1-1.7,1-1.8,1.2C45.6,35.6,45.8,35.7,45.9,35.7z M47.6,34.7c0.5-0.2,0.8,0.2,1.1,0.5
		c0.3,0.5,0.6,1,0.9,1.5c0.3,0.4,0.6,1,0.1,1.4c-0.3,0.1-0.3-0.2-0.5-0.4c-0.2-0.3-0.4-0.7-0.7-1c-0.3-0.5-0.7-1.1-1-1.6l0,0l0,0
		C47.3,34.9,47.4,34.9,47.6,34.7z"/>
	<path d="M55.5,30.2c0.2,0.2,0.4,0.3,0.5,0.6c0.3,1.1,0.6,2.2,0.9,3.3c0.1,0.2,0,0.4,0,0.5c0,0.1-0.1,0.3-0.1,0.4
		c0.1,0.2,0.8-0.1,0.9-0.2c0.5-0.2,1-0.3,1.4-0.6c1.4-0.9,1.1-2.6,0.5-3.9c-0.3-0.5-0.6-1-1.2-1.1c-0.7-0.2-1.5,0.1-2.1,0.3
		c-0.3,0.1-0.6,0.2-0.8,0.4C55.3,30,55.4,30.1,55.5,30.2z M57.3,29.8c1-0.4,1.3,1.7,1.5,2.3c0.1,0.6,0.3,1.3-0.2,1.7
		c-0.4,0.1-0.4-0.2-0.5-0.5c-0.1-0.4-0.2-0.8-0.3-1.2c-0.2-0.6-0.4-1.3-0.6-2C57.2,30.1,57.1,29.9,57.3,29.8z"/>
	<path d="M63.6,28.4c0.1,0.1,0.1,0.3,0.2,0.5c0.1,0.4,0.2,0.9,0.2,1.4c0.1,0.6,0.1,1.3,0.1,2c0,0.2,0,0.3,0,0.5
		c0,0.1-0.1,0.2-0.1,0.3c-0.1,0.2,0.2,0.2,0.3,0.2c0.7-0.1,1.4-0.1,2.1-0.3c0.2-0.1,0.3-0.1,0.5-0.3c0.1-0.1,0.2-0.2,0.3-0.2
		c0.5-0.5,0.7-1.3,0.7-2c0-0.7-0.1-1.4-0.4-2c-0.3-0.5-0.7-0.7-1.3-0.7c-0.7-0.1-1.6,0-2.3,0.1c-0.1,0-0.6,0.1-0.5,0.4
		C63.5,28.2,63.6,28.3,63.6,28.4z M65.3,28.1c1.2-0.4,1.1,2.1,1.1,2.7c0,0.6,0.1,1.2-0.3,1.6c-0.3,0.1-0.4-0.3-0.4-0.5
		c0-0.4-0.1-0.9-0.1-1.3c-0.1-0.8-0.1-1.5-0.2-2.3L65.3,28.1z M65.2,28.1L65.2,28.1L65.2,28.1L65.2,28.1z"/>
	<path d="M51.6,32.9c0.1,0.6,0.2,1.2,0.2,1.8c0,0.5,0.1,0.9,0.1,1.4c0,0.3,0,0.6-0.1,0.8c-0.1,0.1-0.2,0.3-0.2,0.5
		c0,0.1,0.3,0,0.3,0l0.1-0.1c0.3-0.2,1-0.6,1.1-0.6c0.1-0.1,0.2-0.1,0.2-0.3c0-0.2-0.4-0.3-0.5-0.5c-0.1-0.2-0.2-0.6,0-0.7
		c0.2-0.1,1-0.5,1.2-0.5c0.1,0,0.5,0.5,0.5,0.5c0,0.1,0.1,0.2,0,0.3c0,0.2,0,0.3,0.2,0.3c0.1,0,1.6-0.8,1.6-0.8
		c0.3-0.2-0.4-0.4-0.5-0.4c-0.2-0.2-2-2.2-2.6-3c-0.1-0.2-0.1-0.4-0.2-0.7c0-0.1-1,0.2-1.1,0.2c-0.1,0-0.7,0.3-0.7,0.4l0.2,0.4
		C51.6,32.3,51.6,32.7,51.6,32.9z M52.7,35.4L52.7,35.4L52.7,35.4z M53.3,34.1c0.1,0.1,0.2,0.3,0.1,0.4c0,0-0.5,0.2-0.6,0.3
		c-0.1,0-0.2,0-0.3,0l-0.1-0.4c0-0.4-0.1-1.3-0.1-1.3C52.6,33.1,53.2,34,53.3,34.1z M52.4,37.1c-0.1,0.1-0.3,0.2-0.4,0.3
		C52.1,37.4,52.2,37.3,52.4,37.1z"/>
	<path d="M98.1,50.6c-0.3,0-0.6-0.1-0.9,0l-0.2,0c-0.1,0.1,0.1,0.3,0.1,0.4c0.1,0.1,0.2,0.5,0.3,0.6c0.1,0.2,0.2,0.2,0.4,0.1
		l0.3-0.3c0.2-0.1,0.4-0.2,0.7-0.2c0.2,0,0.3,0,0.4,0.2c0.1,0.3,0.2,0.5,0.3,0.8c0.1,0.2,0.1,0.3,0.1,0.5c0,0.1-0.7,0.6-0.9,0.7
		l-0.3,0l0,0c0,0-0.1,0.1-0.1,0.2c0,0.2,0.1,0.3,0.2,0.4c0.1,0.2,0.2,0.6,0.3,0.8c0.2,0.5,0.4,0.3,0.4,0.3c0.1-0.1,0.1-0.2,0.1-0.3
		c0.2-0.3,0.5-0.6,0.7-0.8c0.7-0.7,2.3-2.3,2.4-2.3c0,0,0.6-0.1,0.7-0.2l0,0l0,0h0c0.3-0.2-0.6-1.4-0.6-1.6c0-0.2-0.2-0.2-0.2-0.2
		c0,0-0.2,0-0.5,0.5l-0.3,0.1C100.6,50.4,98.3,50.6,98.1,50.6z M98.1,51.4L98.1,51.4L98.1,51.4L98.1,51.4z M102.5,51.6L102.5,51.6
		L102.5,51.6L102.5,51.6L102.5,51.6L102.5,51.6z M102.4,51.6L102.4,51.6L102.4,51.6L102.4,51.6z M100.4,51.9L100.4,51.9L100.4,51.9
		L100.4,51.9z M100.4,51.9L100.4,51.9L100.4,51.9L100.4,51.9L100.4,51.9z M99.9,50.9c0.2,0,1.1,0,1.2,0c0,0,0.2,0.1,0.1,0.2
		l-0.8,0.8l-0.2,0c-0.1-0.1-0.2-0.4-0.2-0.6C99.9,51.2,99.8,51,99.9,50.9z"/>
	<path d="M33.7,51.4l0.2-0.1c0.1-0.1,0.2-0.1,0.3-0.1c0.4,0,0.8,0.3,1.1,0.5c0.6,0.4,1.2,0.7,1.8,1.1h0c0.1,0.1,0.6,0.4,0.7,0.5
		c0.1,0.1,0,0.3,0.2,0.3l0.2-0.1l0,0l0,0l1.6-3c0,0-1.1-1.7-1.5-1.2c-0.1,0.2,0.2,0.5,0.2,0.7c0.1,0.3,0.1,0.5,0.1,0.8
		c0,0.3,0,0.8-0.2,1c-0.2,0-1.6-0.9-1.7-0.9c0,0,0.1-0.5,0.5-0.6c0.2,0,0.5-0.1,0.5-0.1c0.2-0.3-1.1-0.8-1.4-0.9
		c-0.3-0.1-0.1,0.6-0.1,0.7c0,0.1,0.1,0.4-0.1,0.7c-0.4-0.2-1.3-0.7-1.5-0.8c-0.1-0.1,0.3-1,0.6-1.1c0.3-0.1,0.7-0.2,0.9-0.3
		c0.2-0.1,0-0.3-0.2-0.3c-0.2,0-0.5-0.1-0.7-0.1c-0.1,0-0.3,0-0.3,0.1c-0.3,0.2-0.9,1.8-1.1,2.2C33.9,50.7,33.4,51.5,33.7,51.4z
		 M36.3,50.8L36.3,50.8L36.3,50.8z M34,51.3l-0.1,0.1L34,51.3z"/>
	<path d="M86,33.8c-0.4,0.7-1.6,2.7-1.8,2.9c-0.5,0.1-0.5,0.2-0.5,0.2c-0.2,0.2,0.4,0.4,0.5,0.4c0.5,0.3,2,1.2,2.2,1.4
		c0.1,0.1,0.2,0.2,0.4,0.2c0,0,0.3,0,1.2-1.1c0.1-0.1,0.3-0.4,0-0.4c-0.2,0-0.5,0.2-0.7,0.3c-0.5,0.1-1,0-1.4-0.2
		c-0.4-0.2-0.3-0.4-0.1-0.7c0.3-0.5,0.5-0.9,0.8-1.4c0.1,0,0.3,0.1,0.4,0.3c0.2,0.2,0.3,0.5,0.3,0.8c0,0.2,0.2,0.3,0.3,0.2
		c0.2-0.2,0.3-0.6,0.4-0.9c0.1-0.2,0.3-0.7,0.2-0.7c-0.1,0-0.4,0.1-0.5,0.1l-0.3-0.1c-0.2-0.1-0.4-0.1-0.5-0.3
		c0.3-0.4,0.5-0.8,0.8-1.2c0.3,0,0.6,0.4,0.7,0.6c0.2,0.2,0.3,0.5,0.3,0.8c0.1,0.3,0.3,0.2,0.3,0.2c0.1,0,0.2-0.1,0.2-0.2
		c0.1-0.2,0.3-0.8,0.3-0.9c0-0.1-0.4-0.3-0.5-0.3c-0.7-0.5-1.4-1-2.1-1.4c-0.1-0.1-0.7-0.4-0.7,0c0,0.1,0,0.3,0,0.4
		C86.3,33.2,86.1,33.5,86,33.8z M84.1,36.7L84.1,36.7L84.1,36.7L84.1,36.7z M84.1,36.7"/>
	<path d="M101.1,65.3c0,0.3,0,0.6,0,0.9c0,0.1,0,0.1,0.1,0.2l0.1,0.1c0,0,1.1,0.2,1.3,0.2c0.3,0.1,0.4-0.2,0.2-0.2
		c-0.7-0.3-1.2-1.2-1.2-1.7c-0.1-0.4,0.1-0.4,0.5-0.5c0.5,0,1-0.1,1.6-0.1c0.1,0.2,0,0.3,0,0.5c-0.1,0.3-0.2,0.4-0.4,0.6
		c-0.2,0.1-0.1,0.3,0.1,0.3c0.3-0.1,0.9-0.3,1.2-0.3c0.3,0,0.1-0.2,0.1-0.2c-0.5-0.5-0.4-0.7-0.4-0.8c-0.1-0.2,0-0.2,0.2-0.2
		c0.5,0,0.9-0.1,1.4-0.1c0.2,0.2,0,1.1-0.1,1.3c-0.1,0.3-0.4,0.4-0.5,0.7c0,0-0.3,0.3,0.2,0.3l0.9-0.3c0.1-0.1,0-0.3,0-0.4
		c0-0.9-0.1-1.7-0.1-2.5c0-0.4-0.1-0.6-0.1-0.6c-0.1-0.1-0.1-0.1-0.3,0c-0.1,0.1-0.2,0.2-0.3,0.3c-0.3,0.1-1.4,0-1.6,0.2
		c-0.3,0.2-2.1,0.3-2.4,0.2c-0.1-0.1-0.1-0.1-0.3-0.2l0,0c-0.3-0.1-0.2,0.5-0.2,0.6C101,64.1,101.1,64.7,101.1,65.3z M101.4,63.1
		 M101.4,63.1L101.4,63.1L101.4,63.1L101.4,63.1z M101.1,62.8L101.1,62.8L101.1,62.8L101.1,62.8z"/>
	<path d="M31.9,57c0.1-0.1,0.1-0.1,0.1-0.1c0.1,0,0.3,0,0.4,0c0.2,0,4.1-0.1,4.2,0.1C36.9,57.3,37,57,37,57c0.2-0.3,0.2-0.7,0.3-1
		c0-0.1,0.3-0.6,0.2-0.6c-0.1,0-0.3,0-0.4,0c-0.2,0-0.4,0-0.5-0.2c-1-0.7-2-1.4-2.8-2.3c-0.1-0.1-0.2-0.2-0.2-0.3
		c-0.1-0.1-0.1-0.5-0.3-0.5c-0.3,0.2-0.6,1.3-0.6,1.5c0,0.2,0.3,0,0.3,0c0.4-0.1,1.2,0.6,1.4,0.8c0.2,0.1,1.2,0.8,1,1.1
		c-0.1,0.1-2.2,0-2.4,0c-0.3,0-0.5-0.1-0.7-0.3c-0.1-0.1-0.2,0-0.2,0.1v0h0c-0.1,0-0.4,1.4-0.5,1.6C31.6,57,31.8,57.1,31.9,57z
		 M33,53.6L33,53.6L33,53.6z M32,56.9L32,56.9L32,56.9L32,56.9z"/>
	<path d="M74.1,37.1c0,0,0.2-0.1,0-0.2c-0.6-0.3-1-0.9-1.5-1.4c-0.2-0.2-0.5-0.5-0.7-0.7l-0.3-0.3c0,0.1,0.5,0.7,0.7,0.9
		C72.8,36.1,73.4,36.6,74.1,37.1z"/>
	<path d="M71.2,38.6c0.2,0.2,0.5,0.4,0.7,0.2l0.2-0.2c-0.3,0.1-0.6-0.1-0.8-0.3c-0.2-0.2-0.4-0.4-0.7-0.6c-0.2-0.1-0.7-0.4-0.8-0.1
		v0c0.2,0.2,0.3,0.5,0.3,0.8c0,0.3,0,0.7,0.3,0.7c0.2,0,0.6-0.1,0.6-0.2l0,0c-0.4,0.2-0.7-0.1-0.6-0.5c0-0.4-0.2-0.6-0.3-0.6
		C70.7,38,70.7,37.9,71.2,38.6z M72.1,38.7L72.1,38.7L72.1,38.7L72.1,38.7z"/>
	<path d="M78.5,58.5L78.5,58.5c0.4,0.4,0.8,0.8,1.4,1.1c0.7,0.3,1.4,0.4,2.1,0c1-0.6,1.3-1.8,1.4-2.4l-0.2,0.1
		c-0.1,0.5-0.7,1.9-2.3,2C79.4,59.4,78.5,58.5,78.5,58.5z M81.9,59.1L81.9,59.1L81.9,59.1L81.9,59.1z"/>
	<path d="M76.8,57.3c0,0.6,0.5,1.1,1,1.5l0,0l0.1-0.1c0,0-0.9-0.7-0.9-1.6L76.8,57.3z"/>
	<path d="M83.2,64.6c-0.4-0.5-1.8-0.8-1.9-0.8c0.5,0.2,1.3,0.5,1.7,1c0,0,0,1,0,1.6c0,0.7-0.2,1.5-0.7,1.9l0.2-0.1
		c0.8-0.7,0.8-2,0.7-3c-0.1-0.6,0.4-1.1,0.9-1.4C83.8,64,83.4,64.3,83.2,64.6z"/>
	<path d="M77.4,63.5c0.5-0.2,1.1-0.3,1.7-0.3l0.2-0.1c-0.6,0-1.2,0.1-1.7,0.3L77.4,63.5z"/>
	<path class="st0" d="M86.7,75.3l-0.3,0.2c0,0,0,0.1,0,0.3c0,0.4-0.4,0.7-0.4,0.7C86.8,76.4,86.8,75.6,86.7,75.3"/>
	<path class="st0" d="M87.5,72.3l-0.2,0.1c0.1,0.6,0,1.2-0.3,1.7c-0.1,0.2-0.2,0.3-0.3,0.4l-0.1,0.1c0,0-0.1,0.1-0.1,0.1
		c0,0,0,0,0,0c0,0,0,0,0,0c0,0,0.1-0.1,0.2-0.1C87.5,74.2,87.6,73.2,87.5,72.3"/>
	<path d="M85.3,69L85,69.2c1.3,0.2,2.3,1.2,2.5,2.5C87.5,71.7,87.3,69,85.3,69z"/>
	<path d="M86.5,73.3l0.1-0.3c-0.4-2.3-3.6-2.3-3.7-2.3C84.6,71,85.8,71.6,86.5,73.3z"/>
	<path d="M84,69c-0.9,0-1.5-0.1-2.6,0.2c-0.1,0-0.3,0.1-0.4,0.1c-0.1,0-0.4,0-0.6,0c-0.3,0.1-0.4,0.3-0.5,0.3c0.1-0.1,0.6-0.3,1-0.2
		c0.1,0,0.8-0.4,2.8-0.3L84,69z"/>
	<path d="M68.2,74.1c-1.1-1.3-2.2-2.6-3.3-3.9l-0.1,0l0,0c1,1.4,2.1,2.7,3.2,4l0,0h0l0,0l0,0l0.1,0l0,0v0L68.2,74.1L68.2,74.1
		L68.2,74.1L68.2,74.1L68.2,74.1z"/>
	<path d="M72.6,72.3c-1,0-1.8,0-2.8,0c-0.2,0-0.9,0.1-0.9,0c-0.1-0.2-0.2-0.5-0.4-0.7c-0.6-1-1.3-1.9-2-2.8c-0.4-0.6-1.3-1.2-2-0.8
		c-0.2,0.1-0.3,0.3-0.5,0.6c0-0.1,0.6-0.4,0.8-0.4c0.6-0.1,1.2,0.5,1.5,0.9c0.7,0.9,1.4,1.8,2,2.8c0.1,0.2,0.3,0.4,0.4,0.7
		c0,0.1,0,0.1,0.1,0.1c0.2,0,0.7,0.1,0.9,0.1c1,0,1.8,0,2.8,0c1.6,0,3.3,0,4.7-0.2l0.1-0.2C75.7,72.3,74.2,72.3,72.6,72.3z"/>
	<path d="M76.9,73.2c-0.8,0-1.6,0-2.4,0l-0.2,0.1c0.8,0,1.6,0,2.4,0L76.9,73.2z"/>
	<path d="M72.7,73.6c-0.9,0-1.8,0-2.7,0l-0.2,0.1c0.9,0,1.8,0,2.7,0L72.7,73.6z"/>
	<path d="M68.7,74.3c0.6,0,1.2,0,1.8,0l0.2-0.1c-0.6,0-1.2,0-1.8,0L68.7,74.3z"/>
	<path d="M69.1,74.6l-0.2,0.1c3.1,0.1,6.1,0.2,9.2,0.3l0.2-0.1C75.2,74.7,72.2,74.6,69.1,74.6z"/>
	<path d="M75.9,74.5c0.6,0,1.3,0,1.9,0l0.2-0.1c-0.6,0-1.3,0-1.9,0L75.9,74.5z"/>
	<path d="M66.4,84.7l0.2-0.1c-1.2,0.5-2.6,0.1-3.8-0.4c-1.4-0.7-2.7-1.7-3.8-2.8c-1.1-1.2-2.8-4.2-2.8-4.2c0.5,1.5,1.4,3.1,2.5,4.2
		c1.1,1.2,2.4,2.1,3.8,2.8C63.8,84.9,65.2,85.2,66.4,84.7z"/>
	<path d="M74.5,89.9l-0.4,0.2c0.1,0.1,0.2,0,0.3,0.3c0.1,0.3,0,0.8,0,0.9C74.4,91.3,74.9,90.2,74.5,89.9z"/>
	<path d="M72,97.9c0,0,1.8-0.5,0.7-1.7l-0.4,0.5c-0.1,0.1,0.1,0.2,0.2,0.1c0,0,0.2,0.3,0.1,0.5C72.5,97.6,72,97.9,72,97.9z"/>
	<path d="M67.9,88.2c-0.2-0.2-0.4,0-0.6-0.1c-3.7-0.3-6.4-2.3-6.4-2.3c1.3,1.5,3.1,2.4,5,2.8C67.5,89,68,88.4,67.9,88.2z"/>
	<path d="M62.2,84.8c0.6,0.4,1.9,0.8,2.4,0.9c-1.2-0.4-3.7-1.9-3.7-1.9C61.3,84.1,61.7,84.5,62.2,84.8z"/>
	<path d="M71.6,88.6c-0.3,1.3-1.8,2-1.8,2C71.3,90.6,71.6,89.3,71.6,88.6z"/>
	<path d="M63.3,91c0,0,0.2-1.2-1.1-2.7c-2-2.4-4.1-6.3-4.1-6.3c0.4,1.1,1.3,3,2.2,4.3c0.5,0.7,1.1,1.4,1.6,2.1
		c0.4,0.6,1,1.4,1.1,2.2c-0.3-0.3-1.9-2.5-2.4-3.2c-0.5-0.9-1.1-1.9-1.5-2.8c0,0,0.7,2,1.2,2.9C61.9,90.1,63.2,90.9,63.3,91z"/>
	<path d="M57.9,87.1c0.1,0.8,0.2,1.6,0.3,2.5l0.1-0.1l0,0c0.1-0.1,0-0.5,0-0.5c0-0.3,0-0.5,0-0.8c0-0.5-0.1-1.1-0.2-1.6
		c-0.2-1-0.4-2-0.9-2.9l0,0c-0.1,0.1-0.2,0.1-0.3,0.2l0,0l0,0c0.3,0.4,0.5,0.9,0.6,1.4C57.6,85.8,57.8,86.4,57.9,87.1z"/>
	<path d="M62.6,91.2c-0.8-0.4-1.6-0.6-2.5-0.6c-0.6,0-1.3,0.3-1.2,0.2c0,0,2.1-0.1,3.4,0.6L62.6,91.2z"/>
	<path d="M66.1,90.6l0.2-0.1c-0.5,0.2-2.7-1.2-2.7-1.2C63.9,89.5,65.5,90.9,66.1,90.6z"/>
	<path d="M63.4,74.8c0.1,0.1,0.4,0.3,0.4,0.3l0.2-0.1c0,0-0.8-0.9-1.4-0.9c-0.2,0-1.1,0.4-1.1,0.5C62.2,74.5,62.9,74.5,63.4,74.8z
		 M61.7,74.6"/>
	<path d="M80.8,73.1C81,73,79.2,71,78,70.5l-0.1,0c2,1.3,2.8,2.7,2.8,2.7L80.8,73.1z"/>
	<path d="M83,75.9c0.2-0.8-0.1-1.7-0.6-2.3c0,0,0.7,1.3,0.4,2.4L83,75.9z"/>
	<path d="M82.7,72.8c-0.1-0.2-0.4-0.4-0.6-0.4L82,72.4c0,0,0.7,0.8,0.7,1.1C82.7,73.6,82.9,73.2,82.7,72.8z"/>
	<path d="M58,39.5c-2,0.8-3.6,1.5-4.8,2.1c-2.3,1.2-5.4,3.6-6.7,4.7c1.8-1.3,8.4-6,15.2-7.6l0.1,0c1.4-0.4,1.5-0.7,1.4-0.9
		c0,0-2.4,0.8-2.7,0.9C59.7,38.8,58.9,39.1,58,39.5"/>
	<polyline class="st0" points="61.3,39.1 61.3,39.1 61.3,39.1 	"/>
	<path d="M47.3,44.8L47.3,44.8L47.3,44.8L47.3,44.8c6.1-4.6,13.3-7.6,15.5-8.2c-3,0.8-6,2.1-8.7,3.5C52.7,40.8,47.4,44.2,47.3,44.8z
		 M60.4,37.4c-0.6,0.2-1.2,0.5-1.8,0.7c-0.7,0.3-1.3,0.5-2,0.8C57.8,38.3,59.1,37.8,60.4,37.4z"/>
	<polygon points="50.8,42 50.9,42 50.9,42 	"/>
	<polyline class="st0" points="60.1,43.9 60.1,44 60.1,43.9 	"/>
	<path d="M69.7,60.1c-2.2-0.4-6.2-0.2-6.3-0.1C65.4,60,69.6,60.1,69.7,60.1z"/>
	<path d="M70.2,59L70.2,59L70.2,59z"/>
	<path class="st0" d="M52.9,59.1c-0.5,0-1.1,0.1-1.6,0.2L51,59.4l0,0l-0.1,0l0,0l0,0c0,0,0,0,0,0l0,0l0,0c0.2,0,0.4-0.1,0.6-0.1
		l3.2,0c0.2,0,0.4,0,0.5,0c0.2,0,0.4,0.1,0.7,0.1c0.1,0,0.1,0,0.2,0l0.2-0.1l0.1,0l0.1,0l0,0l0,0C55.2,59.2,54.1,59.1,52.9,59.1"/>
	<path class="st0" d="M93.8,77.2l-0.2,0.2c-0.1,0.8-0.7,1.6-1.3,2.2l0.2-0.1C93.1,78.8,93.7,78,93.8,77.2"/>
	<polygon points="65,98.6 65.1,98.5 65.2,98.5 	"/>
	<path class="st0" d="M98.5,71.8c-0.2,0.2,0.3,0.5,0.7,0.6c0,0-0.6-0.4-0.5-0.6L98.5,71.8"/>
	<polyline class="st0" points="89.5,43.3 89.5,43.3 89.5,43.3 	"/>
	<path d="M77.7,37.1c0-0.2-0.3-0.2-0.4-0.2c-0.1-0.1,0.4-0.1,0.3-0.2c-0.2-0.2-0.5-0.2-0.7-0.1c-0.1,0-0.2,0-0.3,0
		c-1.5-0.6-1.7-0.8-2.2-1.3c0-0.2,0-0.4-0.1-0.5C74,34,73,33.8,73,33.8c0.2,0.2,0.5,0.5,0.7,0.7c0.2,0.3,0.3,0.6,0.3,0.9
		c0.1,0.5,0.9,1.2,0.9,1.2c-0.1-0.3-0.3-0.5-0.4-0.8c0-0.1-0.1-0.2-0.1-0.3c0.8,0.7,1.7,1.7,2.7,1.9c0,0,0-0.1,0-0.1
		c0-0.1,0.1-0.2,0.2-0.1l1.2,0.7C78.5,37.5,77.6,37.4,77.7,37.1"/>
	<path d="M79.4,39l0.1-0.1c0.2-0.3,0.2-0.6,0.2-1c0-0.7-0.3-1.4-0.6-2c-0.3-0.6-1.7-2.4-1.8-2.4l0,0c0,0.2,0.4,0.6,0.5,0.7
		c0.4,0.6,0.7,1.2,1,1.8c0.2,0.6,0.4,1.2,0.4,1.8c-0.4-0.7-0.9-1.3-1.4-1.8c0-0.1-0.2,0-0.1,0.1c0.6,0.9,1.1,1.5,1.4,2.4v0l0,0.2
		L79.4,39z M79.2,38.7L79.2,38.7L79.2,38.7L79.2,38.7z"/>
	<path d="M77,38.9c0.1-0.1,0.1-0.4,0-0.4l0,0c-0.7-0.2-1.3-0.5-1.8-0.9c-0.1-0.1-0.2-0.2-0.4-0.4L74.7,37l-0.2,0l0,0v0
		c0.5,0.7,1.1,1.4,1.9,1.7C76.5,38.8,76.8,39,77,38.9z M77,38.5L77,38.5L77,38.5L77,38.5z"/>
	<path d="M75.4,38.8l0.6,0c-0.5-0.3-1.5-0.9-1.8-1.3C74.1,37.5,74.2,38,75.4,38.8z"/>
	<path d="M77.4,38.4L77.4,38.4c0.1,0,0.2,0,0.4,0.1c0.1,0,0.3,0.1,0.4,0.1c0.1,0,0.1-0.2,0.1-0.2c0,0-0.4-0.4-0.8-0.3
		c0,0-1.1-0.2-1.4-0.6l-0.1,0c0,0.1,0.1,0.2,0.1,0.3C76.4,38.1,76.9,38.2,77.4,38.4z M77.4,38"/>
	<path class="st0" d="M74.4,33.8L74.2,34c0.2,0.1,0.4,0.2,0.7,0.2c0.1,0,0.1,0,0.2,0l0.2-0.1c-0.1,0-0.1,0-0.2,0
		C74.9,34,74.6,34,74.4,33.8"/>
	<path d="M74.9,34.3l-0.2,0.1c0.5,0.1,1.1,0.2,1.4-0.2C76.1,34.3,75.3,34.4,74.9,34.3z"/>
	<path d="M76.2,35.1c0,0-0.2,0.3-0.4,0.3l-0.1,0.3c0.3,0.1,0.5-0.1,0.8-0.5L76.2,35.1z"/>
	<path d="M75.8,35.9l0.1,0.1c0.3,0,0.7-0.2,0.9,0c0,0,0.2,0,0.1-0.2c-0.4-0.6-0.5-0.2-0.9-0.1L75.8,35.9z"/>
	<path d="M79.1,42.6c0.3,0,0.5,0.3,0.7,0.5l0.1-0.2c-0.1-0.2-0.2-0.7-0.5-0.7C79.3,42.1,79.1,42.6,79.1,42.6z"/>
	<path d="M79.7,39.7c0,0.4-0.1,0.9-0.3,1.3L79,41.3c0.8-0.2,1.1-1,1.1-1.7C80.1,39.6,79.7,39.4,79.7,39.7z"/>
	<path d="M80.3,39c0.2-0.4,0.4-1.1,0.5-1.6l-0.2,0.1C79.8,39.4,80.3,39,80.3,39z"/>
	<path d="M67.7,94.2l0.5-0.3c-0.4,0-1.2,0.3-1.6,0.6C66.7,94.5,67.4,94.2,67.7,94.2z"/>
	<path d="M69.3,93.7c0.2,0,0.5,0,0.7-0.1c0.2-0.1,0.9-0.6,1-0.8l-0.4,0.2c-0.1,0.2-0.6,0.4-0.7,0.4L69.3,93.7z"/>
	<path d="M70.5,93.9c0.2,0,0.3,0,0.5-0.1c0.1,0,0.7-0.4,0.8-0.5c0,0.1-0.6,0.3-0.8,0.3L70.5,93.9z"/>
	<path d="M42.9,53.4c3.7-2.8,7.8-5.2,12.1-6.8c0.9-0.4,1.9-0.7,2.8-1.2c0.6-0.3,2.5-1.4,2.8-1.8c-0.1,0.1-3.4,1.9-6,2.9
		c-3,1.1-5.8,2.9-8.6,4.7c-1.4,0.9-2.7,1.8-4,2.7C42.3,53.8,42.6,53.7,42.9,53.4z"/>
	<path d="M59.8,43.4C55.3,45,51,47.3,47,49.9c-1.5,1-3,2-4.4,3.2c0.3-0.2,0.7-0.3,0.9-0.6c2.8-2.3,5.9-4.2,9.2-5.8
		c1.9-0.9,3.8-1.8,5.8-2.6c0.1,0,0.2-0.1,0.3-0.1C59.1,43.9,59.4,43.5,59.8,43.4z"/>
	<path d="M57,49.8c-0.1,0.1-0.9,0.5-1.2,0.7c-0.2,0.1-1.4,0.7-2.2,1c-1.2,0.4-2.3,1-3.5,1.6c-1.9,1-3.7,2.2-5.5,3.3
		c-0.9,0.6-1.7,1.1-2.6,1.8c-0.1,0,0.6-0.3,1-0.5c0.4-0.2,0.8-0.5,1.2-0.7c0.6-0.4,3.8-2.4,4.2-2.6c1.1-0.6,2.2-1,3.3-1.4
		C53.7,52.1,56.9,49.9,57,49.8z"/>
	<path d="M54.8,49.8c-1.5,0.6-3,1.2-4.5,2c-1.6,0.8-3.2,1.7-4.8,2.7c-1.7,1-3.4,2.1-4.9,3.4c0.1-0.1,2-1.2,2.4-1.4
		c0.6-0.5,1.2-1,1.9-1.4c0.3-0.2,2.9-1.7,4-2.2c1.2-0.6,2.4-1.1,3.6-1.5C52.9,51.1,54.7,49.8,54.8,49.8z"/>
	<path d="M41.3,87L41.3,87c-0.1-0.7-0.9-1.8-0.9-1.8L40,84.5l-0.3,0.3c-0.2,0.1-0.5,0.2-0.8,0.2c-0.6,0.1-2.7,0.3-3.2,0.4
		c-0.3,0-0.5,0.1-0.8,0c-0.1-0.1-0.2-0.2-0.4-0.2c-0.1,0-0.1,0.1-0.1,0.2c0,0,0.5,0.5,0.6,1.1c0,0,0.7-0.6,1.4-0.2
		c0.1,0.2,0.8,1.4,0.7,1.8c-0.1,0.3-0.7,0.8-0.7,0.8l0,0.1l0,0l0.5,1c0,0,0.2,0.3,0.3-0.1c0.1-0.3,0.4-1,0.6-1.2
		c0.2-0.2,0.4-0.4,0.6-0.6l0.2,0.2c0.2,0.2,0.4,0.4,0.2,0.9c-0.2,0.5-0.8,1.4-1,1.7c-0.1,0.2,0.4,0.9,0.4,0.9c0.1,0.1,0.2,0,0.2-0.2
		c0.3-0.9,1-1.8,1-2.3l0-0.6c0.3,0.1,0.9,0,1.1-0.1C41.2,88.3,41.4,87.7,41.3,87z M37.1,86l0.4-0.1c0.4-0.1,1.2-0.2,1.2,0
		c-0.1,0.3-0.5,0.8-0.5,0.8c-0.2,0.1-0.3,0.4-0.5,0.5L37.1,86z M39.8,87.8c-0.4,0.2-0.9,0-1.1-0.3c0.3-0.3,1.3-1.8,1.4-1.7
		c0.1,0.2,0.4,0.5,0.4,0.8C40.5,87,40.1,87.6,39.8,87.8z"/>
	<path d="M42.5,90.9l0.5,0.4c0,0,0.4-0.3,0.5-0.6c0-0.1,0.4-0.9-0.4-1.3c0,0-0.8-0.9-2.1,0.2c0,0-2.2,1.5-1.9,3.1
		c0,0,0.5,1.5,1.9,1.4c0,0,0.5,0,0.8-0.4c0,0,0.1-0.3,0.3,0.1c0,0,0.3,0.2,0,0.5c0,0-0.3,0.6-0.8,0.6c0,0-0.4,0-0.1,0.4l0.6,0.7
		c0,0,0.3,0.3,0.4-0.1c0,0,0.9-1.4,2.6-2.7c0,0,0.5-0.7,0.5-0.1c0,0,0.1,0.9,0.4,0.5c0,0,0.2-0.4,0.4-0.5c0,0,0.4,0,0-0.4l-1.7-1.7
		c0,0-0.2-0.4-0.5,0l-0.3,0.3c0,0-0.3,0.3,0.1,0.4c0,0,0.4,0,0.6,0.5l-1.5,1.5c0,0-0.2,0.3-0.4,0l-0.8-1c0,0-0.3-0.4-0.4,0.1
		c0,0-0.1,0.6-0.8,0.8c0,0-0.4,0.1-0.7-0.5c0,0-0.1-0.3,0.5-1l1.8-1.8c0,0,0.3-0.4,0.7-0.2C42.7,90,43,90.3,42.5,90.9z"/>
	<path d="M43.3,96.7c0,0-0.4,0.4-0.1,0.6l0.4,0.4c0,0,0.3,0.3,0.4-0.1c0,0,0-0.3,0.4-0.6l1.3-1.3c0,0,0.1-0.2,0.2,0.1l-0.6,2.7
		c0,0-0.2,0.8,0.4,0.6l2.5-1.8c0,0,0.3-0.3,0.2,0.2l-1.1,2.6c0,0-0.2,0.3,0.1,0.5l0.4,0.3c0,0,0.4,0.3,0.4-0.1l1.6-4.5
		c0,0,0.3-0.6-0.3-0.9c0,0-0.3-0.1-0.8,0.2L46.8,97c0,0-0.3,0.1-0.3-0.3c0,0,0.4-1.3,0.4-1.6c0,0,0.4-1.3,0.1-1.5
		c0,0-0.3-0.5-0.6-0.1L43.3,96.7z"/>
	<path d="M50.9,96.6c0,0-0.4-0.4-0.6,0.1l-1.2,4.5c0,0-0.3,0.4,0.1,0.6c0,0,0.3,0.1,0.3,0.2c0,0,0.4,0.2,0.6-0.1l3.3-3.5
		c0,0,0.4-0.3-0.1-0.5L53,97.8c0,0-0.4-0.3-0.6,0.2c0,0,0,0.4-0.6,0.9l-1,0.9c0,0-0.2,0.2-0.2-0.1l0.7-2.2
		C51.3,97.5,51.6,96.9,50.9,96.6z"/>
	<path d="M54.5,98.6c0,0-0.4-0.3-0.7,0.2l-1.9,4c0,0-0.5,0.5-0.1,0.6l0.4,0.2c0,0,0.3,0.2,0.5-0.1l1.9-4c0,0,0.4-0.5,0.1-0.8
		C54.3,98.4,54.5,98.6,54.5,98.6z"/>
	<path d="M61.4,103.2c0,0,0.4-0.8-0.2-0.7c0,0-0.7-0.2-0.8,0.6c0,0,0,0.4,0.1,0.7l0.2,2.4c0,0,0,0.3,0.3,0.4c0,0,0.3,0.1,0.6-0.3
		l2.3-3.7c0,0,0.4-0.3-0.1-0.5c0,0-0.5-0.3-0.7,0l-1.6,2.4C61.5,104.5,61.2,104.9,61.4,103.2z"/>
	<path d="M66.3,103.3c0,0-0.1,0.4-0.4,0.1c0,0-0.4-0.5-0.7,0.1c0,0-0.3,0.2,0.8,1.3c0,0,1.1,1.1-0.2,2.4c0,0-0.8,0.9-2.6-0.3
		c0,0-0.5-0.1-0.3-0.6l0.3-0.5c0,0,0.2-0.5,0.6,0c0,0,0.1,0.7,1.1,0.7c0,0,1.1-0.2-0.1-1.8c0,0-1.1-1.8,0.3-2.2c0,0,0.8-0.2,1.3,0.2
		C66.3,102.8,66.6,102.9,66.3,103.3z"/>
	<path d="M60.6,101c0,0-0.3,0-1-0.3c0,0-0.7-0.5-1-0.1c0,0-0.5,0.8,0,0.8c0,0,0.4-0.2,0.6-0.1c0,0,0.2-0.1,0.1,0.4l-1.1,3.1
		c0,0-0.1,0.6-0.7,0c0,0-0.2-0.2-0.3-1c0,0,0-0.8-0.2-1.1c0,0,0.5-0.1,0.9-0.6c0,0,0.5-0.7,0.2-1.5c0,0-0.2-0.5-0.8-0.7l-1.3-0.6
		c0,0-0.6-0.3-0.5,0.3c0,0,0,0.4-0.2,0.9l-1.5,3.3c0,0-0.3,0.5,0.1,0.6l0.6,0.3c0,0,0.3,0.3,0.4-0.1c0,0,0.1-0.8,0.4-1.2l0.3-0.8
		c0,0,0.7,0.1,0.8,1.4c0,0-0.1,1.6,1,1.9c0,0,1.2,0.5,1.7-0.6L60,102c0,0,0-0.4,0.2-0.4c0,0,0.1-0.1,0.3,0.1c0,0,0.4,0.2,0.4-0.3
		C60.9,101.5,61,101.1,60.6,101z M55.9,102c-0.5,0-0.2-0.4-0.2-0.4l0.6-1.4c0.1-0.4,0.3-0.2,0.3-0.2l0.4,0.3
		c0.3,0.4-0.2,1.4-0.2,1.4C56.6,102.2,55.9,102,55.9,102z"/>
	<path d="M71,106.9c0,0-0.6,0.1-1.1-1.2c0,0-0.2-0.4-0.5-0.7c0,0,0.8-0.2,0.7-1.4c0,0,0.1-0.9-1-1.1l-1.4-0.1l-0.4,0.1l0.1,0.1
		l-0.2,3.8c0,0,0,0.3-0.1,0.5c0,0-0.3,0.5,0.2,0.5l0.6,0c0,0,0.5,0.1,0.4-0.4l0-1.8c0,0,0.5-0.5,0.9,0.7c0,0,0.7,1.8,2,1.2
		C71.2,107.3,71.6,107,71,106.9z M69.1,103.8c0,0.6-0.4,0.8-0.4,0.8c-0.5,0.3-0.4-0.2-0.4-0.2l0-1.3c0-0.3,0.5-0.2,0.5-0.2
		C69.3,102.9,69.1,103.8,69.1,103.8z"/>
	<path d="M72.1,102.9c0,0-1.8-0.2-1.7,2c0.2,2.2,2.2,1.8,2.2,1.8s1.1-0.4,1-2.1C73.5,103.1,72.1,102.9,72.1,102.9z M72,106.1
		c0,0-0.6,0.2-0.7-1.4c-0.1-1.5,0.7-1.3,0.7-1.3s0.8,0.1,0.8,1.2C72.7,106.2,72,106.1,72,106.1z"/>
	<path d="M77.5,104.7c0,0-0.2-0.8-0.9-1c0,0-0.2,0-0.1-0.3c0,0,0.7-1.5-0.7-2.1c0,0-1.6,0.3-1.8,0.1c0,0-0.1,0.2-0.3,0.2
		c0,0-0.4,0.1-0.1,0.6c0,0,0.2,0.1,0.4,2.1c0,0,0.2,1.6,0.2,2.1c0,0-0.3,0.8,0.2,0.7c0,0,0.2-0.1,1-0.2c0,0,1.2-0.3,1.3-0.4
		C76.8,106.4,77.8,106.2,77.5,104.7z M74.9,103.5l-0.1-0.8c-0.2-0.9,0.3-0.9,0.3-0.9c0.8-0.3,0.7,0.9,0.7,0.9c0.1,1-0.6,1-0.6,1
		C74.7,103.9,74.9,103.5,74.9,103.5z M76.6,105.3c0,1-0.9,1-0.9,1c-0.4,0.1-0.4-0.3-0.4-0.3c0-0.5-0.2-1.4-0.2-1.4
		c-0.1-0.6,0.9-0.5,0.9-0.5S76.6,104.2,76.6,105.3z"/>
	<path d="M83.4,103.7c0,0-0.3-0.1-0.8-0.8c0,0-0.6-0.7-1-0.8c0,0,0.8-0.8,0.6-1.6c0,0-0.1-1.2-1.6-0.9l-1,0.3c0,0-0.3,0-0.2,0.6
		c0,0,0.3,2.9,0.2,3.7c0,0-0.6-1-0.8-1.3c0,0-0.9-1.5-0.8-1.8c0,0,0.2-0.8-0.2-0.4c0,0-0.6,0.3-0.8,0.3c0,0-0.5-0.1,0.2,0.5
		c0,0,0.3,0.1,1,1.3l1.4,2.4c0,0,0.3,0.5,0.7,0.3c0,0,0.4-0.1,0.4-0.5l0-2.3c0,0,0-0.6,0.7-0.1c0,0,0.2,0.1,0.8,1c0,0,0.6,1,1.5,0.6
		C83.5,104.2,83.9,103.9,83.4,103.7z M80.8,101.9c-0.4,0.3-0.3-0.1-0.3-0.1l-0.1-1.3c-0.1-0.6,0.4-0.4,0.4-0.4
		c0.5-0.1,0.6,0.9,0.6,0.9C81.4,101.6,80.8,101.9,80.8,101.9z"/>
	<path d="M83.2,99.1c0,0-0.2-0.3-0.5,0l-0.2,0.4c0,0-0.1,0.4-0.4,0l-0.2-0.4c0,0-0.2-0.3,0.3-0.4c0,0,1.6-0.8,1.8-0.9
		c0,0,0.3-0.4,0.5,0c0,0,0.5,0.4,0,0.6c0,0-0.8-0.1-0.5,0.3l1.6,3.4c0,0,0.6,0.4,0.3,0.7l-1.4,0.8c0,0-0.5,0.3-0.6-0.1
		c0,0-0.2-0.6,0.3-0.7l0.4-0.1c0,0,0.3,0,0-0.6l-0.4-0.9c0,0-0.1-0.3-0.4,0c0,0-0.6,0.6-0.8,0.2c0,0-0.5-0.4,0.1-0.7l0.5-0.3
		c0,0,0.3,0,0-0.4C83.7,100,83.2,99.2,83.2,99.1z"/>
	<path d="M87.5,97.3c0,0,0,0.6,0.5,0.2c0,0,0.3-0.4,0-0.8c0,0-0.3-0.9-1.8-0.2c-1.1,0.5-0.7,1.8-0.7,1.8s0.1,0.9,2,1
		c0,0,1.4-0.1,0.9,1.2c0,0-0.3,0.6-1.1,0.2c0,0-0.9-0.4-0.8,0.6c0,0,0.1,0.5,1.4,0.5c0,0,1.9-0.2,1.6-2.1c0,0-0.1-1.3-2.2-1.3
		c0,0-1.3,0-0.8-0.9C86.4,97.3,87.3,96.5,87.5,97.3z"/>
	<path d="M89,95.5c0,0-0.1-0.3-0.3,0c0,0-0.3,0.3-0.3,0.5c0,0-0.2,0.4-0.4,0.1l-0.2-0.4c0,0-0.2-0.3,0.2-0.5l1.6-1.3
		c0,0,0.3-0.4,0.6,0.1c0,0,0.4,0.3,0,0.6c0,0-0.5,0.1-0.6,0.3c0,0-0.2,0.1,0,0.3l1.9,2.7c0,0,0.2,0.3,0.6,0.4c0.4,0.2,0.1,0.4,0,0.6
		L91.7,99c0,0-0.5,0.4-0.6-0.1c0,0-0.2-0.7-0.4-0.9L89,95.5z"/>
	<path d="M91.3,94.8c0,0-0.4-0.3-0.6,0.1c0,0-0.5,0.5,0.2,0.7l2.6,1.2c0,0,0.2,0.3,0.4,0l0.3-0.3c0,0,0.2-0.1,0-0.7l-1.5-3.7
		c0,0-0.2-0.3-0.2-1c0,0,0-0.6-0.4-0.1l-0.5,0.5c0,0-0.4,0.5,0,0.7c0,0,0.3-0.1,0.5,0.5l1.2,2.9c0,0,0.1,0.2-0.1,0.1L91.3,94.8z"/>
	<path d="M97.4,91c0,0-1.5-1.8-2.6-1.8c0,0-0.9-0.1-1.5,0.7c0,0-0.2,0.4-0.4,0.4c0,0-0.4,0.4,0.2,0.7c0,0,0.7,0.3,2.6,2.6
		c0,0,0.2,0,0.3,0.7c0,0,0.1,0.8,0.6,0.2l1.2-1.5C97.7,92.9,98.3,91.9,97.4,91z M96.7,93.1l-2.5-2.4C93.6,90.5,94,90,94,90
		c0.4-0.4,1.2,0.2,1.2,0.2c0.8,0.5,1.6,1.6,1.6,1.6C97.3,92.5,96.7,93.1,96.7,93.1z"/>
	<path d="M95,87.6c0,0-0.4,0.4,0.2,0.6l3.4,2.6c0,0,0.3,0.4,0.5,0.1l0.3-0.3c0,0,0.3-0.4-0.1-0.6c0,0-0.3,0-1-0.6
		c0,0-1.9-1.6-2.3-1.8C95.9,87.7,95.4,86.9,95,87.6z"/>
	<path d="M99,82.4c0,0-0.9-0.5-1.1,0c0,0-0.3,0.3,0.3,0.8l0.8,0.8c0,0,0.3,0.3-0.2,0.2l-1-0.3c0,0-0.5-0.3-0.7,0.2
		c0,0-0.3,0.3,0.3,0.9c0,0,2.1,2.1,2.2,2.4c0,0-0.6-0.2-3-1.2c0,0-0.5-0.6-0.8,0.1c0,0-0.4,0.5,0.4,0.7l3.9,1.5c0,0,0.5,0.2,0.7-0.2
		c0,0,0.4-0.4-0.1-0.8L98.6,85c0,0-0.2-0.2,0.1-0.2l2,0.6c0,0,0.5,0,0.2-0.4l-1.6-1.7c0,0,3.1,0.6,3.1,1.1c0,0,0.4,0.4,0.5-0.1
		l0.2-0.4c0,0,0.3-0.6-0.4-0.6"/>
	<path d="M62.7,30.6c0,0.4-0.4,0.8-0.8,0.8c-0.5,0-0.8-0.3-0.8-0.8c0-0.4,0.3-0.8,0.8-0.8C62.3,29.9,62.7,30.2,62.7,30.6z"/>
	<path d="M74.6,30.3c0,0.4-0.4,0.8-0.8,0.8c-0.5,0-0.8-0.3-0.8-0.8c0-0.4,0.3-0.8,0.8-0.8C74.3,29.5,74.7,29.8,74.6,30.3z"/>
	<path d="M100.1,48.9c0,0.4-0.4,0.8-0.8,0.8c-0.5,0-0.8-0.3-0.8-0.8c0-0.4,0.3-0.8,0.8-0.8C99.8,48.1,100.1,48.4,100.1,48.9z"/>
	<path class="st0" d="M106.4,73.1l-0.2,0.1c0.3,2.2-0.3,4.4-1.3,6.3c-0.3,0.5-0.5,1-0.8,1.4L104,81l0.1,0.3c0,0.1,0,0.2,0,0.3
		c-0.1,0.3-0.2,0.6-0.4,0.9l0.2-0.2c0.2-0.3,0.3-0.5,0.3-0.8c0.1-0.2,0.1-0.4,0-0.6l0-0.1c0.3-0.4,0.6-0.9,0.9-1.4
		C106.1,77.5,106.8,75.3,106.4,73.1"/>
	<polyline class="st0" points="99.5,75.3 99.5,75.3 99.5,75.3 	"/>
	<path d="M98.8,80.4c-0.1-0.2-0.3-0.2-0.2,0.1c0,1,0.8,1.3,0.9,1.3c0.2,0.2,0.9,0,1.2,0.4l0.1-0.1l-0.5-0.6l0,0.3
		c0.1,0.1-0.3-0.4-0.6-0.4c-0.1,0-0.3,0-0.4-0.1L98.8,80.4"/>
	<path class="st0" d="M99.4,79.8c0.1,0.1,0.2,0.2,0.3,0.4c0,0.1,0.1,0.1,0.1,0.2c0-0.1-0.1-0.2-0.1-0.3C99.6,80,99.5,79.9,99.4,79.8
		 M99.2,78.4C99.2,78.4,99.2,78.4,99.2,78.4C99.2,78.4,99.2,78.4,99.2,78.4 M99.2,78.3C99.2,78.3,99.2,78.3,99.2,78.3
		C99.2,78.3,99.2,78.3,99.2,78.3"/>
	<path class="st0" d="M99.8,80.4c0.1,0.3,0.1,0.7,0,0.9l0,0C99.9,81,99.9,80.7,99.8,80.4 M99.2,78.4c-0.1,0.4-0.1,0.7-0.2,1.1
		c0,0,0.2,0.2,0.4,0.3c0,0,0-0.1-0.1-0.1C99.1,79.3,99.1,78.9,99.2,78.4 M99.2,78.4C99.2,78.4,99.2,78.4,99.2,78.4
		C99.2,78.4,99.2,78.4,99.2,78.4 M99.5,78.1l-0.2,0.1c0,0,0,0.1,0,0.1c0,0,0-0.1,0-0.1L99.5,78.1L99.5,78.1"/>
	<path class="st1" d="M99.5,78.1l-0.2,0.1c0,0,0,0.1,0,0.1c0,0,0,0,0,0c0,0,0,0,0,0.1c0,0,0,0,0,0c-0.1,0.4-0.1,0.9,0.2,1.3
		c0,0,0,0.1,0.1,0.1c0.1,0.1,0.2,0.2,0.2,0.2c0.1,0.1,0.1,0.2,0.1,0.3c0.1,0.3,0.1,0.6,0,0.9l0.2-0.1c0-0.1,0.1-0.3,0.1-0.4
		c0-0.4-0.2-0.8-0.5-1.1c-0.2-0.2-0.3-0.5-0.3-0.8C99.4,78.6,99.4,78.3,99.5,78.1"/>
	<path class="st1" d="M100.6,79.3l-0.2,0.1c-0.1,0.3-0.2,0.6-0.2,0.9l0.2-0.1C100.5,79.9,100.5,79.6,100.6,79.3"/>
	<path d="M100.8,78c-0.1-0.8,0.4-2,0.8-2.7c0,0.1-0.9,1.2-1,1.9c0,0.2,0,0.6,0,0.9L100.8,78"/>
	<path class="st0" d="M99.9,76.2C99.9,76.2,99.9,76.2,99.9,76.2C99.9,76.2,99.9,76.2,99.9,76.2C99.9,76.2,99.9,76.2,99.9,76.2
		 M101,74.6l-0.2,0.1c-0.4,0.4-0.8,1.3-0.9,1.4C100.2,75.6,100.6,75,101,74.6"/>
	<path class="st1" d="M100.8,78.4l-0.2,0.2c-0.2,0.1-0.3,0.3-0.3,0.5l0.1-0.1l0.1-0.1C100.5,78.8,100.6,78.6,100.8,78.4"/>
	<path d="M36.9,76.7c0.2,0.7,0.4,1.6-0.5,2.1c0,0,0.2,0.1,0.2,0.4c0,0,0,0.2,0.3,0.4c0,0,0-0.6,0.2-0.7c0.7-0.6,0.2-2,0.1-2.2
		C36.9,76.5,36.9,76.7,36.9,76.7z"/>
	<path d="M40.6,78.7c-0.1,0-0.7-0.2-0.6,0.4l0.4-0.1l0.2-0.2L40.6,78.7z"/>
	<path d="M39.5,80.2l0.2,0.1c0,0,0-0.5,0-0.7l-0.2,0l-0.1,0.2C39.5,79.8,39.3,80.1,39.5,80.2z"/>
	<path d="M38.3,81.3l0.3-0.3c0,0,0.2,0.1,0.4,0.1c0.1,0,0.4-0.5,0.5-0.7l-0.2,0.1C39.3,80.6,38.3,80.4,38.3,81.3z"/>
	<path d="M41.6,77.9c-0.1,0-0.3-0.1-0.5,0c-0.2,0.1-0.3,0.3-0.4,0.4c0.2,0.1,0.6-0.2,0.4-0.1C41.5,78.1,41.5,77.9,41.6,77.9z"/>
	<path d="M41.3,76.4c-0.1,0-0.1-0.1-0.3,0c-0.2,0.1-0.1,0.2-0.2,0.3c0.2,0,0.3,0,0.4-0.1L41.3,76.4z"/>
	<path d="M39.4,74.8c-0.2,0.3-0.9,0.1-1,0.2c-0.2,0.1-0.4,0.4-0.5,0.7l0.2,0c0.1-0.1,0.3-0.5,0.4-0.5c1,0.1,1.1-0.3,1.1-0.5
		L39.4,74.8z"/>
	<path d="M41.4,73.8c0,0.2,0,0.3-0.1,0.5l0.1-0.1l0.1-0.1c0-0.2,0-0.3,0.1-0.5l-0.1,0.1L41.4,73.8z"/>
	<path d="M41.8,75.1c0.1,0.2-0.1,0.4-0.2,0.5l0.2-0.1c0.1-0.1,0.3-0.3,0.2-0.5L41.8,75.1z"/>
	<path d="M107.6,67l-0.3,0c0,0.2,0,0.4,0,0.6c0,22.3-17.1,40.6-38.4,40.8c-0.2,0-0.3,0-0.5,0c-21.3,0-38.7-18-39-40.4
		c0-0.2,0-0.4,0-0.6c0-22.3,17.1-40.6,38.4-40.8c0.2,0,0.3,0,0.5,0c21.3,0,38.7,17.9,39,40.4L107.6,67l0.3,0
		C107.6,44.3,90,26.1,68.4,26.1c-0.2,0-0.3,0-0.5,0c-21.6,0.3-39,18.8-39,41.4c0,0.2,0,0.4,0,0.6c0.3,22.7,17.9,40.9,39.5,40.9
		c0.2,0,0.3,0,0.5,0c21.6-0.3,39-18.8,39-41.4c0-0.2,0-0.4,0-0.6L107.6,67"/>
	<path d="M33.9,79.2L33.9,79.2L33.9,79.2z"/>
	<path d="M107.6,71.6c-0.3,0.8-1.5,1.5-2.2,1.7c-0.6,0.2-1.2,0.4-1.9,0.5c-1.5,0.2-2.6,0.6-3.8,1.5c0,0-0.1,0-0.2,0
		c0.2-0.9,0.4-1.8,0.5-2.7c0.5-3.6,0.4-7.3-0.2-11c0,0-1.3-6.5-3.1-9.6c-2.7-4.8-5.6-9.3-10.8-12.7c-0.2-0.1,7.6,6,11.5,15
		c-0.1-0.2-1.2-1.1-2.2-0.3c-0.1,0.1-0.5,1,0.2,1.4l0.2,0l0,0c-0.1,0.2,0,0.4,0.1,0.5l0,0c-0.5,0.7-0.9,1.5-1.1,2.3
		c-0.1,0.5-0.1,1.1,0.3,1.4c0.4,0.4,1.7,0.5,1.7,0.5c0,0,0.6,6.2,0.6,8.6l-2.6,2.3c-0.1-0.2-0.1-1.5-0.1-2c0-3.1-0.2-6.2-1-9.3
		c-0.3-1.2-0.8-2.5-1.4-3.6c0,0,0.9,2.7,1.3,4.1c0.8,3,0.9,6.1,0.9,9.2c0,0.6,0.1,1.2,0.1,1.8c0,0.1,0,0.2,0.1,0.2
		c0.1-0.1,2.7-2.4,2.8-2.5c0.1,0.3,0.2,0.6,0.6,0.6c0.2,0,0.5,0,0.7-0.1c0.4-0.1,0.8-0.2,1.3,0.1c0,0.1,0,0.2,0,0.3
		c-0.4-0.2-0.9,0.3-1,0.2c0.5,0.3,0.7-0.1,1,0c0,0.2,0,0.4-0.1,0.6c-0.2-0.1-0.3-0.3-0.3-0.3s0.2,0.4,0.3,0.6c0,0.2-0.1,0.4-0.1,0.7
		c0,0-0.6-0.3-0.6-0.6l-0.2,0c-0.2,0.2,0.4,0.7,0.8,0.8c-0.1,0.4-0.1,0.7-0.1,1c-0.4,0.1-1,0.3-1.2,0.1c0.1,0,0.5-0.3,0.4-0.3
		c-0.3,0.1-0.8-0.3-0.8-0.3c0,0.2,0.1,0.3,0.1,0.5c-0.3-0.1-0.9-0.1-0.9-0.1c-0.2,0-0.4,0.1-0.5,0.2c-0.4,0.5-1.8,2-2,2.1
		c-0.1-0.1-0.1-0.3,0-0.4c0.4-1.3-0.1-2-0.1-1.9c0.1,0.8-0.2,1.5-0.6,3.2c-0.1,0.5,1.2-0.4,1.6-0.8c1.3-1.6,1.7-1.3,1.7-1.3
		c-0.2,1.7-0.5,3.4-0.9,5c-0.2,0.8-0.4,1.6-0.7,2.4c-0.1,0.2-0.2,0.5-0.2,0.7c0,0.6,0.8,0.4,1.3,0.2c-1.8,3.8-4.3,7.1-7.4,10
		c-0.7,0.7-1.4,1.3-2.1,1.8c-0.8-0.5,0.1-2.9,0.3-3.5c0.6-1.6,1.4-3.1,2.1-4.6c0.3-0.8,0.6-1.5,1-2.3c0.9-1.8,0.9-2.2,0.9-2.2
		c0.3,0,0.6-0.1,0.8-0.3c0,0.2-1,2.7-1.5,3.8c-0.5,1.1-0.9,2.1-1.4,3.1c-0.4,0.8-0.8,1.5-1.2,2.2c-0.5,1-0.9,2.2-1.1,3.4
		c0-0.1,0.2,0.2,0.2-0.1c0.2-2,1.5-3.5,2.3-5.3c1-2.1,2-4.3,2.6-6.5c0.1-0.4,0.3-0.9,0.3-1.3c0-0.2,0.2-0.3,0.3-0.5
		c0.2-0.3,0.4-0.6,0.4-1L93,79.3c0,0.3-0.2,0.6-0.3,0.8c-0.1,0.1-0.4,0.4-0.4,0.5c0,0.2,0,0.3,0,0.5c0,0-0.7,0.4-1,0.3
		c-0.2-0.1-0.2-0.2-0.4-0.3c-0.4-0.3-1.1-0.1-1.5,0.2c-0.6,0.4-1.7,1.3-1.8,0.6c0.3,0.1,0.6-0.2,1.1-0.6c0.9-0.8,2.6-1,2.6-1
		c0-0.1,0.5-0.3,0.5-0.3c-0.6-0.1-2.2,0.4-3.8,1.5c0.5-0.5,0.8-0.9,1-1.5c-0.1,0.1,1.7-1,2.4-1.7c0.4-0.4,0.4,0,0.6-0.6
		c0.8-1.7,1.2-4.2,1.4-6c0.2-2.4,0.3-5-0.1-7.4c-0.4-2.7-1.1-5.4-2.2-7.9c0.1,0,0.2-0.1,0.3-0.2c0.1-0.1,0.2-0.4,0-0.3
		c-1.6,0.7-4.4,0.8-5,0.7c-0.4,0-0.8-0.1-1.1-0.4c-0.1-0.1-0.8-1.8-0.8-2.1c3.8,0.4,5.3-1,5.6-1.8c0.2-0.5-1.1-2.8-1.4-3l0,0
		c-1.8-5.9,0.7-6,0.8-6c-0.2,0-3.1-0.4-1.4,5.1c-1.4-2.2-3-3.7-3-3.7c0.3,0.5,0.3,0.5,0.4,0.7c-0.8-0.4-2.6-1-2.6-1
		c-0.1-0.2-0.2-0.4-0.3-0.6c1.8,0.8,2.2,0.2,2.3,0.2c-0.5,0.1-2.2-0.5-2.6-0.9c-0.2-0.6-0.7-1.7-0.7-1.7c0.3,1,0.5,2.1,1,3
		c-0.1,0-0.2,0-0.3-0.1c-0.2-0.1-0.8-0.8-1-0.9c-0.1-0.1,0.1,0.5,0,0.4c-0.1,0-0.8-0.9-0.9-1c-0.1-0.1,0.1,0.6-0.1,0.5
		c-0.5-0.2-1.7-0.7-1.7-1.5c0.2,0,0.3-0.6,0.4-1c0.4-0.2,0.7-1.3,0.7-1.5l-0.1-0.1c0,0-0.3,0.5-0.4,0.6c0-0.2,0-0.4-0.1-0.6
		c-0.2-0.3-1.4-0.6-1.6-0.7l-0.3,0c0,0,0.8,0.3,1.2,0.5c0.7,0.4,0.3,1.4,0.3,1.5c-0.2-0.3-0.4-0.5-0.7-0.7c-0.2-0.1-0.4-0.3-0.6-0.4
		c-0.1,0-0.1,0.1-0.1,0.1c0.2,0.2,0.7,0.6,0.7,0.6c0.2,0.2,0.4,0.5,0.5,0.8c0,0-0.1,0.3-0.1,0.5c-0.2-0.3-0.4-0.7-0.6-1
		c-0.2-0.2-0.8-0.8-1.7-1.2c-1-0.4-2.3-1.8-2.7-2.4c0.5,0.9,1.2,2,2.1,2.4c0.5,0.3,1.3,0.7,1.3,0.7c-0.2,0.8-1.1,1.4-1.5,1.3
		c0.4,0.1,0.9-0.1,1.2-0.3c0.2-0.2,0.4-0.5,0.6-0.8c0.6,0.5,1.1,1.6,1.1,1.6c-0.1,0.3,0.3,0.8,0.5,1c0.8,0.7,1.8,1.1,2.8,1.4
		c0.7,0.3,3.5,1.2,4.1,1.4c0,0.1,2.2,2.8,2.9,4.4c0.2,0.4,1,2.5,0.9,2.6C88,54,84.7,54,84.7,54s-0.4-0.8-0.6-0.7c0,0-0.6-1-0.7-0.9
		c0,0,0.7,1.3,0.5,2.6c0,0,0.1,0.8,0.3,0.4c0,0,0-0.8,0.3-0.3c0.1,0.2,0.3,0.8,0.4,0.9c0.1,0.4,0.7,0.8,0.8,0.8
		c0.2,0.9,0.6,1.9,1.1,2.7c0.1,0.4,1.1,2.5,1.4,3.1c0.3,0.6,0.3,1.3,0.4,2c0.2,1.1,0.7,6.8,0.7,6.8c0,1.5-0.2,3-0.6,4.4
		c-0.2,0.7-1,2.5-3.4,3.1c-0.4,0.1-0.8,0.1-1.2,0.1c0.8-0.5,1.4-1.3,1.7-2.2c0,0.1-1.4,2-2.5,2.3c0.4-0.3,0.9-0.9,1.5-1.8
		c0.2-0.3,0.4-0.7,0.5-1c0.3-0.6,0.2-1.6,0.1-1.7c0.2,0.3,0.4,0.7,0.4,1.1c0,0,0.2,0.3,0.2-0.1c0-0.6-0.5-1.4-0.8-1.9
		c-0.3-0.4-0.7-0.9-1-1.3c-0.7-0.8-1.7-1.4-2.7-1.6c-0.2,0-1.2-0.8-1.6-0.9c-0.5-0.2-1.1-0.4-1.6-0.5c-0.2,0-0.2-0.1-0.4-0.2
		c-0.9-0.6-2.4,0-2.4,0C74.8,68.8,73,68,73,67.9c0.2-0.8,0.5-1.5,0.9-2.2c0.3-0.7,1.2-2.2,1.3-2.3c0,0-0.7-1.3-0.8-2.3
		c0.6-0.1,1.2-0.4,1.7-0.8c-0.1,0.1-2.7,1.4-4-0.5l-0.3-0.2c-0.1-0.1-0.2-0.2-0.2-0.4c0-0.2,0-0.4,0-0.6c0-0.1,0.4-1.9,0.5-2.3
		c0.1-0.9-0.5-1.8-1.1-2.3c0,0,0.7,0.7,0.9,1.6c-1,0.2-1.9,0.9-2.9,1.3c-1.2,0.5-1.8,0.9-3,1.3c-0.7,0.3-3.9,1.1-6.4,0.4
		c0,0-0.8,0.1-1.3-0.4C58,58.1,58,57.6,58,57.2c0-0.5,0.8-2.5,1.1-3.3c1.1-2.5,2.8-4.7,4.5-6.8c0.3-0.3,0.9-1.4,1-1.5
		c0.7-0.6,1.9-1.3,1.8-1.3c0.9-0.7,1.5-0.8,2.8-1c0,0,0.2,0.7,0.5,0.8c1.4,0.1,2.4,0.5,2.8,0.8l0,0c0.4,0.5,0.7,2.5,0.7,2.8
		c0,0.1-0.2,0.5-0.5,0c0.1-0.2-0.1-1.7-0.8-2.4c-0.1-0.1-0.5-0.3-1-0.5c0.5,0.2,0.9,0.7,1,1c0.2,0.4,0.5,1,0.6,1.8
		c0,0.1-0.4,0.9-0.8-0.6c-0.1-0.5-0.5-1.2-1.1-1.3c-0.3,0-1.2-0.4-2.7,0.5c0.5-0.3,3.1-1,3.4,0.8C71,47,70.6,47,70.1,47
		c-0.6,0-1.2-0.1-1.9,0c-0.5,0.1-1,0.1-1.3,0.9c-0.5,1-0.9,1.9-1.4,2.9c-0.1,0.3-0.3,0.6-0.4,1c-0.2,0.5-1,2-1.1,2.3
		c-0.4,0.6-0.7,1.2-1.1,1.7l0.2,0c0.6-0.8,1.3-2,1.3-2c0.8-0.4,2.2-1.4,2.8-2.1c1.3-1.6,2.7-2.7,4.5-4c-0.1,0,0.3,0.3,0.6,0.3
		l0.2-0.1c0,0,0.8,0.8,0.9-0.3c0-0.6-0.3-2-0.5-2.3c0.1,0.1,0.6,0.5,0.7,2.5c0,0,0.4,0.2,0.6,0.8c0,0,0.1-0.6-0.3-0.9
		c-0.2-0.1-0.1-0.3-0.1-0.5c0-0.5-0.1-1.1-0.3-1.6c-0.4-0.8-1.2-1.3-2-1.6c-0.3-0.1-1-0.2-1.5-0.3c-0.4,0-0.5-0.3-0.5-0.7
		c0-0.2,0.3-0.2,0.2-0.4c0-0.2-0.2-0.5-0.2-0.8h0c0.2,0,0.3,0.1,0.5,0.1c0.1,0,0.3,0.1,0.4,0.1c0,0,0.1,0,0.1-0.1
		c0.1-0.1-0.3-0.3-0.5-0.3c-0.2-0.1-0.4-0.1-0.5-0.2c-0.2-0.2-0.1-0.6,0-0.8l0.3,0.2c0.5,0.2,0.7-0.3,0.8-0.4c-0.5,0.6-1,0-1,0
		c0,0-0.1,0-0.3,0.2c-0.6,0.1-0.5-0.5-0.4-0.8c0.2-0.7,0.5-1.3,0.7-1.9c0.1-0.3,0-0.7,0-1c0-0.8,0.7-2.2,0.8-2.3
		c0.1-0.1,0.2-0.2,0.3-0.2c0.1,0,0.5-0.1,0.4-0.3l-0.8-0.1L70,34.5l0,0c0.1,0,0.2,0,0.4,0.1c-0.1,0.1-0.7,1.4-0.9,1.8
		c0-0.5,0.2-1.6,0.2-1.7c0-0.1-0.1-0.2-0.1-0.4c-0.1-0.2,0.2-0.4,0.4-0.5c1-0.7,2.1-1.1,3.3-1.3c3.2-0.5,5.5,0.7,6.2,1.3
		c1.1,0.9,1.7,2.2,1.8,3.6C81,38,80.7,39,80.4,39.6c-1,2.3,0.4,2.8,0.4,2.8c-0.6-0.4-0.4-2-0.2-2.9c0.2-0.6,0.4-1.2,0.6-1.8
		c0,0-0.1,1.4,0,2.1c0.1,0.8,0,2.4,2.4,2.7c0.3,0.1-0.2-0.9-0.2-0.9c-0.3-0.8-0.7-0.7-0.7-0.7c-0.7-0.1-1.1-0.4-1.2-0.5
		c-0.1-0.3-0.1-0.6-0.1-0.9c0.2-0.1,1.1,0.4,1.1,0.4c0.9,0.4,0.4-0.6,0.4-0.6c0-0.7-0.5-0.5-0.5-0.5c-0.4,0-0.9-0.3-1-0.5
		c0-0.3,0-0.7,0-1c0.2-0.1,0.7,0.2,0.7,0.2c0.6,0.4,0.4-0.3,0.4-0.3c0-0.5-0.7-0.5-0.7-0.5c-0.3,0-0.5-0.2-0.6-0.3
		c-0.1-0.2-0.1-0.4-0.2-0.6c0.6,0.3,1.1,0.3,1.4,0.1c0,0,0.8-0.4,1.4-2c0.2-0.4,0.7-1.6,0.7-1.7c0-0.1,0.6-0.1,0.5-0.4
		c0-0.1-0.7-0.4-0.7-0.4c-0.4-0.2-0.5-0.1-0.5-0.1l0,0c-0.1,0.1,0,0.2,0,0.4c0.1,0.3-0.7,2.3-1.1,2.9c-0.2,0.3-0.4,0.6-0.8,0.5
		c-0.3-0.1-0.8-0.3-0.7-0.7c0.2-0.5,0.9-2.3,1-2.7c0.2-0.6,0.4-0.7,0.4-0.7h0c0.4-0.2-0.3-0.4-0.5-0.5c-0.3-0.1-0.6-0.3-0.8-0.4
		c-0.2-0.1-0.4,0-0.4,0c-0.1,0.1,0,0.4,0,0.5c0,0.2-0.4,1.3-0.6,1.8c-0.2,0.5-0.6,1.6-0.6,1.6c-0.3-0.2-0.6-0.5-0.9-0.6l0.1-0.1
		c0.3-0.5,0.1-1.3-0.3-1.6c0.8-0.2,1-1.3,0.6-2c-0.4-0.7-1.3-0.7-2-0.9c-0.3-0.1-0.6-0.1-0.8-0.2c-0.1,0-0.5-0.2-0.5,0l0,0l0,0.2
		c0.2,0.4,0.1,0.7,0,1.1c-0.2,0.8-0.4,1.5-0.6,2.3c-1.1-0.1-2.1,0-3.1,0.3c-0.1-0.1,0.1-0.7,0.1-0.9c0-0.1,0.1-0.4,0-0.4
		c-0.2-0.1-0.6,0.5-0.8,0.6c-0.3,0.3-0.6,0.5-0.9,0.6c-0.2,0.1-0.6,0.2-0.6-0.1c0-0.2,0-1.5,0-1.9c0.4-0.1,0.7,0,0.9,0.4
		c0,0.1,0.3,0,0.4-0.1c0.1-0.1,0.1-1,0-1.2c0-0.1-0.4,0.1-0.4,0.1c-0.2,0.1-0.8,0.1-0.9-0.1c0-0.5,0-0.9,0-1.4c0.2,0,0.4,0,0.5,0
		c0.3,0,0.6,0.2,0.9,0.4c0.2,0.2,0.3,0.4,0.5,0.3c0,0,0.3-0.1,0.1-0.6c-0.1-0.2-0.1-0.5-0.2-0.6c-0.1-0.1-1.9-0.2-2.2-0.2
		c-0.3,0-1-0.2-1.3,0.1c-0.1,0.1,0,0.2,0.1,0.3c0.2,0.2,0.2,0.4,0.2,0.7c0,0.4,0.1,3,0.1,3.1c0,0.2-0.2,0.9-0.3,1.3
		c-0.1,0.2,2.2,0,2.6,0c-0.3,0.2-0.7,0.3-1,0.5c-0.3,0.2-0.9,0.4-0.9,1c0,0.2,0.2,0.4,0.1,0.6c0,0.3-0.1,0.6-0.2,0.9
		c0,0.4,0,0.9,0,1.3c-0.1,0.3,0,0.7,0,1c0,0.2-0.4,1.2-0.5,1.4c-0.1,0.4-0.4,0.9-0.2,1.2c0.2,0.3,0.7,0.2,0.7,0.2c0,0-0.4,0.7,0,0.9
		c-0.1,0.2-0.2,0.8-0.1,1c-0.6,0.1-1.2,0.2-1.8,0.4c-0.5,0.2-1.1,0.6-1.5,0.9c-0.1,0.1-1.3,0.5-2.3,2.5c-0.1,0.1-0.6,0.8-0.8,1.1
		c-1.9,2.4-3.7,5-4.7,7.9c-0.3,0.8-0.7,2.1-0.2,2.8c-1.8-0.1-3.6-0.1-5.3-0.2c-1,0-1.9,0-2.9,0c-0.6,0-1.2,0.3-1.2,0.3
		c0.9-0.1,1.8-0.1,2.7-0.1c1,0,6.3,0.2,6.5,0.2c0.3,0,0.5,0,0.5,0c0.4,0.4,1,0.3,1.4,0.4c1,0.3,2.1,0.3,3.1,0.3
		c1-0.1,1.9-0.1,2.6-0.2c1.7,0,3.5,0.2,4.9-0.1c-1.3,0-2.6,0-3.9-0.1c0.1,0,4.9-2.3,5.6-2.5c0,0.1,0,0.3-0.1,0.5
		c-0.1,0.5-0.3,1.7-0.4,1.9c0,0.2-0.1,0.3-0.1,0.5c0,0.5,0.5,0.6,0.7,0.9c0.8,1,1.7,1.1,2.1,1.1c0,0.5,0.7,2.2,0.8,2.4
		c0,0-1.5,2.3-2.1,4.2c-0.1,0-0.7-0.2-0.7-0.3c-0.1-0.5-0.4-1.1-0.7-1.5c-0.2-0.3-0.5-0.6-0.8-0.7c-0.3,0-0.5-0.1-0.8-0.1
		c-2.1-0.2-4.1-0.4-6.2-0.6c-0.8-0.1-1.8-0.2-2.6-0.3l-0.2,0.2c0.3,0.4,0.6,0.8,1,1.2c-0.6,0-1.1,0-1.7,0l-0.1,0.1l0,0
		c0.2,0.2,0.4,0.5,0.7,0.7c-0.9,0.1-1.6,0.2-2,1.1c0,0.1-0.4,0.9-1.1,1.5c-0.3,0.3-0.7,0.6-0.7,1.2c0,0.2,0.2,0.3,0.5,0.2l0,0l0,0
		c-0.1,0.1-2.1,1.9-2.5,3.8c-0.3,1.2,0.3,3.7,0.4,4.2c0.1,0.6,0.6,4.5,0.5,6c0,0.1,0.2,4.2,0.3,4.9c0,0.5,0.3,0.5,0.3,0.5
		c0.5,0.1,1,0.2,1.4,0.5c0.2,0.1,0.4,0.2,0.5,0.5c0.1,0.2,0,0.4,0.1,0.6c0.2,0.8,1.4,0.3,1.9,0.3c0.9-0.1,1.8,0.2,2.6,0.3
		c0.2,0,1.5-0.1,1.8,0.1c0.1,0.1,0.2,0.2,0.2,0.3c0.4,0.3,1-0.1,1.1-0.2c0.2-0.2,0.8-1,0.9-1.1c0,0.4,0.5,1,0.4,1.2
		c0,0-1.2,1.2-1.3,1.7c0,0.2-0.1,0.4-0.1,0.6c-3.3-0.2-12-0.4-12.9-0.5c-0.5,0-0.2,0.3-0.2,0.3c3.3,0.2,11.8,0.3,13.1,0.3
		c0,0-0.2,0.5-0.1,0.9c0,0.1-1.3,1.3-1.5,2.7c-0.1,0.5,0.3,0.5,0.4,0.5c-0.1,0-0.9,0.6-2.5,0.9c-6.1-1.3-11.6-4.6-16-9.2
		c-2.3-2.4-4.3-5.3-5.7-8.3c-0.1,0.1-0.9,0.8-1.7,1.1c0-0.3-0.2-0.6,0.2-0.7c0.3-0.1,0.3-0.6,0.3-0.7c0.1-0.1,0.5-0.4,0.7-0.5l0,0
		c0.2-0.1,0.8-0.9,1.1-1.2c0.2-0.2,0.4-0.6,0.4-0.9c0-0.3,0.1-0.3,0.5-0.4c0.4-0.1,0.6-0.7,0.6-0.9c0-0.2-0.2-0.5-0.2-0.7
		c-0.1-0.5-0.1-1.1,0.1-1.3c0.2-0.4,0.7-0.7,0-1.5c-0.2-0.2-0.1-0.7-0.1-1c0-0.5-0.3-1.2-1.8,0c-0.1,0.1-0.2-0.1-0.4-0.1
		c-0.1,0-0.5,0-0.9,0.7c-0.1,0.2-0.3,0.3-0.5,0.2c-0.2-0.1-0.4,0.1-0.5,0.2c-0.2,0.1-0.4,0.1-0.6,0.2c-0.1-0.3-0.1-0.6-0.2-1
		c-1.3-7-0.5-14.3,2.5-20.8c2-4.2,4.3-8.1,7.8-11.1l-0.2,0.1c-5.3,4.6-8.6,11-10.2,18c-1.1,5-1.2,10.4-0.1,15.4l0,0.1
		c0.3-0.1,1.1-0.9,1.1-0.9c1.1,0.1,1-0.4,1.2-0.7c0.1-0.2,0.3-0.4,0.6-0.3c0.2,0,0.3,0,0.6-0.1c0.3-0.1,0.8-0.5,1.1-0.4
		c0.3,0,0.2,0.3,0.1,0.8c-0.1,0.3,0,0.5,0.2,0.7c0.4,0.2,0.3,0.5,0.1,0.9c-0.1,0.2-0.3,0.4-0.4,0.6c-0.1,0.3,0.1,0.6,0.1,1.1
		c0,0.1,0.2,0.7,0.2,0.8c0,0.3-0.5,0.6-0.9,0.5c-0.1,0-0.2,0.3-0.2,0.4c0,0.2,0,0.4-0.1,0.7c-0.1,0.3-0.5,0.6-0.8,0.8
		c-0.2,0.2-0.3,0.4-0.4,0.7c0,0.1-0.5,0.3-0.8,0.4c-0.5,0.1-0.3,0.8-0.3,0.9c0,0.1-0.3,0.2-0.4,0.3c-0.2,0.1-0.3,0.6-0.4,0.9
		c-0.1,0-0.2,0-0.3,0c-0.1-0.8,0.2-1.7,0.5-2.5c0.3-1,0.8-2.1,1.2-3c0.6-1.2,1.2-2.4,1.9-3.6c0,0.1-0.1-0.1-0.3,0.1
		c-0.7,1.2-3.3,5.8-3.4,6.5c0,0.1-0.3,0.1-0.4,0.1c-0.1-0.3-0.1-0.5,0-0.8c0,0.1-0.6,0.4-0.1,1.2c0,0.3-0.2,1.1,0.2,1.4
		c0.1,0.2,0.2,0.8-0.2,0.8c-0.3-0.4-0.6-1-0.6-1.4c0-0.2,0.2-0.3,0-0.6c-0.1-0.3-0.3-0.5-0.2-0.8c0.1-0.1,0.4-0.9,0.2-1.1
		c-0.6-0.6-0.3-1.1-0.1-1.6c0.1-0.2,0.6-0.3,0.4-0.9c-0.1-0.2-0.1-0.3-0.1-0.5c-0.1-0.5,0.3-0.9,0.7-1.2c-0.2-0.3-0.7-0.6-1-0.8
		c-1-0.5-2.1-0.7-3.2-0.8c-1.3-0.2-2.8-0.8-3.5-1.9l0.1,0.8c0.4,0.6,0.8,0.8,1.4,1.1c0.4,0.2,0.8,0.4,1.3,0.5
		c-0.4,0.2-0.8,0.4-0.7,0.9c0,0.1,0.1,0.7,0.1,0.8c0,0.4-0.1,0.6-0.2,1c-0.2,0.4,0.2,1,0.4,1.4c0,0-0.1,0.4-0.1,0.6
		c-0.1,0.9,0.9,2,1.5,2.4c0.2,0.4,0.5,0.7,0.8,1c0.2,0.1,0.6,0.3,0.5,0.6c-1.1-0.5-2.1-1.2-2.9-2.1l-0.1,0.5c4,4.8,8.1,1.7,8.4,1.4
		c2.5,4.9,6.1,9,10.5,12.1c3.4,2.3,7,4.2,11,5.1c0.1,0.5,0.4,1.1,0.9,1.2c0.3,0.1,0.6-0.1,0.6-0.1c0.2,1.3,2.2-0.3,2.4-0.6
		c-0.1,0.1-2.1,1.2-2.2,0.6c0-0.2,0.1-0.3,0.2-0.4c0.3-0.2,0.9-0.6,0.9-0.7c-0.9,0.5-1.4,0.8-1.4,0.8c-0.4,0.1-0.7,0-0.9-0.3
		c-0.1-0.2,0-0.6,0-0.6c0.4-0.1,0.8-0.2,1.2-0.3c1.9-0.5,4.2-2.6,4.4-3.4c2.1-0.9,4.9-1.2,5-1.4c-1.6,0-3.7,0.4-6.3,1.6
		c-0.8,0.4-1.5,0.8-1.3,1.1c0.2,0.3,0.5-0.1,0.5-0.1c0.2-0.4,1.6-1,1.6-1c0,0.1-0.8,1.1-1.7,1.8c-0.1,0-0.5,0.5-0.8,0.1
		c-0.4-0.5,1-2.4,1.2-2.5c0.2-0.2,0.2-0.2,0.2-0.5c0-0.2,0.2-0.7,0.3-0.8c0.1-0.2,0.2-0.4,0.3-0.7c0.2-0.4,0.4-0.8,0.7-1.2
		c0.4-0.4,0.4-0.8,0.4-1C67.3,91.4,67,91,67,90.5c-0.1-0.3-0.4,0-0.5,0.2c-0.2,0.3-0.8,1.3-1.2,1.5c-0.1,0-0.2-0.1-0.3-0.2
		c-0.1-0.1,0.1-0.2,0.1-0.3l-1.2,0c-0.2,0-0.9,0.1-1.7-0.1c-0.6-0.2-1.1-0.2-1.7-0.3c-0.5-0.1-0.9,0-1.4,0.1c-0.1,0-0.6,0.1-0.6-0.8
		c0-0.3-0.5-0.5-0.7-0.6c-0.4-0.2-1.3-0.3-1.2-0.3h0c-0.2,0-0.2-0.4-0.3-0.6c-0.1-0.5-0.2-3.4-0.1-4.4c0.2-2.1-0.3-4.2-0.6-6.4
		c-0.1-1-0.4-2-0.4-3c0.1-3.3,3.2-5,3.3-5c0.9,0,2.7,0,2.8,0c-0.4,0.1-4.4,1.6-3.8,5.1c0.3,1.5,1,3,1.8,4.3c0.9,1.4,3.2,3.9,3.2,3.9
		c-1.4-1.7-2.9-4.2-3.5-5.4c-2.5-4.6-0.1-5.9,0.6-6.5c1-0.9,3-1.3,3.1-1.4C62.7,71.3,64,71,64,71c0.2,0.2,3.9,4.3,4,4.3
		c2.2,0.1,1.2,0.1,5.9,0.3c0.4,0,5.2,0.1,5.5-0.3c0.2-0.3,0-1-0.1-1.3c-0.2-0.6-0.6-1.1-1-1.6c-0.3-0.5-0.7-0.9-1.1-1.3
		c0.7,0.4,1.3,1.3,1.8,1.9l0-0.2c-1-2-2.3-2.3-2.3-2.3h0c-0.2-0.2-0.4-0.4-0.5-0.6c-0.2-0.2-0.4-0.4-0.6-0.5c1-0.5,2,0,2.1,0
		c0.5,0,1.1,0.2,1.6,0.4c0.4,0.2,1.5,0.9,1.7,1c0.9,0.3,1.8,0.8,2.5,1.6c0.4,0.4,0.8,0.8,1.1,1.2c0.6,1.1,0.4,2.3-0.3,3.3
		c-0.3,0.3-1.5,2.4-3.4,2.1c-0.6,0-1.3,0-1.9,0c-2.1,0-8.1-0.5-9-0.7c-0.9-0.2-1.6-0.6-2.2-1.4c-0.6-0.7-1.3-1.3-1.9-2.1
		c-0.8-1-1.9-1.9-1.9-2c0,0,1.4,1.8,1.8,2.2c0.5,0.6,1.8,2.5,2.6,3l0,0.3c-0.1-0.1-2-0.6-3.4-2.9c-0.1-0.1-0.2-0.1-0.1,0.1l0.6,0.9
		l-1-0.7c0,0-0.9-0.3-0.8,0.3c0.1,0.6,2.6,1.2,3.5,1.9c-0.2,0-2.3-0.8-3.3-0.3c-0.7,0.3-3.6-0.1-3.7-0.1c2.3,1,3.5,0.5,5.3,0.4
		c0.5,0,0.9,0.2,1.4,0.3c0.1,0,0.5,0,0.6-0.1c0.1,0.1,0.4,0.2,0.5,0.3l0,0l0,0l0,0c1,1.2,1.7,2.9,1.5,4.5c-0.2,1.4-1.6,2.3-2.9,2.5
		c0,0,1.8,0.4,2.8-1c1-1.5,0.2-3.9,0.2-4c0.9,0.9,1.3,2.2,1.1,3.5c-0.1,0.9-0.3,1.8-0.7,2.6c-0.1,0.2-0.2,0.4-0.3,0.5l-0.2,0.2
		c0,0,1.2-0.7,1.5-3.5c0,0.1,0,0.3,0,0.4c0.1,1.2,0,3,0.4,3.6c0,0-0.2-1.8,0-3.2c0.2,0.2,1.5,1.5,1.5,1.7c0.2,0.5-1.1,2.2-1.1,2.6
		c0,0.2,0.3,1.8,0.4,2.4c0.2,1,0.4,2,0.8,3c0.3,0.8,1,1.5,1.1,2.4c0.2,0.8-0.1,1.7-0.8,2.2c-0.1,0.1-3.2,1.8-3.3,2
		c-0.8,0.7-2.2,0.9-2.2,0.9c0,0-0.6,0.5-1,0.4c-0.6-0.1,0.1-0.7,0.3-0.9l0,0c0,0-1,0.8-1.5,0.7c-0.4-0.1-0.4-0.3-0.1-0.5
		c0.4-0.3,0.8-0.7,0.8-0.7c0,0-1.1,0.7-1.4,0.8c-0.6,0.2-0.7-0.3-0.7-0.3c-0.1,0.1,0,0.7,0.7,0.5c0.2,0.5,0.8,0.4,1.3,0.1
		c-0.1,1.1,1.7,0.1,1.8,0.1c1.3-0.1,2-0.8,2.3-1.1l2.5-0.4c0.2,0.3,0.7,0.1,0.8,0.1c0,0.4,0.5,0.5,0.7,0.6c1.1,0.4,2.1-0.8,2.6-1.6
		l0.1-0.1c5.7-1.7,11.1-5.3,15-9.8c3.5-4,6-8.9,7.3-14.1c0.2-0.2,0.5-0.3,0.6-0.4c-0.1,0.2-0.1,0.3-0.3,0.7
		c-0.1,0.3,0.1,0.1,0.1,0.1c0.4-0.5,2-1.8,2.1-1.9c-0.2,0.4,0.1,1.4,0.1,2c-0.1,0.8-0.3,1.5-0.6,2.3c0,0,0,0-0.8,2.2
		c-0.2,0.6,0.5,1.4,0.5,1.4c0,0,0.1-0.9,0.4-1.1c0,0-0.1-0.2,0-0.5c0-0.2,1.9-4.7,3-6.4c0.6-0.7,1-0.8,1.5-1.1
		c0.3,2.2-0.4,4.3-1.4,6.2c-0.3,0.5-0.7,0.9-1,1.3l-0.3,0c0-0.2,0.2-0.4,0.3-0.6c-0.1,0.1-0.4,0.1-0.5,0.5l-0.1,0
		c0.2-0.4,0.5-1.4,0.8-1.9c0.4-0.6,0.7-1.1,1-1.7c0.3-0.8,0.6-1.9,0.9-2.7c0,0.1-0.1-0.2-0.3,0.2c-0.4,0.9-1.2,1.8-1.4,2.8
		c0-0.1,0.2,0.2,0.2-0.1c0.2-0.7,0.3-0.5,0.4-0.4c-0.1,0.1-0.1,0.2-0.2,0.4c-0.1,0.3-0.4,0.9-0.6,1.2c-0.2,0.3-0.8,1.3-1,1.6
		c-0.2,0.3-0.2,0.6-0.4,0.8c-0.3,0.6-1,1.2-1.1,1.9c0,0,0.1,0,0.2-0.1c0.4-0.6,0.7-1.2,1.2-1.5v0c0.3,0,0.6,0.1,0.8,0.2
		c0,0,0.4,0.4-0.5,1.3c-0.3,0-0.6-0.1-0.8-0.1c-0.6-0.1-0.5,0.3-0.5,0.3c1.1,0.2,2.4,0.3,3.2-0.7l-0.1-0.2c-0.3,0.5-0.8,0.7-1.3,0.8
		c0.2-0.2,0.4-0.6,0.5-0.8c0.1-0.2-0.1-0.4,0-0.6c0.1-0.2,0.5-1,0.8-1.5c1-1.9,1.6-4.2,1.2-6.4c0.5-0.2,0.9-0.5,1.1-1L107.6,71.6z
		 M95.5,59.4l0.3-0.2l0.2,0.2c0.2,0.6,0.4,0.4,0.5,0.6c-0.5,0-2-0.1-1.7-1.8c0.2-0.8,1-2.1,1-2.1c0.2,0,0.4-0.1,0.6-0.1
		c0.2,0,0.5-0.1,0.7,0.2c0,0-0.1-0.5-1-0.3c-0.1,0-0.4,0.1-0.3-0.3c0.1,0,0.3,0,0.4-0.2c0.3-0.6,0.7-0.2,0.7-0.2
		c-0.2-0.3-0.3-0.4-0.6-0.3c-0.2,0.1-0.2,0.4-0.5,0.4c-0.5,0.1-0.7-0.6-0.4-1.1c0.3-0.5,1.2-0.2,1.5,0c0.2,0.2,0.4,0.3,0.6,0.5
		c0.4,1,1.6,4.7,1.9,6.7l-0.2,0.1c-0.4-1.4-1.4-2.7-2.8-3.2c0.7,0.4,2.3,1.9,2.5,3.3c-0.1-0.3-2.3-3.5-3.7-2.7
		C95.1,59.2,95.5,59.4,95.5,59.4z M98.8,69.4c-0.2,0-1.3,0.4-1.4-0.5c0-2.5-0.6-8.9-0.7-9.6c0.2,0.1,0.4,0.3,0.6,0.5
		c0.4,0.3,0.8,0.7,1.1,1.2c0.1,1.1,0.3,2.7,0.4,3.8C98.9,65.8,99.1,67.5,98.8,69.4z M99.3,69.3c0.2-1.5-0.3-7.1-0.2-7
		c0,0,0.4-0.2,0.7,0c0.3,2.3,0.4,4.7,0.3,7C99.7,69.3,99.5,69.3,99.3,69.3z M96.3,74.2l0.2-0.1L96.3,74.2z M71.7,47.5
		c-1.8,0.9-3.4,2.7-4.7,4.3c-0.5,0.7-1.3,1-2.1,1.3c0.1-0.1,2.3-5.3,2.5-5.5c0,0,0.5-0.3,1-0.3c0.6,0,1.2,0,1.8,0
		c0.4,0,0.9-0.2,1.4,0l0,0L71.7,47.5L71.7,47.5z M83.3,41.8c0,0,0.3,0.9-0.5,0.3c0,0-0.5,0.1-0.7-0.9C82.2,41.2,83.2,41.3,83.3,41.8
		z M81.8,39c0.1,0,0.7,0.2,0.7,0.2c0.6,0.1,0.4,0.4,0.4,0.4c-0.2,0.2-0.9-0.2-0.9-0.2C81.5,39.3,81.8,39,81.8,39z M82.8,31L82.8,31
		L82.8,31L82.8,31z M82.7,31L82.7,31L82.7,31L82.7,31z M77.6,29.4 M77.3,30.5c0.1-0.3,0.1-0.6,0.2-0.9l0,0l0,0l0.1-0.1
		c0.3-0.1,0.7,0.2,0.8,0.4c0.2,0.5,0,1.2-0.6,1.3c-0.2,0-0.5,0-0.6-0.2L77.3,30.5z M77,31.6L77,31.6l0.1-0.1c0.2,0,0.6,0.1,0.8,0.2
		c0.3,0.2,0.1,0.7,0,1.1c-0.3-0.1-0.6-0.2-0.9-0.3C76.9,32.2,77,31.7,77,31.6L77,31.6z M72.1,31.4c-0.1,0.1-0.1,0.2-0.2,0.3
		C71.9,31.6,72,31.5,72.1,31.4z M35.6,75c0.1,0.1,0.3,0.1,0.4,0.2c0.2,0.1,0.6,0.2,0.8,0.4c0,0-1.1-0.2-0.5,1.7l0,0.2
		C36.1,77,35.3,75.5,35.6,75z M33.8,75.4c0-0.3,0.1-0.5,0.2-0.7c0.1,0,0.9,0.1,1.1,0.2c0,0.4,0.2,1.4,1.1,2.6
		c-0.1,0.3-0.4,0.6-0.5,0.9c-0.1,0.5-0.5,1.2-0.5,1.7c-0.2-0.1-0.4-0.3-0.5-0.4l-0.1-0.1l0,0c-0.1-0.6,0.7-1.1,0.8-1.9
		c-0.1,0-0.1,0-0.2,0.1c-0.3,0.4-0.7,1-0.8,1.5c-0.2-0.2-0.4-0.4-0.5-0.7c0-0.3-0.1-0.6-0.1-0.9c0.1-0.4,0.5-0.7,0.8-1
		c-0.1,0.1-0.5,0.1-0.8,0.5c0-0.1,0-0.2,0-0.3C33.7,76.5,33.7,75.9,33.8,75.4z M33,80c-0.3-0.2-0.4-0.8-0.4-0.9
		c0.1-0.1,0.1-0.3,0-0.4c0-0.3-0.1-0.8-0.2-0.9c-0.1-0.1-0.1-0.3-0.1-0.5c0-0.2,0.1-0.4,0.1-0.5c0.2-0.3,0.1-1.2,0.1-1.2
		c-0.1-0.1-0.2,0.1-0.2,0.1c0,0,0,0.8-0.1,1.2c-0.1,0.2-0.2,0.3-0.2,0.5c0,0.3,0.1,0.5,0.2,0.7c0.1,0.6,0,1,0,1.1
		c0,0.1,0.6,1.4,0.7,1.7l0,0l0,0.3c-1.5-1.4-1-2.5-1.1-2.6c-0.1-0.1-0.1-0.4-0.2-0.6c-0.1-0.4-0.1-0.9,0-1.3c0.1-0.3,0.2-0.7,0.1-1
		c-0.2-0.9,0.4-1,0.8-1.2c0.1,0,0.7,0.1,0.9,0.1c-0.1,0.3,0,0.6-0.1,0.9c-0.1,0.5-0.2,2.7,0.1,3.5C33.3,79.2,33,79.6,33,80z
		 M35.3,83.5c0-0.8-1.2-1.1-1.3-1.2c-0.2-0.2-0.4-0.4-0.5-0.6c-0.3-0.4-0.2-0.9-0.2-1.4c-0.1-0.9,0.6-1.1,0.6-1.1l0,0l0,0
		c0.3,0.2,0.3,0.4,0.6,0.6c0.2,0.2,0.5,0.4,0.8,0.6c0.1,0.2,0.2,0.2,0.2,0.6c0,0.4-0.2,0.9-0.2,1.3c0,0.4,0.2,1,0.6,1.3
		C35.7,83.6,35.5,83.5,35.3,83.5z M66.8,90.6L66.8,90.6L66.8,90.6L66.8,90.6z M56.3,89.9L56.3,89.9L56.3,89.9L56.3,89.9z M58.5,70.4
		L58.5,70.4L58.5,70.4z M78.8,74c0.5,1.1,0.1,1.1,0.1,1.2c-0.1,0.1-1,0.1-1,0.1c-1,0-1.9,0-2.8,0c-2-0.1-6.6-0.2-6.8-0.2
		c-0.1,0-0.1,0-0.2-0.1c-0.6-0.6-1.1-1.2-1.7-1.8c-0.7-0.7-1.4-1.5-2-2.2c-0.1-0.1-0.2-0.3-0.3-0.3c-1.2,0.3-1.2-0.8-1.3-0.8
		c-1.6,0-2.8-0.1-4.6,0c-0.3,0-0.7,0.2-0.9,0.2c-0.5-0.1,0-0.6,0.2-0.8c0.4-0.4,0.9-0.8,1.1-1.4c0.1-0.3,0.4-0.6,0.6-0.8
		c0,0,0.5,0.3,0.8,0.3c0.4,0.1,2.3,1.2,2.8,1.5c0,0-1.9-1.5-2.6-1.7c-0.3-0.1-0.6-0.2-0.8-0.4c0.4-0.3,1.4-0.4,1.4-0.4
		c0.1,0.1,1.5,1.2,1.9,1.8c0,0-0.9-1.2-1.4-1.7c-0.4-0.3-0.7-0.7-1.1-1c0.5,0,1,0,1.5,0c0,0,0.9,0.9,1.2,1.4c0.3,0.4,0.7,1,0.7,1.6
		c0,0.1-0.2,0.4-0.2,0.7c0,0.4,0.3,0.4,0.4,0.8l0.2-0.1c-0.1-0.3-0.5-0.3-0.4-0.7c0-0.3,0.2-0.5,0.2-0.7c0.1-0.5-0.4-1.2-0.7-1.6
		c-0.5-0.9-1.2-1.8-1.9-2.6c3.1,0.3,6.1,0.7,9.2,1c0.7,0.1,1.5,1.8,1.5,2.1c-1.6-0.4-3.3-0.5-5-0.5c-0.6,0-1.6-0.1-2.2,0.1
		c-0.7,0.2-0.8,1.1-0.8,1c0,0,0.2-0.9,1.5-0.9c0.7,0,1.9,0,2.6,0c2.6,0.1,5.3,0.4,7.4,2.1C76.2,70.2,78.5,73.3,78.8,74z M66.6,101.8
		l-0.2,0.1L66.6,101.8z M69.4,101.6c0.2-0.1,0.4-0.3,0.5-0.4C69.8,101.4,69.6,101.5,69.4,101.6z M88.6,82.2c0.4-0.2,1-0.8,0.9-0.7
		c0.9-0.6,1.4,0,1.5,0.1c0,0-0.3,0.3-0.4,0.4c0,0-0.8,1.1-2,1.7c-0.7,0.4-3.6-0.6-2.6-2.2c0.1-0.1,0.4-0.1,0.4-0.2
		c-0.1,0.2-0.1,0.3-0.1,0.5c-0.1,0.4,0.3,0.7,0.6,0.5C87.1,82.4,88,82.7,88.6,82.2z M89.7,73.2c-0.1-1.2-0.1-2.3-0.2-3.5
		c-0.1-1.2-0.2-2.3-0.4-3.5c-0.1-0.5-0.1-1-0.1-1.5c0-0.5-0.2-2.2-0.4-2.6c0.2,0.2,0.8,0.6,0.8,0.6c-0.5-0.5-2-2.3-2.5-3.4
		c-0.4-0.8-0.8-1.6-1-2.5c1.8,0.3,4.1-0.1,5-0.4c1.2,2.6,1.9,5.6,2.3,8.5c0.2,1.3,0.2,2.7,0.2,4c0,1.6-0.2,3.2-0.5,4.8
		c-0.2,1.4-0.6,2.7-1.3,3.9c-0.2,0.3-0.3,0.4-0.6,0.7c-0.6,0.5-1.2,0.7-1.9,1.3l-0.3,0.1c-0.3,0.2-0.4,0.7-0.5,1
		c-0.3,0.5-1,1.2-1.2,1.3c-0.2,0.2-0.5,0.2-0.5-0.4c0-0.2,2-3.2,2.2-3.5c0.2-0.2,0.3-0.5,0.6-0.7c0.1-0.1,0.3-0.1,0.3-0.3
		C89.9,76.6,89.7,73.8,89.7,73.2z M89.1,77.6l0.1-0.1L89.1,77.6z M69.3,78.6c-0.1,0.1-0.3,0.2-0.4,0.2C69,78.7,69.1,78.7,69.3,78.6z
		 M70.7,100.9l-0.1,0.1L70.7,100.9L70.7,100.9L70.7,100.9z M77.4,98.2c-0.1,0.8-0.9,1.9-1.1,2.1c-0.9,1.1-2.1,1.1-2.2,0.7
		c-0.1-0.3,0.6-0.9,0.8-1.1c0.3-0.6,0.3-1.2,0.3-1.2c0,0.5-0.5,1-0.8,1.4c-0.3,0.3-0.6,0.7-0.7,0.8c-0.2,0.1-0.4,0.1-0.5-0.1
		c-0.2-0.4,0.1-0.5,0-0.5c1-0.5,1.2-1,1.3-1.6c0,0.1-0.4,1-1.2,1.3c-0.2,0.1-0.3,0.1-0.4,0.3c-0.7-0.4-0.1-0.6,0.7-1.1
		c0,0,0.4-0.3,0.6-0.6c0.6-0.7,0.5-1.7,0.2-2.4c-0.2-0.4-0.3-0.9-0.5-1.3c-0.4-1.3-0.7-2.6-1.3-3.8c-0.1-0.2-0.3-0.5-0.3-0.8
		c0-0.3,0-1.1,0.1-1.2c0.1-0.2,0.7-1.2,1-1.5l0,0c0.6,1.1,2.5,1.2,3,1.4c1.4,0.5,1.5,1.7,1.5,2.2c0,0.5-0.3,1-0.4,1.4
		c-0.3,1-0.8,2-0.7,3C76.7,96.1,77.4,97.7,77.4,98.2z M77.7,99.2c-0.1,0-0.2-0.1-0.2-0.2c0.8-1.2-0.2-3.2-0.2-3.5
		c0-0.5,0.4-2.7,0.5-3.2c0.2-0.7,0.5-1.3,0.3-2c-0.1-0.7-0.7-1.3-1.4-1.6c-0.3-0.2-2.5-0.3-3.2-1.6c0,0,0.2-0.2-0.9-1.3
		c-0.5-0.5-0.9-1-1.4-1.5c-0.4-2.7-2.1-4.3-2.1-4.3l0,0l0,0h0c-0.2-0.4-0.4-0.8-0.7-1.2c0.3,0,0.6-0.1,0.8-0.2
		c0.4,0.1,0.8,0.2,1.2,0.3c1.1,0.2,2.1,0.3,3.2,0.4c1.1,0.1,2.2,0.3,3.3,0.3c1.1,0.1,2.2,0.1,3.3,0.1c1,0,2.1,0,3.1,0
		c0.8-0.1,1.7-0.1,2.5-0.4c1.7-0.6,2.8-3.1,3.1-2.9c0.2,0.1,0.1,0.8-0.1,0.9c-0.1,0.1-0.8,0.9-2.5,3.8c0,0-1,0.1-1,1.1
		c0,1.4,2.5,2.2,3,2c0,0,0.9-0.3,2.1-1.5c-0.3,0.5-0.5,1-0.7,1.5c-0.3,0.8-2.3,5.1-3,6.8c-0.3-0.7-0.8-1.3-1.4-1.7
		c-0.3-0.2-0.7-0.3-1-0.4c-0.4-0.1-1.1-0.3-1.3-0.7c0,0,0-4.3-0.2-5.7c0-0.5-0.3-1.4-0.6-1.8c0,0,0.6,1.9,0.3,3.1
		c-0.1,0.4,0.1,2.1,0.2,3.5c-0.5-0.4-1.1-0.6-1.7-0.8c-0.6-0.2-0.6-1.1-0.6-1.6c0-0.5,0.1-1,0.1-1.6c0.1-0.9,0-1.8-0.2-2.6
		c0,0,0.1,1.9,0,2.8c0,0.5-0.1,1-0.1,1.6c0,0.5,0,1.4,0.6,1.6c0.6,0.2,1.4,0.6,1.9,1c0,0.2,0,0.4,0,0.6c-0.1,0.6,1.8,1.1,2.1,1.3
		c0.8,0.4,1.3,1,1.7,1.8c0,0-0.9,2.3-0.1,3.1C84.1,96.5,81.2,98.1,77.7,99.2z M96.6,82c-0.4,0.3-1,0.5-1,0c0-0.2,0.7-2.3,0.9-3.2
		c0.5-1.9,1.2-5.7,1.3-5.7c0.1,0,0.5,0.2,0.8,0.2C98.4,75.2,97.3,80.6,96.6,82z M98.9,76.3c-0.5,1.9-0.9,2.4-0.8,2.2
		c0.4-1.9,0.9-2.9,1.1-4.9c0.1,0,0.3-0.1,0.3-0.1C99.3,74.6,99.1,75.3,98.9,76.3z M101.2,81.8c-0.6-0.6,0.4-2.3,0.4-2.3
		c0,0,0.3-0.1,0.4-0.1l0,0l0,0C101.1,80.6,101.2,81.6,101.2,81.8z M103.7,75.5c-0.2,0.5-0.4,0.7-0.7,1.4c-0.1-0.1-0.1-0.1-0.1-0.2
		c0-0.7,0.4-1.8,0.6-2.1c0,0-0.6,0.2-1.4,4.5l-0.4,0.1c0.1-0.2,0.1-0.4,0.2-0.6c0.3-0.8,0.4-1.5,0.5-2.4c0.2-1.9,1.4-2.4,1.5-2.3
		C103.9,74.4,103.8,75.1,103.7,75.5z"/>
</g>
</svg>
